<svg width="219" height="150" viewBox="0 0 219 150" fill="none" xmlns="http://www.w3.org/2000/svg">
<path d="M32.1616 96.4312C31.7244 97.0011 31.1185 97.4328 30.3438 97.7261C29.569 98.0194 28.6891 98.166 27.7041 98.166C26.6914 98.166 25.7949 97.9364 25.0146 97.4771C24.2344 97.0177 23.6312 96.362 23.2051 95.5098C22.7845 94.652 22.5659 93.6532 22.5493 92.5132V91.5669C22.5493 89.7407 22.9865 88.3158 23.8608 87.292C24.7352 86.2627 25.9554 85.748 27.5215 85.748C28.8662 85.748 29.9342 86.0801 30.7256 86.7441C31.5169 87.4082 31.9928 88.3656 32.1533 89.6162H30.0947C29.8623 88.1608 29.0184 87.4331 27.563 87.4331C26.6222 87.4331 25.9056 87.7734 25.4131 88.4541C24.9261 89.1292 24.6743 90.1226 24.6577 91.4341V92.3638C24.6577 93.6698 24.9316 94.6852 25.4795 95.4102C26.0329 96.1296 26.7993 96.4893 27.7788 96.4893C28.8524 96.4893 29.616 96.2458 30.0698 95.7588V93.3931H27.5796V91.7993H32.1616V96.4312ZM38.2295 98.166C36.9512 98.166 35.9136 97.7648 35.1167 96.9624C34.3254 96.1545 33.9297 95.0809 33.9297 93.7417V93.4927C33.9297 92.5962 34.1012 91.7965 34.4443 91.0938C34.793 90.3854 35.2799 89.8348 35.9053 89.4419C36.5306 89.049 37.2279 88.8525 37.9971 88.8525C39.2201 88.8525 40.1636 89.2427 40.8276 90.0229C41.4972 90.8032 41.832 91.9072 41.832 93.335V94.1484H35.9634C36.0243 94.89 36.2705 95.4766 36.7021 95.9082C37.1393 96.3398 37.6872 96.5557 38.3457 96.5557C39.2699 96.5557 40.0225 96.1821 40.6035 95.4351L41.6909 96.4727C41.3312 97.0094 40.8498 97.4272 40.2466 97.7261C39.6489 98.0194 38.9766 98.166 38.2295 98.166ZM37.9888 90.4712C37.4354 90.4712 36.9871 90.6649 36.644 91.0522C36.3065 91.4396 36.0907 91.9792 35.9966 92.6709H39.8398V92.5215C39.7956 91.8464 39.6157 91.3372 39.3003 90.9941C38.9849 90.6455 38.5477 90.4712 37.9888 90.4712ZM45.2769 89.0186L45.335 90.0562C45.999 89.2537 46.8706 88.8525 47.9497 88.8525C49.8201 88.8525 50.772 89.9233 50.8052 92.0649V98H48.7881V92.1812C48.7881 91.6112 48.6636 91.1906 48.4146 90.9194C48.1711 90.6427 47.7699 90.5044 47.2109 90.5044C46.3975 90.5044 45.7915 90.8724 45.3931 91.6084V98H43.376V89.0186H45.2769ZM58.3091 97.1201C57.717 97.8174 56.8758 98.166 55.7856 98.166C54.8117 98.166 54.0729 97.881 53.5693 97.311C53.0713 96.741 52.8223 95.9165 52.8223 94.8374V89.0186H54.8394V94.8125C54.8394 95.9525 55.3125 96.5225 56.2588 96.5225C57.2383 96.5225 57.8996 96.1711 58.2427 95.4683V89.0186H60.2598V98H58.3589L58.3091 97.1201ZM64.46 98H62.4429V89.0186H64.46V98ZM62.3184 86.686C62.3184 86.3761 62.4152 86.1188 62.6089 85.9141C62.8081 85.7093 63.0903 85.6069 63.4556 85.6069C63.8208 85.6069 64.103 85.7093 64.3022 85.9141C64.5015 86.1188 64.6011 86.3761 64.6011 86.686C64.6011 86.9904 64.5015 87.245 64.3022 87.4497C64.103 87.6489 63.8208 87.7485 63.4556 87.7485C63.0903 87.7485 62.8081 87.6489 62.6089 87.4497C62.4152 87.245 62.3184 86.9904 62.3184 86.686ZM68.5356 89.0186L68.5938 90.0562C69.2578 89.2537 70.1294 88.8525 71.2085 88.8525C73.0789 88.8525 74.0308 89.9233 74.064 92.0649V98H72.0469V92.1812C72.0469 91.6112 71.9224 91.1906 71.6733 90.9194C71.4299 90.6427 71.0286 90.5044 70.4697 90.5044C69.6562 90.5044 69.0503 90.8724 68.6519 91.6084V98H66.6348V89.0186H68.5356ZM80.082 98.166C78.8037 98.166 77.7661 97.7648 76.9692 96.9624C76.1779 96.1545 75.7822 95.0809 75.7822 93.7417V93.4927C75.7822 92.5962 75.9538 91.7965 76.2969 91.0938C76.6455 90.3854 77.1325 89.8348 77.7578 89.4419C78.3831 89.049 79.0804 88.8525 79.8496 88.8525C81.0726 88.8525 82.0161 89.2427 82.6802 90.0229C83.3498 90.8032 83.6846 91.9072 83.6846 93.335V94.1484H77.8159C77.8768 94.89 78.123 95.4766 78.5547 95.9082C78.9919 96.3398 79.5397 96.5557 80.1982 96.5557C81.1224 96.5557 81.875 96.1821 82.4561 95.4351L83.5435 96.4727C83.1838 97.0094 82.7023 97.4272 82.0991 97.7261C81.5015 98.0194 80.8291 98.166 80.082 98.166ZM79.8413 90.4712C79.2879 90.4712 78.8397 90.6649 78.4966 91.0522C78.159 91.4396 77.9432 91.9792 77.8491 92.6709H81.6924V92.5215C81.6481 91.8464 81.4683 91.3372 81.1528 90.9941C80.8374 90.6455 80.4002 90.4712 79.8413 90.4712ZM91.3877 89.0186L91.4458 89.9565C92.0767 89.2205 92.9399 88.8525 94.0356 88.8525C95.2365 88.8525 96.0583 89.3118 96.501 90.2305C97.154 89.3118 98.0726 88.8525 99.2568 88.8525C100.247 88.8525 100.983 89.1265 101.465 89.6743C101.952 90.2222 102.201 91.0301 102.212 92.0981V98H100.195V92.1562C100.195 91.5863 100.07 91.1685 99.8213 90.9028C99.5723 90.6372 99.16 90.5044 98.5845 90.5044C98.1252 90.5044 97.7489 90.6289 97.4556 90.8779C97.1678 91.1214 96.9658 91.4424 96.8496 91.8408L96.8579 98H94.8408V92.0898C94.8132 91.0329 94.2736 90.5044 93.2222 90.5044C92.4142 90.5044 91.8415 90.8337 91.5039 91.4922V98H89.4868V89.0186H91.3877ZM108.238 98.166C106.96 98.166 105.922 97.7648 105.125 96.9624C104.334 96.1545 103.938 95.0809 103.938 93.7417V93.4927C103.938 92.5962 104.11 91.7965 104.453 91.0938C104.802 90.3854 105.289 89.8348 105.914 89.4419C106.539 89.049 107.237 88.8525 108.006 88.8525C109.229 88.8525 110.172 89.2427 110.836 90.0229C111.506 90.8032 111.841 91.9072 111.841 93.335V94.1484H105.972C106.033 94.89 106.279 95.4766 106.711 95.9082C107.148 96.3398 107.696 96.5557 108.354 96.5557C109.279 96.5557 110.031 96.1821 110.612 95.4351L111.7 96.4727C111.34 97.0094 110.859 97.4272 110.255 97.7261C109.658 98.0194 108.985 98.166 108.238 98.166ZM107.998 90.4712C107.444 90.4712 106.996 90.6649 106.653 91.0522C106.315 91.4396 106.099 91.9792 106.005 92.6709H109.849V92.5215C109.804 91.8464 109.625 91.3372 109.309 90.9941C108.994 90.6455 108.556 90.4712 107.998 90.4712ZM113.036 93.4429C113.036 92.0594 113.357 90.9499 113.999 90.1143C114.641 89.2731 115.501 88.8525 116.581 88.8525C117.532 88.8525 118.302 89.1846 118.888 89.8486V85.25H120.905V98H119.079L118.979 97.0703C118.376 97.8008 117.571 98.166 116.564 98.166C115.513 98.166 114.66 97.7427 114.007 96.896C113.36 96.0493 113.036 94.8983 113.036 93.4429ZM115.053 93.6172C115.053 94.5303 115.228 95.2441 115.576 95.7588C115.93 96.2679 116.431 96.5225 117.079 96.5225C117.903 96.5225 118.506 96.1545 118.888 95.4185V91.5835C118.517 90.8641 117.92 90.5044 117.095 90.5044C116.442 90.5044 115.939 90.7645 115.584 91.2847C115.23 91.7993 115.053 92.5768 115.053 93.6172ZM125.155 98H123.138V89.0186H125.155V98ZM123.014 86.686C123.014 86.3761 123.111 86.1188 123.304 85.9141C123.503 85.7093 123.786 85.6069 124.151 85.6069C124.516 85.6069 124.798 85.7093 124.998 85.9141C125.197 86.1188 125.296 86.3761 125.296 86.686C125.296 86.9904 125.197 87.245 124.998 87.4497C124.798 87.6489 124.516 87.7485 124.151 87.7485C123.786 87.7485 123.503 87.6489 123.304 87.4497C123.111 87.245 123.014 86.9904 123.014 86.686ZM131.049 96.5557C131.552 96.5557 131.97 96.409 132.302 96.1157C132.634 95.8224 132.811 95.46 132.833 95.0283H134.734C134.712 95.5872 134.538 96.1102 134.211 96.5972C133.885 97.0786 133.442 97.4604 132.883 97.7427C132.324 98.0249 131.721 98.166 131.074 98.166C129.818 98.166 128.821 97.7593 128.085 96.9458C127.349 96.1323 126.981 95.009 126.981 93.5757V93.3682C126.981 92.0013 127.347 90.9084 128.077 90.0894C128.808 89.2648 129.804 88.8525 131.065 88.8525C132.133 88.8525 133.002 89.1652 133.672 89.7905C134.347 90.4103 134.701 91.2266 134.734 92.2393H132.833C132.811 91.7246 132.634 91.3013 132.302 90.9692C131.976 90.6372 131.558 90.4712 131.049 90.4712C130.396 90.4712 129.892 90.7091 129.538 91.1851C129.184 91.6554 129.004 92.3721 128.999 93.335V93.6587C128.999 94.6326 129.173 95.3604 129.521 95.8418C129.876 96.3177 130.385 96.5557 131.049 96.5557ZM138.403 98H136.386V89.0186H138.403V98ZM136.262 86.686C136.262 86.3761 136.359 86.1188 136.552 85.9141C136.751 85.7093 137.034 85.6069 137.399 85.6069C137.764 85.6069 138.046 85.7093 138.246 85.9141C138.445 86.1188 138.544 86.3761 138.544 86.686C138.544 86.9904 138.445 87.245 138.246 87.4497C138.046 87.6489 137.764 87.7485 137.399 87.7485C137.034 87.7485 136.751 87.6489 136.552 87.4497C136.359 87.245 136.262 86.9904 136.262 86.686ZM142.479 89.0186L142.537 90.0562C143.201 89.2537 144.073 88.8525 145.152 88.8525C147.022 88.8525 147.974 89.9233 148.007 92.0649V98H145.99V92.1812C145.99 91.6112 145.866 91.1906 145.617 90.9194C145.373 90.6427 144.972 90.5044 144.413 90.5044C143.6 90.5044 142.994 90.8724 142.595 91.6084V98H140.578V89.0186H142.479ZM154.025 98.166C152.747 98.166 151.709 97.7648 150.913 96.9624C150.121 96.1545 149.726 95.0809 149.726 93.7417V93.4927C149.726 92.5962 149.897 91.7965 150.24 91.0938C150.589 90.3854 151.076 89.8348 151.701 89.4419C152.326 89.049 153.024 88.8525 153.793 88.8525C155.016 88.8525 155.959 89.2427 156.624 90.0229C157.293 90.8032 157.628 91.9072 157.628 93.335V94.1484H151.759C151.82 94.89 152.066 95.4766 152.498 95.9082C152.935 96.3398 153.483 96.5557 154.142 96.5557C155.066 96.5557 155.818 96.1821 156.399 95.4351L157.487 96.4727C157.127 97.0094 156.646 97.4272 156.042 97.7261C155.445 98.0194 154.772 98.166 154.025 98.166ZM153.785 90.4712C153.231 90.4712 152.783 90.6649 152.44 91.0522C152.102 91.4396 151.887 91.9792 151.792 92.6709H155.636V92.5215C155.591 91.8464 155.412 91.3372 155.096 90.9941C154.781 90.6455 154.344 90.4712 153.785 90.4712ZM163.057 93.4429C163.057 92.0594 163.378 90.9499 164.02 90.1143C164.661 89.2731 165.522 88.8525 166.601 88.8525C167.553 88.8525 168.322 89.1846 168.909 89.8486V85.25H170.926V98H169.1L169 97.0703C168.397 97.8008 167.592 98.166 166.584 98.166C165.533 98.166 164.681 97.7427 164.028 96.896C163.38 96.0493 163.057 94.8983 163.057 93.4429ZM165.074 93.6172C165.074 94.5303 165.248 95.2441 165.597 95.7588C165.951 96.2679 166.452 96.5225 167.099 96.5225C167.924 96.5225 168.527 96.1545 168.909 95.4185V91.5835C168.538 90.8641 167.94 90.5044 167.116 90.5044C166.463 90.5044 165.959 90.7645 165.605 91.2847C165.251 91.7993 165.074 92.5768 165.074 93.6172ZM172.652 93.4263C172.652 92.5464 172.827 91.755 173.175 91.0522C173.524 90.3439 174.014 89.8016 174.645 89.4253C175.275 89.0435 176 88.8525 176.819 88.8525C178.031 88.8525 179.014 89.2427 179.766 90.0229C180.524 90.8032 180.934 91.8381 180.995 93.1274L181.003 93.6006C181.003 94.486 180.831 95.2773 180.488 95.9746C180.151 96.6719 179.664 97.2114 179.027 97.5933C178.396 97.9751 177.666 98.166 176.836 98.166C175.569 98.166 174.553 97.7454 173.79 96.9043C173.031 96.0576 172.652 94.9315 172.652 93.5259V93.4263ZM174.669 93.6006C174.669 94.5247 174.86 95.2497 175.242 95.7754C175.624 96.2956 176.155 96.5557 176.836 96.5557C177.517 96.5557 178.045 96.29 178.421 95.7588C178.803 95.2275 178.994 94.45 178.994 93.4263C178.994 92.5187 178.798 91.7993 178.405 91.2681C178.017 90.7368 177.489 90.4712 176.819 90.4712C176.161 90.4712 175.638 90.734 175.25 91.2598C174.863 91.7799 174.669 92.5602 174.669 93.6006ZM182.331 93.4263C182.331 92.5464 182.505 91.755 182.854 91.0522C183.203 90.3439 183.692 89.8016 184.323 89.4253C184.954 89.0435 185.679 88.8525 186.498 88.8525C187.71 88.8525 188.692 89.2427 189.445 90.0229C190.203 90.8032 190.612 91.8381 190.673 93.1274L190.682 93.6006C190.682 94.486 190.51 95.2773 190.167 95.9746C189.829 96.6719 189.342 97.2114 188.706 97.5933C188.075 97.9751 187.345 98.166 186.515 98.166C185.247 98.166 184.232 97.7454 183.468 96.9043C182.71 96.0576 182.331 94.9315 182.331 93.5259V93.4263ZM184.348 93.6006C184.348 94.5247 184.539 95.2497 184.921 95.7754C185.303 96.2956 185.834 96.5557 186.515 96.5557C187.195 96.5557 187.724 96.29 188.1 95.7588C188.482 95.2275 188.673 94.45 188.673 93.4263C188.673 92.5187 188.476 91.7993 188.083 91.2681C187.696 90.7368 187.168 90.4712 186.498 90.4712C185.84 90.4712 185.317 90.734 184.929 91.2598C184.542 91.7799 184.348 92.5602 184.348 93.6006ZM197.09 90.8613C196.824 90.8171 196.55 90.7949 196.268 90.7949C195.344 90.7949 194.721 91.1491 194.4 91.8574V98H192.383V89.0186H194.309L194.359 90.0229C194.846 89.2427 195.521 88.8525 196.384 88.8525C196.672 88.8525 196.91 88.8913 197.098 88.9688L197.09 90.8613ZM5.21729 116.443C5.21729 115.059 5.53825 113.95 6.18018 113.114C6.8221 112.273 7.68262 111.853 8.76172 111.853C9.71354 111.853 10.4827 112.185 11.0693 112.849V108.25H13.0864V121H11.2603L11.1606 120.07C10.5575 120.801 9.75228 121.166 8.74512 121.166C7.69368 121.166 6.84147 120.743 6.18848 119.896C5.54102 119.049 5.21729 117.898 5.21729 116.443ZM7.23438 116.617C7.23438 117.53 7.40869 118.244 7.75732 118.759C8.11149 119.268 8.6123 119.522 9.25977 119.522C10.0843 119.522 10.6875 119.154 11.0693 118.418V114.583C10.6986 113.864 10.1009 113.504 9.27637 113.504C8.62337 113.504 8.11979 113.764 7.76562 114.285C7.41146 114.799 7.23438 115.577 7.23438 116.617ZM19.146 121.166C17.8677 121.166 16.8301 120.765 16.0332 119.962C15.2419 119.154 14.8462 118.081 14.8462 116.742V116.493C14.8462 115.596 15.0177 114.797 15.3608 114.094C15.7095 113.385 16.1965 112.835 16.8218 112.442C17.4471 112.049 18.1444 111.853 18.9136 111.853C20.1366 111.853 21.0801 112.243 21.7441 113.023C22.4137 113.803 22.7485 114.907 22.7485 116.335V117.148H16.8799C16.9408 117.89 17.187 118.477 17.6187 118.908C18.0558 119.34 18.6037 119.556 19.2622 119.556C20.1864 119.556 20.939 119.182 21.52 118.435L22.6074 119.473C22.2477 120.009 21.7663 120.427 21.1631 120.726C20.5654 121.019 19.8931 121.166 19.146 121.166ZM18.9053 113.471C18.3519 113.471 17.9036 113.665 17.5605 114.052C17.223 114.44 17.0072 114.979 16.9131 115.671H20.7563V115.521C20.7121 114.846 20.5322 114.337 20.2168 113.994C19.9014 113.646 19.4642 113.471 18.9053 113.471ZM26.4673 121H24.4502V108.25H26.4673V121ZM30.8169 121H28.7998V112.019H30.8169V121ZM28.6753 109.686C28.6753 109.376 28.7721 109.119 28.9658 108.914C29.165 108.709 29.4473 108.607 29.8125 108.607C30.1777 108.607 30.46 108.709 30.6592 108.914C30.8584 109.119 30.958 109.376 30.958 109.686C30.958 109.99 30.8584 110.245 30.6592 110.45C30.46 110.649 30.1777 110.749 29.8125 110.749C29.4473 110.749 29.165 110.649 28.9658 110.45C28.7721 110.245 28.6753 109.99 28.6753 109.686ZM36.1875 118.443L38.0884 112.019H40.1719L37.0591 121H35.3076L32.1699 112.019H34.2617L36.1875 118.443ZM45.2769 121.166C43.9985 121.166 42.9609 120.765 42.1641 119.962C41.3727 119.154 40.9771 118.081 40.9771 116.742V116.493C40.9771 115.596 41.1486 114.797 41.4917 114.094C41.8403 113.385 42.3273 112.835 42.9526 112.442C43.578 112.049 44.2752 111.853 45.0444 111.853C46.2674 111.853 47.2109 112.243 47.875 113.023C48.5446 113.803 48.8794 114.907 48.8794 116.335V117.148H43.0107C43.0716 117.89 43.3179 118.477 43.7495 118.908C44.1867 119.34 44.7345 119.556 45.3931 119.556C46.3172 119.556 47.0698 119.182 47.6509 118.435L48.7383 119.473C48.3786 120.009 47.8971 120.427 47.2939 120.726C46.6963 121.019 46.0239 121.166 45.2769 121.166ZM45.0361 113.471C44.4827 113.471 44.0345 113.665 43.6914 114.052C43.3538 114.44 43.138 114.979 43.0439 115.671H46.8872V115.521C46.8429 114.846 46.6631 114.337 46.3477 113.994C46.0322 113.646 45.5951 113.471 45.0361 113.471ZM55.1548 113.861C54.8892 113.817 54.6152 113.795 54.333 113.795C53.4089 113.795 52.7863 114.149 52.4653 114.857V121H50.4482V112.019H52.374L52.4238 113.023C52.9108 112.243 53.5859 111.853 54.4492 111.853C54.737 111.853 54.9749 111.891 55.1631 111.969L55.1548 113.861ZM60.2183 121.166C58.9399 121.166 57.9023 120.765 57.1055 119.962C56.3141 119.154 55.9185 118.081 55.9185 116.742V116.493C55.9185 115.596 56.09 114.797 56.4331 114.094C56.7817 113.385 57.2687 112.835 57.894 112.442C58.5194 112.049 59.2166 111.853 59.9858 111.853C61.2088 111.853 62.1523 112.243 62.8164 113.023C63.486 113.803 63.8208 114.907 63.8208 116.335V117.148H57.9521C58.013 117.89 58.2593 118.477 58.6909 118.908C59.1281 119.34 59.6759 119.556 60.3345 119.556C61.2586 119.556 62.0112 119.182 62.5923 118.435L63.6797 119.473C63.32 120.009 62.8385 120.427 62.2354 120.726C61.6377 121.019 60.9653 121.166 60.2183 121.166ZM59.9775 113.471C59.4242 113.471 58.9759 113.665 58.6328 114.052C58.2952 114.44 58.0794 114.979 57.9854 115.671H61.8286V115.521C61.7843 114.846 61.6045 114.337 61.2891 113.994C60.9736 113.646 60.5365 113.471 59.9775 113.471ZM65.0161 116.443C65.0161 115.059 65.3371 113.95 65.979 113.114C66.6209 112.273 67.4814 111.853 68.5605 111.853C69.5124 111.853 70.2816 112.185 70.8682 112.849V108.25H72.8853V121H71.0591L70.9595 120.07C70.3563 120.801 69.5511 121.166 68.5439 121.166C67.4925 121.166 66.6403 120.743 65.9873 119.896C65.3398 119.049 65.0161 117.898 65.0161 116.443ZM67.0332 116.617C67.0332 117.53 67.2075 118.244 67.5562 118.759C67.9103 119.268 68.4111 119.522 69.0586 119.522C69.8831 119.522 70.4863 119.154 70.8682 118.418V114.583C70.4974 113.864 69.8997 113.504 69.0752 113.504C68.4222 113.504 67.9186 113.764 67.5645 114.285C67.2103 114.799 67.0332 115.577 67.0332 116.617ZM87.1128 118.219L88.5405 112.019H90.5078L88.0591 121H86.3989L84.4731 114.833L82.5806 121H80.9204L78.4634 112.019H80.4307L81.8833 118.153L83.7261 112.019H85.2451L87.1128 118.219ZM94.0024 121H91.9854V112.019H94.0024V121ZM91.8608 109.686C91.8608 109.376 91.9577 109.119 92.1514 108.914C92.3506 108.709 92.6328 108.607 92.998 108.607C93.3633 108.607 93.6455 108.709 93.8447 108.914C94.0439 109.119 94.1436 109.376 94.1436 109.686C94.1436 109.99 94.0439 110.245 93.8447 110.45C93.6455 110.649 93.3633 110.749 92.998 110.749C92.6328 110.749 92.3506 110.649 92.1514 110.45C91.9577 110.245 91.8608 109.99 91.8608 109.686ZM98.7339 109.835V112.019H100.319V113.513H98.7339V118.526C98.7339 118.869 98.8003 119.118 98.9331 119.273C99.0715 119.423 99.3149 119.498 99.6636 119.498C99.896 119.498 100.131 119.47 100.369 119.415V120.975C99.9098 121.102 99.4671 121.166 99.041 121.166C97.4915 121.166 96.7168 120.311 96.7168 118.601V113.513H95.2393V112.019H96.7168V109.835H98.7339ZM103.855 112.998C104.514 112.234 105.347 111.853 106.354 111.853C108.269 111.853 109.24 112.945 109.268 115.131V121H107.25V115.206C107.25 114.586 107.115 114.149 106.844 113.895C106.578 113.634 106.185 113.504 105.665 113.504C104.857 113.504 104.254 113.864 103.855 114.583V121H101.838V108.25H103.855V112.998ZM120.914 121C120.825 120.828 120.748 120.549 120.681 120.162C120.039 120.831 119.253 121.166 118.324 121.166C117.422 121.166 116.686 120.909 116.116 120.394C115.546 119.879 115.261 119.243 115.261 118.485C115.261 117.528 115.615 116.794 116.323 116.285C117.037 115.771 118.055 115.513 119.378 115.513H120.615V114.924C120.615 114.459 120.485 114.088 120.225 113.812C119.965 113.529 119.569 113.388 119.038 113.388C118.578 113.388 118.202 113.504 117.909 113.737C117.615 113.964 117.469 114.254 117.469 114.608H115.452C115.452 114.116 115.615 113.657 115.941 113.23C116.268 112.799 116.711 112.461 117.27 112.218C117.834 111.974 118.462 111.853 119.154 111.853C120.205 111.853 121.044 112.118 121.669 112.649C122.294 113.175 122.615 113.917 122.632 114.874V118.925C122.632 119.733 122.745 120.377 122.972 120.859V121H120.914ZM118.697 119.547C119.096 119.547 119.469 119.451 119.818 119.257C120.172 119.063 120.438 118.803 120.615 118.477V116.783H119.527C118.78 116.783 118.219 116.913 117.842 117.173C117.466 117.433 117.278 117.801 117.278 118.277C117.278 118.665 117.405 118.975 117.66 119.207C117.92 119.434 118.266 119.547 118.697 119.547ZM126.89 121H124.873V108.25H126.89V121ZM131.24 121H129.223V108.25H131.24V121ZM139.549 112.019L139.607 113.056C140.271 112.254 141.143 111.853 142.222 111.853C144.092 111.853 145.044 112.923 145.077 115.065V121H143.06V115.181C143.06 114.611 142.936 114.191 142.687 113.919C142.443 113.643 142.042 113.504 141.483 113.504C140.669 113.504 140.063 113.872 139.665 114.608V121H137.648V112.019H139.549ZM151.095 121.166C149.817 121.166 148.779 120.765 147.982 119.962C147.191 119.154 146.795 118.081 146.795 116.742V116.493C146.795 115.596 146.967 114.797 147.31 114.094C147.659 113.385 148.146 112.835 148.771 112.442C149.396 112.049 150.094 111.853 150.863 111.853C152.086 111.853 153.029 112.243 153.693 113.023C154.363 113.803 154.698 114.907 154.698 116.335V117.148H148.829C148.89 117.89 149.136 118.477 149.568 118.908C150.005 119.34 150.553 119.556 151.211 119.556C152.136 119.556 152.888 119.182 153.469 118.435L154.557 119.473C154.197 120.009 153.715 120.427 153.112 120.726C152.515 121.019 151.842 121.166 151.095 121.166ZM150.854 113.471C150.301 113.471 149.853 113.665 149.51 114.052C149.172 114.44 148.956 114.979 148.862 115.671H152.706V115.521C152.661 114.846 152.481 114.337 152.166 113.994C151.851 113.646 151.413 113.471 150.854 113.471ZM159.96 119.556C160.464 119.556 160.882 119.409 161.214 119.116C161.546 118.822 161.723 118.46 161.745 118.028H163.646C163.624 118.587 163.45 119.11 163.123 119.597C162.797 120.079 162.354 120.46 161.795 120.743C161.236 121.025 160.633 121.166 159.985 121.166C158.729 121.166 157.733 120.759 156.997 119.946C156.261 119.132 155.893 118.009 155.893 116.576V116.368C155.893 115.001 156.258 113.908 156.989 113.089C157.719 112.265 158.715 111.853 159.977 111.853C161.045 111.853 161.914 112.165 162.583 112.791C163.259 113.41 163.613 114.227 163.646 115.239H161.745C161.723 114.725 161.546 114.301 161.214 113.969C160.887 113.637 160.47 113.471 159.96 113.471C159.307 113.471 158.804 113.709 158.45 114.185C158.096 114.655 157.916 115.372 157.91 116.335V116.659C157.91 117.633 158.084 118.36 158.433 118.842C158.787 119.318 159.296 119.556 159.96 119.556ZM169.125 121.166C167.846 121.166 166.809 120.765 166.012 119.962C165.22 119.154 164.825 118.081 164.825 116.742V116.493C164.825 115.596 164.996 114.797 165.339 114.094C165.688 113.385 166.175 112.835 166.8 112.442C167.426 112.049 168.123 111.853 168.892 111.853C170.115 111.853 171.059 112.243 171.723 113.023C172.392 113.803 172.727 114.907 172.727 116.335V117.148H166.858C166.919 117.89 167.166 118.477 167.597 118.908C168.034 119.34 168.582 119.556 169.241 119.556C170.165 119.556 170.917 119.182 171.499 118.435L172.586 119.473C172.226 120.009 171.745 120.427 171.142 120.726C170.544 121.019 169.872 121.166 169.125 121.166ZM168.884 113.471C168.33 113.471 167.882 113.665 167.539 114.052C167.201 114.44 166.986 114.979 166.892 115.671H170.735V115.521C170.691 114.846 170.511 114.337 170.195 113.994C169.88 113.646 169.443 113.471 168.884 113.471ZM179.334 118.56C179.334 118.2 179.185 117.926 178.886 117.738C178.593 117.55 178.103 117.384 177.417 117.24C176.731 117.096 176.158 116.913 175.699 116.692C174.692 116.205 174.188 115.499 174.188 114.575C174.188 113.8 174.514 113.153 175.167 112.633C175.82 112.113 176.651 111.853 177.658 111.853C178.731 111.853 179.597 112.118 180.256 112.649C180.92 113.181 181.252 113.87 181.252 114.716H179.235C179.235 114.329 179.091 114.008 178.803 113.753C178.515 113.493 178.134 113.363 177.658 113.363C177.215 113.363 176.853 113.466 176.57 113.67C176.294 113.875 176.155 114.149 176.155 114.492C176.155 114.802 176.285 115.043 176.545 115.214C176.806 115.386 177.331 115.56 178.123 115.737C178.914 115.909 179.534 116.116 179.982 116.36C180.436 116.598 180.771 116.886 180.986 117.223C181.208 117.561 181.318 117.97 181.318 118.452C181.318 119.26 180.984 119.915 180.314 120.419C179.644 120.917 178.767 121.166 177.683 121.166C176.947 121.166 176.291 121.033 175.715 120.768C175.14 120.502 174.692 120.137 174.371 119.672C174.05 119.207 173.889 118.706 173.889 118.169H175.848C175.876 118.645 176.056 119.013 176.388 119.273C176.72 119.528 177.16 119.655 177.708 119.655C178.239 119.655 178.643 119.556 178.919 119.356C179.196 119.152 179.334 118.886 179.334 118.56ZM188.117 118.56C188.117 118.2 187.967 117.926 187.668 117.738C187.375 117.55 186.885 117.384 186.199 117.24C185.513 117.096 184.94 116.913 184.481 116.692C183.474 116.205 182.97 115.499 182.97 114.575C182.97 113.8 183.297 113.153 183.95 112.633C184.603 112.113 185.433 111.853 186.44 111.853C187.514 111.853 188.38 112.118 189.038 112.649C189.702 113.181 190.034 113.87 190.034 114.716H188.017C188.017 114.329 187.873 114.008 187.585 113.753C187.298 113.493 186.916 113.363 186.44 113.363C185.997 113.363 185.635 113.466 185.353 113.67C185.076 113.875 184.938 114.149 184.938 114.492C184.938 114.802 185.068 115.043 185.328 115.214C185.588 115.386 186.113 115.56 186.905 115.737C187.696 115.909 188.316 116.116 188.764 116.36C189.218 116.598 189.553 116.886 189.769 117.223C189.99 117.561 190.101 117.97 190.101 118.452C190.101 119.26 189.766 119.915 189.096 120.419C188.427 120.917 187.549 121.166 186.465 121.166C185.729 121.166 185.073 121.033 184.498 120.768C183.922 120.502 183.474 120.137 183.153 119.672C182.832 119.207 182.671 118.706 182.671 118.169H184.63C184.658 118.645 184.838 119.013 185.17 119.273C185.502 119.528 185.942 119.655 186.49 119.655C187.021 119.655 187.425 119.556 187.702 119.356C187.978 119.152 188.117 118.886 188.117 118.56ZM197.231 121C197.142 120.828 197.065 120.549 196.999 120.162C196.357 120.831 195.571 121.166 194.641 121.166C193.739 121.166 193.003 120.909 192.433 120.394C191.863 119.879 191.578 119.243 191.578 118.485C191.578 117.528 191.932 116.794 192.641 116.285C193.354 115.771 194.373 115.513 195.695 115.513H196.932V114.924C196.932 114.459 196.802 114.088 196.542 113.812C196.282 113.529 195.886 113.388 195.355 113.388C194.896 113.388 194.519 113.504 194.226 113.737C193.933 113.964 193.786 114.254 193.786 114.608H191.769C191.769 114.116 191.932 113.657 192.259 113.23C192.585 112.799 193.028 112.461 193.587 112.218C194.151 111.974 194.779 111.853 195.471 111.853C196.523 111.853 197.361 112.118 197.986 112.649C198.612 113.175 198.933 113.917 198.949 114.874V118.925C198.949 119.733 199.063 120.377 199.29 120.859V121H197.231ZM195.015 119.547C195.413 119.547 195.787 119.451 196.135 119.257C196.489 119.063 196.755 118.803 196.932 118.477V116.783H195.845C195.098 116.783 194.536 116.913 194.16 117.173C193.783 117.433 193.595 117.801 193.595 118.277C193.595 118.665 193.722 118.975 193.977 119.207C194.237 119.434 194.583 119.547 195.015 119.547ZM205.764 113.861C205.499 113.817 205.225 113.795 204.942 113.795C204.018 113.795 203.396 114.149 203.075 114.857V121H201.058V112.019H202.983L203.033 113.023C203.52 112.243 204.195 111.853 205.059 111.853C205.346 111.853 205.584 111.891 205.772 111.969L205.764 113.861ZM210.33 118.111L212.156 112.019H214.306L210.736 122.361C210.188 123.872 209.259 124.627 207.947 124.627C207.654 124.627 207.33 124.578 206.976 124.478V122.917L207.358 122.942C207.867 122.942 208.249 122.848 208.503 122.66C208.764 122.478 208.968 122.168 209.118 121.73L209.408 120.958L206.254 112.019H208.429L210.33 118.111ZM49.502 144H47.4849V131.25H49.502V144ZM55.6611 144.166C54.3828 144.166 53.3452 143.765 52.5483 142.962C51.757 142.154 51.3613 141.081 51.3613 139.742V139.493C51.3613 138.596 51.5329 137.797 51.876 137.094C52.2246 136.385 52.7116 135.835 53.3369 135.442C53.9622 135.049 54.6595 134.853 55.4287 134.853C56.6517 134.853 57.5952 135.243 58.2593 136.023C58.9289 136.803 59.2637 137.907 59.2637 139.335V140.148H53.395C53.4559 140.89 53.7021 141.477 54.1338 141.908C54.571 142.34 55.1188 142.556 55.7773 142.556C56.7015 142.556 57.4541 142.182 58.0352 141.435L59.1226 142.473C58.7629 143.009 58.2814 143.427 57.6782 143.726C57.0806 144.019 56.4082 144.166 55.6611 144.166ZM55.4204 136.471C54.867 136.471 54.4188 136.665 54.0757 137.052C53.7381 137.44 53.5223 137.979 53.4282 138.671H57.2715V138.521C57.2272 137.846 57.0474 137.337 56.7319 136.994C56.4165 136.646 55.9793 136.471 55.4204 136.471ZM60.4839 139.443C60.4839 138.048 60.8104 136.936 61.4634 136.106C62.1219 135.27 62.9935 134.853 64.0781 134.853C65.1019 134.853 65.9071 135.209 66.4937 135.923L66.585 135.019H68.4028V143.726C68.4028 144.905 68.0348 145.834 67.2988 146.515C66.5684 147.196 65.5806 147.536 64.3354 147.536C63.6769 147.536 63.0322 147.398 62.4014 147.121C61.776 146.85 61.3001 146.493 60.9736 146.05L61.9282 144.838C62.548 145.574 63.3117 145.942 64.2192 145.942C64.8888 145.942 65.4173 145.76 65.8047 145.395C66.1921 145.035 66.3857 144.504 66.3857 143.801V143.195C65.8047 143.842 65.0299 144.166 64.0615 144.166C63.0101 144.166 62.1496 143.748 61.48 142.913C60.8159 142.077 60.4839 140.92 60.4839 139.443ZM62.4927 139.617C62.4927 140.519 62.6753 141.23 63.0405 141.75C63.4113 142.265 63.9232 142.522 64.5762 142.522C65.3896 142.522 65.9928 142.174 66.3857 141.477V137.525C66.0039 136.845 65.4062 136.504 64.5928 136.504C63.9287 136.504 63.4113 136.767 63.0405 137.293C62.6753 137.819 62.4927 138.593 62.4927 139.617ZM75.8486 144C75.7601 143.828 75.6826 143.549 75.6162 143.162C74.9743 143.831 74.1885 144.166 73.2588 144.166C72.3568 144.166 71.6208 143.909 71.0508 143.394C70.4808 142.879 70.1958 142.243 70.1958 141.485C70.1958 140.528 70.55 139.794 71.2583 139.285C71.9722 138.771 72.9904 138.513 74.313 138.513H75.5498V137.924C75.5498 137.459 75.4198 137.088 75.1597 136.812C74.8996 136.529 74.5039 136.388 73.9727 136.388C73.5133 136.388 73.137 136.504 72.8438 136.737C72.5505 136.964 72.4038 137.254 72.4038 137.608H70.3867C70.3867 137.116 70.55 136.657 70.8765 136.23C71.203 135.799 71.6457 135.461 72.2046 135.218C72.769 134.974 73.3971 134.853 74.0889 134.853C75.1403 134.853 75.9787 135.118 76.604 135.649C77.2293 136.175 77.5503 136.917 77.5669 137.874V141.925C77.5669 142.733 77.6803 143.377 77.9072 143.859V144H75.8486ZM73.6323 142.547C74.0308 142.547 74.4043 142.451 74.7529 142.257C75.1071 142.063 75.3727 141.803 75.5498 141.477V139.783H74.4624C73.7153 139.783 73.1536 139.913 72.7773 140.173C72.401 140.433 72.2129 140.801 72.2129 141.277C72.2129 141.665 72.3402 141.975 72.5947 142.207C72.8548 142.434 73.2007 142.547 73.6323 142.547ZM81.8252 144H79.8081V131.25H81.8252V144ZM87.8848 139.443C87.8848 138.059 88.2057 136.95 88.8477 136.114C89.4896 135.273 90.3501 134.853 91.4292 134.853C92.381 134.853 93.1502 135.185 93.7368 135.849V131.25H95.7539V144H93.9277L93.8281 143.07C93.2249 143.801 92.4198 144.166 91.4126 144.166C90.3612 144.166 89.509 143.743 88.856 142.896C88.2085 142.049 87.8848 140.898 87.8848 139.443ZM89.9019 139.617C89.9019 140.53 90.0762 141.244 90.4248 141.759C90.779 142.268 91.2798 142.522 91.9272 142.522C92.7518 142.522 93.355 142.154 93.7368 141.418V137.583C93.366 136.864 92.7684 136.504 91.9438 136.504C91.2909 136.504 90.7873 136.764 90.4331 137.285C90.0789 137.799 89.9019 138.577 89.9019 139.617ZM97.4805 139.426C97.4805 138.546 97.6548 137.755 98.0034 137.052C98.3521 136.344 98.8418 135.802 99.4727 135.425C100.104 135.043 100.828 134.853 101.647 134.853C102.859 134.853 103.842 135.243 104.594 136.023C105.352 136.803 105.762 137.838 105.823 139.127L105.831 139.601C105.831 140.486 105.66 141.277 105.316 141.975C104.979 142.672 104.492 143.211 103.855 143.593C103.225 143.975 102.494 144.166 101.664 144.166C100.397 144.166 99.3813 143.745 98.6177 142.904C97.8595 142.058 97.4805 140.931 97.4805 139.526V139.426ZM99.4976 139.601C99.4976 140.525 99.6885 141.25 100.07 141.775C100.452 142.296 100.983 142.556 101.664 142.556C102.345 142.556 102.873 142.29 103.25 141.759C103.631 141.228 103.822 140.45 103.822 139.426C103.822 138.519 103.626 137.799 103.233 137.268C102.846 136.737 102.317 136.471 101.647 136.471C100.989 136.471 100.466 136.734 100.079 137.26C99.6912 137.78 99.4976 138.56 99.4976 139.601ZM111.227 142.556C111.73 142.556 112.148 142.409 112.48 142.116C112.812 141.822 112.989 141.46 113.011 141.028H114.912C114.89 141.587 114.716 142.11 114.389 142.597C114.063 143.079 113.62 143.46 113.061 143.743C112.502 144.025 111.899 144.166 111.251 144.166C109.995 144.166 108.999 143.759 108.263 142.946C107.527 142.132 107.159 141.009 107.159 139.576V139.368C107.159 138.001 107.524 136.908 108.255 136.089C108.985 135.265 109.981 134.853 111.243 134.853C112.311 134.853 113.18 135.165 113.85 135.791C114.525 136.41 114.879 137.227 114.912 138.239H113.011C112.989 137.725 112.812 137.301 112.48 136.969C112.153 136.637 111.736 136.471 111.227 136.471C110.574 136.471 110.07 136.709 109.716 137.185C109.362 137.655 109.182 138.372 109.176 139.335V139.659C109.176 140.633 109.351 141.36 109.699 141.842C110.053 142.318 110.562 142.556 111.227 142.556ZM121.876 143.12C121.284 143.817 120.443 144.166 119.353 144.166C118.379 144.166 117.64 143.881 117.137 143.311C116.639 142.741 116.39 141.917 116.39 140.837V135.019H118.407V140.812C118.407 141.952 118.88 142.522 119.826 142.522C120.806 142.522 121.467 142.171 121.81 141.468V135.019H123.827V144H121.926L121.876 143.12ZM127.778 135.019L127.836 135.957C128.467 135.221 129.331 134.853 130.426 134.853C131.627 134.853 132.449 135.312 132.892 136.23C133.545 135.312 134.463 134.853 135.647 134.853C136.638 134.853 137.374 135.126 137.855 135.674C138.342 136.222 138.591 137.03 138.603 138.098V144H136.585V138.156C136.585 137.586 136.461 137.168 136.212 136.903C135.963 136.637 135.551 136.504 134.975 136.504C134.516 136.504 134.139 136.629 133.846 136.878C133.558 137.121 133.356 137.442 133.24 137.841L133.249 144H131.231V138.09C131.204 137.033 130.664 136.504 129.613 136.504C128.805 136.504 128.232 136.834 127.895 137.492V144H125.877V135.019H127.778ZM144.629 144.166C143.351 144.166 142.313 143.765 141.516 142.962C140.725 142.154 140.329 141.081 140.329 139.742V139.493C140.329 138.596 140.501 137.797 140.844 137.094C141.192 136.385 141.679 135.835 142.305 135.442C142.93 135.049 143.627 134.853 144.396 134.853C145.619 134.853 146.563 135.243 147.227 136.023C147.897 136.803 148.231 137.907 148.231 139.335V140.148H142.363C142.424 140.89 142.67 141.477 143.102 141.908C143.539 142.34 144.087 142.556 144.745 142.556C145.669 142.556 146.422 142.182 147.003 141.435L148.09 142.473C147.731 143.009 147.249 143.427 146.646 143.726C146.048 144.019 145.376 144.166 144.629 144.166ZM144.388 136.471C143.835 136.471 143.387 136.665 143.043 137.052C142.706 137.44 142.49 137.979 142.396 138.671H146.239V138.521C146.195 137.846 146.015 137.337 145.7 136.994C145.384 136.646 144.947 136.471 144.388 136.471ZM151.676 135.019L151.734 136.056C152.398 135.254 153.27 134.853 154.349 134.853C156.22 134.853 157.171 135.923 157.205 138.065V144H155.188V138.181C155.188 137.611 155.063 137.191 154.814 136.919C154.57 136.643 154.169 136.504 153.61 136.504C152.797 136.504 152.191 136.872 151.792 137.608V144H149.775V135.019H151.676ZM161.795 132.835V135.019H163.38V136.513H161.795V141.526C161.795 141.869 161.861 142.118 161.994 142.273C162.132 142.423 162.376 142.498 162.725 142.498C162.957 142.498 163.192 142.47 163.43 142.415V143.975C162.971 144.102 162.528 144.166 162.102 144.166C160.553 144.166 159.778 143.311 159.778 141.601V136.513H158.3V135.019H159.778V132.835H161.795ZM169.963 141.56C169.963 141.2 169.813 140.926 169.515 140.738C169.221 140.55 168.732 140.384 168.045 140.24C167.359 140.096 166.786 139.913 166.327 139.692C165.32 139.205 164.816 138.499 164.816 137.575C164.816 136.8 165.143 136.153 165.796 135.633C166.449 135.113 167.279 134.853 168.286 134.853C169.36 134.853 170.226 135.118 170.884 135.649C171.548 136.181 171.88 136.87 171.88 137.716H169.863C169.863 137.329 169.719 137.008 169.432 136.753C169.144 136.493 168.762 136.363 168.286 136.363C167.843 136.363 167.481 136.466 167.199 136.67C166.922 136.875 166.784 137.149 166.784 137.492C166.784 137.802 166.914 138.043 167.174 138.214C167.434 138.386 167.96 138.56 168.751 138.737C169.542 138.909 170.162 139.116 170.61 139.36C171.064 139.598 171.399 139.886 171.615 140.223C171.836 140.561 171.947 140.97 171.947 141.452C171.947 142.26 171.612 142.915 170.942 143.419C170.273 143.917 169.396 144.166 168.311 144.166C167.575 144.166 166.919 144.033 166.344 143.768C165.768 143.502 165.32 143.137 164.999 142.672C164.678 142.207 164.518 141.706 164.518 141.169H166.477C166.504 141.645 166.684 142.013 167.016 142.273C167.348 142.528 167.788 142.655 168.336 142.655C168.867 142.655 169.271 142.556 169.548 142.356C169.825 142.152 169.963 141.886 169.963 141.56Z" fill="#262626"/>
<path d="M134.189 21.8301L126.45 10.2259C126.15 9.77443 125.743 9.4041 125.266 9.14795C124.788 8.89181 124.255 8.7578 123.713 8.75788H117.221V3.28421C117.221 2.41318 116.875 1.57783 116.259 0.961922C115.643 0.346014 114.808 0 113.937 0H81.0947C80.8044 0 80.5259 0.115338 80.3206 0.320641C80.1153 0.525943 80 0.804394 80 1.09474C80 1.38508 80.1153 1.66353 80.3206 1.86883C80.5259 2.07413 80.8044 2.18947 81.0947 2.18947H88.7579V8.75788H82.1895C81.8991 8.75788 81.6207 8.87322 81.4154 9.07852C81.2101 9.28383 81.0947 9.56228 81.0947 9.85262C81.0947 10.143 81.2101 10.4214 81.4154 10.6267C81.6207 10.832 81.8991 10.9474 82.1895 10.9474H88.7579V17.5158H83.2842C82.9939 17.5158 82.7154 17.6311 82.5101 17.8364C82.3048 18.0417 82.1895 18.3202 82.1895 18.6105C82.1895 18.9008 82.3048 19.1793 82.5101 19.3846C82.7154 19.5899 82.9939 19.7052 83.2842 19.7052H88.7579V26.2737H84.3789C84.0886 26.2737 83.8102 26.389 83.6048 26.5943C83.3995 26.7996 83.2842 27.078 83.2842 27.3684C83.2842 27.6587 83.3995 27.9372 83.6048 28.1425C83.8102 28.3478 84.0886 28.4631 84.3789 28.4631H88.7579V33.9368C88.7579 34.8078 89.1039 35.6432 89.7198 36.2591C90.3357 36.875 91.1711 37.221 92.0421 37.221H96.8042C96.4499 38.2123 96.3391 39.2742 96.481 40.3173C96.623 41.3604 97.0136 42.3541 97.6199 43.2147C98.2262 44.0753 99.0305 44.7775 99.965 45.2622C100.899 45.747 101.937 46 102.989 46C104.042 46 105.079 45.747 106.014 45.2622C106.948 44.7775 107.753 44.0753 108.359 43.2147C108.965 42.3541 109.356 41.3604 109.498 40.3173C109.64 39.2742 109.529 38.2123 109.175 37.221H118.699C118.345 38.2123 118.234 39.2742 118.376 40.3173C118.518 41.3604 118.908 42.3541 119.515 43.2147C120.121 44.0753 120.925 44.7775 121.86 45.2622C122.794 45.747 123.831 46 124.884 46C125.937 46 126.974 45.747 127.909 45.2622C128.843 44.7775 129.647 44.0753 130.254 43.2147C130.86 42.3541 131.251 41.3604 131.393 40.3173C131.535 39.2742 131.424 38.2123 131.069 37.221H131.453C132.324 37.221 133.159 36.875 133.775 36.2591C134.391 35.6432 134.737 34.8078 134.737 33.9368V23.6518C134.739 23.0037 134.548 22.3697 134.189 21.8301ZM102.989 43.7894C102.123 43.7894 101.277 43.5326 100.557 43.0514C99.8365 42.5703 99.2753 41.8864 98.9438 41.0862C98.6124 40.2861 98.5257 39.4056 98.6946 38.5562C98.8636 37.7068 99.2807 36.9265 99.8931 36.3141C100.505 35.7017 101.286 35.2846 102.135 35.1157C102.985 34.9467 103.865 35.0334 104.665 35.3649C105.465 35.6963 106.149 36.2576 106.63 36.9777C107.112 37.6978 107.368 38.5444 107.368 39.4105C107.368 40.5718 106.907 41.6856 106.086 42.5069C105.265 43.3281 104.151 43.7894 102.989 43.7894ZM102.989 32.8421C102.067 32.8428 101.156 33.0382 100.314 33.4155C99.473 33.7928 98.7208 34.3435 98.1069 35.0315H92.0421C91.7517 35.0315 91.4733 34.9162 91.268 34.7109C91.0627 34.5056 90.9474 34.2271 90.9474 33.9368V2.18947H113.937C114.227 2.18947 114.506 2.30481 114.711 2.51011C114.916 2.71541 115.032 2.99386 115.032 3.28421V35.0315H107.872C107.258 34.3435 106.506 33.7928 105.664 33.4155C104.823 33.0382 103.912 32.8428 102.989 32.8421ZM124.884 43.7894C124.018 43.7894 123.171 43.5326 122.451 43.0514C121.731 42.5703 121.17 41.8864 120.839 41.0862C120.507 40.2861 120.42 39.4056 120.589 38.5562C120.758 37.7068 121.175 36.9265 121.788 36.3141C122.4 35.7017 123.18 35.2846 124.03 35.1157C124.879 34.9467 125.76 35.0334 126.56 35.3649C127.36 35.6963 128.044 36.2576 128.525 36.9777C129.006 37.6978 129.263 38.5444 129.263 39.4105C129.263 40.5718 128.802 41.6856 127.981 42.5069C127.159 43.3281 126.046 43.7894 124.884 43.7894ZM132.547 33.9368C132.547 34.2271 132.432 34.5056 132.227 34.7109C132.021 34.9162 131.743 35.0315 131.453 35.0315H129.767C129.153 34.3429 128.401 33.7919 127.56 33.4145C126.718 33.0372 125.806 32.8421 124.884 32.8421C123.962 32.8421 123.05 33.0372 122.209 33.4145C121.367 33.7919 120.615 34.3429 120.002 35.0315H117.221V10.9474H123.713C123.893 10.9473 124.07 10.9918 124.229 11.0768C124.388 11.1617 124.524 11.2846 124.624 11.4345L132.363 23.0453C132.484 23.2247 132.548 23.4358 132.547 23.6518V33.9368Z" fill="#666666"/>
<path d="M123.606 13.6239C123.506 13.474 123.371 13.3511 123.212 13.2661C123.053 13.1811 122.876 13.1367 122.695 13.1367H119.411C119.121 13.1367 118.842 13.2521 118.637 13.4574C118.432 13.6627 118.316 13.9411 118.316 14.2315V24.0841C118.316 24.3744 118.432 24.6529 118.637 24.8582C118.842 25.0635 119.121 25.1788 119.411 25.1788H129.264C129.462 25.1788 129.656 25.1251 129.826 25.0232C129.996 24.9214 130.136 24.7753 130.229 24.6005C130.323 24.4258 130.367 24.2289 130.357 24.031C130.348 23.833 130.285 23.6414 130.175 23.4765L123.606 13.6239ZM120.506 22.9893V15.3262H122.11L127.218 22.9893H120.506Z" fill="#666666"/>
<path d="M97.8406 16.259H100.598V19.0161C100.598 19.1989 100.67 19.3742 100.8 19.5035C100.929 19.6327 101.104 19.7053 101.287 19.7053H105.423C105.606 19.7053 105.781 19.6327 105.91 19.5035C106.039 19.3742 106.112 19.1989 106.112 19.0161V16.259H108.869C109.052 16.259 109.227 16.1863 109.356 16.0571C109.486 15.9278 109.558 15.7525 109.558 15.5697V11.434C109.558 11.2512 109.486 11.0759 109.356 10.9466C109.227 10.8173 109.052 10.7447 108.869 10.7447H106.112V7.98762C106.112 7.80481 106.039 7.62949 105.91 7.50022C105.781 7.37096 105.606 7.29834 105.423 7.29834H101.287C101.104 7.29834 100.929 7.37096 100.8 7.50022C100.67 7.62949 100.598 7.80481 100.598 7.98762V10.7447H97.8406C97.6578 10.7447 97.4825 10.8173 97.3533 10.9466C97.224 11.0759 97.1514 11.2512 97.1514 11.434V15.5697C97.1514 15.7525 97.224 15.9278 97.3533 16.0571C97.4825 16.1863 97.6578 16.259 97.8406 16.259ZM98.5299 12.1233H101.287C101.47 12.1233 101.645 12.0507 101.774 11.9214C101.904 11.7921 101.976 11.6168 101.976 11.434V8.6769H104.733V11.434C104.733 11.6168 104.806 11.7921 104.935 11.9214C105.065 12.0507 105.24 12.1233 105.423 12.1233H108.18V14.8804H105.423C105.24 14.8804 105.065 14.953 104.935 15.0823C104.806 15.2115 104.733 15.3869 104.733 15.5697V18.3268H101.976V15.5697C101.976 15.3869 101.904 15.2115 101.774 15.0823C101.645 14.953 101.47 14.8804 101.287 14.8804H98.5299V12.1233Z" fill="#666666"/>
</svg>
