<svg width="18" height="18" viewBox="0 0 18 18" fill="none" xmlns="http://www.w3.org/2000/svg">
<g clip-path="url(#clip0)">
<path d="M14.0625 18H3.9375C3.0075 18 2.25 17.2432 2.25 16.3125V8.4375C2.25 7.50675 3.0075 6.75 3.9375 6.75H14.0625C14.9925 6.75 15.75 7.50675 15.75 8.4375V16.3125C15.75 17.2432 14.9925 18 14.0625 18ZM3.9375 7.875C3.62775 7.875 3.375 8.127 3.375 8.4375V16.3125C3.375 16.623 3.62775 16.875 3.9375 16.875H14.0625C14.3722 16.875 14.625 16.623 14.625 16.3125V8.4375C14.625 8.127 14.3722 7.875 14.0625 7.875H3.9375Z" fill="#333333"/>
<path d="M12.9375 7.875C12.627 7.875 12.375 7.623 12.375 7.3125V4.5C12.375 2.63925 10.8608 1.125 9 1.125C7.13925 1.125 5.625 2.63925 5.625 4.5V7.3125C5.625 7.623 5.373 7.875 5.0625 7.875C4.752 7.875 4.5 7.623 4.5 7.3125V4.5C4.5 2.01825 6.51825 0 9 0C11.4818 0 13.5 2.01825 13.5 4.5V7.3125C13.5 7.623 13.248 7.875 12.9375 7.875Z" fill="#333333"/>
<path d="M9 12.7505C8.17275 12.7505 7.5 12.0777 7.5 11.2505C7.5 10.4232 8.17275 9.75049 9 9.75049C9.82724 9.75049 10.5 10.4232 10.5 11.2505C10.5 12.0777 9.82724 12.7505 9 12.7505ZM9 10.8755C8.79375 10.8755 8.625 11.0435 8.625 11.2505C8.625 11.4575 8.79375 11.6255 9 11.6255C9.20625 11.6255 9.375 11.4575 9.375 11.2505C9.375 11.0435 9.20625 10.8755 9 10.8755Z" fill="#333333"/>
<path d="M9 15C8.6895 15 8.4375 14.748 8.4375 14.4375V12.375C8.4375 12.0645 8.6895 11.8125 9 11.8125C9.3105 11.8125 9.5625 12.0645 9.5625 12.375V14.4375C9.5625 14.748 9.3105 15 9 15Z" fill="#333333"/>
</g>
<defs>
<clipPath id="clip0">
<rect width="18" height="18" fill="white"/>
</clipPath>
</defs>
</svg>
