<svg width="129" height="129" viewBox="0 0 129 129" fill="none" xmlns="http://www.w3.org/2000/svg">
<path d="M20.3647 95.3433H18.0239V100H15.9238V87.9141H20.1738C21.5684 87.9141 22.6447 88.2267 23.4028 88.8521C24.161 89.4774 24.54 90.3822 24.54 91.5664C24.54 92.3743 24.3436 93.0522 23.9507 93.6001C23.5633 94.1424 23.021 94.5602 22.3237 94.8535L25.0381 99.8921V100H22.7886L20.3647 95.3433ZM18.0239 93.6582H20.1821C20.8905 93.6582 21.4438 93.4811 21.8423 93.127C22.2407 92.7673 22.4399 92.2775 22.4399 91.6577C22.4399 91.0103 22.2546 90.5094 21.8838 90.1553C21.5186 89.8011 20.9707 89.6185 20.2402 89.6074H18.0239V93.6582ZM30.2925 100.166C29.0142 100.166 27.9766 99.7648 27.1797 98.9624C26.3883 98.1545 25.9927 97.0809 25.9927 95.7417V95.4927C25.9927 94.5962 26.1642 93.7965 26.5073 93.0938C26.856 92.3854 27.3429 91.8348 27.9683 91.4419C28.5936 91.049 29.2909 90.8525 30.0601 90.8525C31.283 90.8525 32.2266 91.2427 32.8906 92.0229C33.5602 92.8032 33.895 93.9072 33.895 95.335V96.1484H28.0264C28.0872 96.89 28.3335 97.4766 28.7651 97.9082C29.2023 98.3398 29.7502 98.5557 30.4087 98.5557C31.3328 98.5557 32.0854 98.1821 32.6665 97.4351L33.7539 98.4727C33.3942 99.0094 32.9128 99.4272 32.3096 99.7261C31.7119 100.019 31.0396 100.166 30.2925 100.166ZM30.0518 92.4712C29.4984 92.4712 29.0501 92.6649 28.707 93.0522C28.3695 93.4396 28.1536 93.9792 28.0596 94.6709H31.9028V94.5215C31.8586 93.8464 31.6787 93.3372 31.3633 92.9941C31.0479 92.6455 30.6107 92.4712 30.0518 92.4712ZM35.1152 95.4429C35.1152 94.0483 35.4417 92.936 36.0947 92.106C36.7533 91.2703 37.6248 90.8525 38.7095 90.8525C39.7332 90.8525 40.5384 91.2095 41.125 91.9233L41.2163 91.0186H43.0342V99.7261C43.0342 100.905 42.6662 101.834 41.9302 102.515C41.1997 103.196 40.2119 103.536 38.9668 103.536C38.3083 103.536 37.6636 103.398 37.0327 103.121C36.4074 102.85 35.9315 102.493 35.605 102.05L36.5596 100.838C37.1794 101.574 37.943 101.942 38.8506 101.942C39.5202 101.942 40.0487 101.76 40.436 101.395C40.8234 101.035 41.0171 100.504 41.0171 99.8008V99.1948C40.436 99.8423 39.6613 100.166 38.6929 100.166C37.6414 100.166 36.7809 99.7482 36.1113 98.9126C35.4473 98.077 35.1152 96.9204 35.1152 95.4429ZM37.124 95.6172C37.124 96.5192 37.3066 97.2303 37.6719 97.7505C38.0426 98.2651 38.5545 98.5225 39.2075 98.5225C40.021 98.5225 40.6242 98.1738 41.0171 97.4766V93.5254C40.6353 92.8447 40.0376 92.5044 39.2241 92.5044C38.5601 92.5044 38.0426 92.7673 37.6719 93.293C37.3066 93.8187 37.124 94.5934 37.124 95.6172ZM47.2593 100H45.2422V91.0186H47.2593V100ZM45.1177 88.686C45.1177 88.3761 45.2145 88.1188 45.4082 87.9141C45.6074 87.7093 45.8896 87.6069 46.2549 87.6069C46.6201 87.6069 46.9023 87.7093 47.1016 87.9141C47.3008 88.1188 47.4004 88.3761 47.4004 88.686C47.4004 88.9904 47.3008 89.245 47.1016 89.4497C46.9023 89.6489 46.6201 89.7485 46.2549 89.7485C45.8896 89.7485 45.6074 89.6489 45.4082 89.4497C45.2145 89.245 45.1177 88.9904 45.1177 88.686ZM54.4976 97.5596C54.4976 97.1999 54.3481 96.9259 54.0493 96.7378C53.756 96.5496 53.2663 96.3836 52.5801 96.2397C51.8939 96.0959 51.3211 95.9132 50.8618 95.6919C49.8547 95.2049 49.3511 94.4993 49.3511 93.5752C49.3511 92.8005 49.6776 92.153 50.3306 91.6328C50.9836 91.1126 51.8136 90.8525 52.8208 90.8525C53.8944 90.8525 54.7604 91.1182 55.4189 91.6494C56.083 92.1807 56.415 92.8696 56.415 93.7163H54.3979C54.3979 93.3289 54.2541 93.008 53.9663 92.7534C53.6785 92.4933 53.2967 92.3633 52.8208 92.3633C52.3781 92.3633 52.0156 92.4657 51.7334 92.6704C51.4567 92.8752 51.3184 93.1491 51.3184 93.4922C51.3184 93.8021 51.4484 94.0428 51.7085 94.2144C51.9686 94.3859 52.4943 94.5602 53.2856 94.7373C54.077 94.9089 54.6968 95.1164 55.145 95.3599C55.5988 95.5978 55.9336 95.8856 56.1494 96.2231C56.3708 96.5607 56.4814 96.9702 56.4814 97.4517C56.4814 98.2596 56.1466 98.9154 55.4771 99.4189C54.8075 99.917 53.9303 100.166 52.8457 100.166C52.1097 100.166 51.4539 100.033 50.8784 99.7676C50.3029 99.502 49.8547 99.1367 49.5337 98.6719C49.2127 98.207 49.0522 97.7062 49.0522 97.1694H51.0112C51.0389 97.6453 51.2188 98.0133 51.5508 98.2734C51.8828 98.528 52.3228 98.6553 52.8706 98.6553C53.4019 98.6553 53.8058 98.5557 54.0825 98.3564C54.3592 98.1517 54.4976 97.8861 54.4976 97.5596ZM60.7729 88.8354V91.0186H62.3584V92.5127H60.7729V97.5264C60.7729 97.8695 60.8394 98.1185 60.9722 98.2734C61.1105 98.4229 61.354 98.4976 61.7026 98.4976C61.9351 98.4976 62.1702 98.4699 62.4082 98.4146V99.9751C61.9489 100.102 61.5062 100.166 61.0801 100.166C59.5306 100.166 58.7559 99.311 58.7559 97.6011V92.5127H57.2783V91.0186H58.7559V88.8354H60.7729ZM67.8618 100.166C66.5835 100.166 65.5459 99.7648 64.749 98.9624C63.9577 98.1545 63.562 97.0809 63.562 95.7417V95.4927C63.562 94.5962 63.7336 93.7965 64.0767 93.0938C64.4253 92.3854 64.9123 91.8348 65.5376 91.4419C66.1629 91.049 66.8602 90.8525 67.6294 90.8525C68.8524 90.8525 69.7959 91.2427 70.46 92.0229C71.1296 92.8032 71.4644 93.9072 71.4644 95.335V96.1484H65.5957C65.6566 96.89 65.9028 97.4766 66.3345 97.9082C66.7716 98.3398 67.3195 98.5557 67.978 98.5557C68.9022 98.5557 69.6548 98.1821 70.2358 97.4351L71.3232 98.4727C70.9635 99.0094 70.4821 99.4272 69.8789 99.7261C69.2812 100.019 68.6089 100.166 67.8618 100.166ZM67.6211 92.4712C67.0677 92.4712 66.6195 92.6649 66.2764 93.0522C65.9388 93.4396 65.723 93.9792 65.6289 94.6709H69.4722V94.5215C69.4279 93.8464 69.248 93.3372 68.9326 92.9941C68.6172 92.6455 68.18 92.4712 67.6211 92.4712ZM77.7397 92.8613C77.4741 92.8171 77.2002 92.7949 76.918 92.7949C75.9938 92.7949 75.3713 93.1491 75.0503 93.8574V100H73.0332V91.0186H74.959L75.0088 92.0229C75.4958 91.2427 76.1709 90.8525 77.0342 90.8525C77.3219 90.8525 77.5599 90.8913 77.748 90.9688L77.7397 92.8613ZM91.1372 97.2192L92.5649 91.0186H94.5322L92.0835 100H90.4233L88.4976 93.8325L86.605 100H84.9448L82.4878 91.0186H84.4551L85.9077 97.1528L87.7505 91.0186H89.2695L91.1372 97.2192ZM98.0269 100H96.0098V91.0186H98.0269V100ZM95.8853 88.686C95.8853 88.3761 95.9821 88.1188 96.1758 87.9141C96.375 87.7093 96.6572 87.6069 97.0225 87.6069C97.3877 87.6069 97.6699 87.7093 97.8691 87.9141C98.0684 88.1188 98.168 88.3761 98.168 88.686C98.168 88.9904 98.0684 89.245 97.8691 89.4497C97.6699 89.6489 97.3877 89.7485 97.0225 89.7485C96.6572 89.7485 96.375 89.6489 96.1758 89.4497C95.9821 89.245 95.8853 88.9904 95.8853 88.686ZM102.758 88.8354V91.0186H104.344V92.5127H102.758V97.5264C102.758 97.8695 102.825 98.1185 102.958 98.2734C103.096 98.4229 103.339 98.4976 103.688 98.4976C103.92 98.4976 104.156 98.4699 104.394 98.4146V99.9751C103.934 100.102 103.492 100.166 103.065 100.166C101.516 100.166 100.741 99.311 100.741 97.6011V92.5127H99.2637V91.0186H100.741V88.8354H102.758ZM107.88 91.998C108.538 91.2344 109.371 90.8525 110.378 90.8525C112.293 90.8525 113.264 91.9455 113.292 94.1313V100H111.275V94.2061C111.275 93.5863 111.139 93.1491 110.868 92.8945C110.603 92.6344 110.21 92.5044 109.689 92.5044C108.882 92.5044 108.278 92.8641 107.88 93.5835V100H105.863V87.25H107.88V91.998ZM39.5562 110.914L43.0425 120.178L46.5205 110.914H49.2349V123H47.1431V119.016L47.3506 113.687L43.7812 123H42.2788L38.7178 113.695L38.9253 119.016V123H36.8335V110.914H39.5562ZM56.2324 115.861C55.9668 115.817 55.6929 115.795 55.4106 115.795C54.4865 115.795 53.8639 116.149 53.543 116.857V123H51.5259V114.019H53.4517L53.5015 115.023C53.9884 114.243 54.6636 113.853 55.5269 113.853C55.8146 113.853 56.0526 113.891 56.2407 113.969L56.2324 115.861ZM57.3198 120.875C57.6961 120.875 57.9867 120.983 58.1914 121.199C58.3962 121.409 58.4985 121.675 58.4985 121.996C58.4985 122.311 58.3962 122.574 58.1914 122.784C57.9867 122.989 57.6961 123.091 57.3198 123.091C56.9601 123.091 56.6751 122.989 56.4648 122.784C56.2546 122.579 56.1494 122.317 56.1494 121.996C56.1494 121.675 56.2518 121.409 56.4565 121.199C56.6613 120.983 56.9491 120.875 57.3198 120.875ZM63.728 110.914L67.2144 120.178L70.6924 110.914H73.4067V123H71.3149V119.016L71.5225 113.687L67.9531 123H66.4507L62.8896 113.695L63.0972 119.016V123H61.0054V110.914H63.728ZM79.6572 123.166C78.3789 123.166 77.3413 122.765 76.5444 121.962C75.7531 121.154 75.3574 120.081 75.3574 118.742V118.493C75.3574 117.596 75.529 116.797 75.8721 116.094C76.2207 115.385 76.7077 114.835 77.333 114.442C77.9583 114.049 78.6556 113.853 79.4248 113.853C80.6478 113.853 81.5913 114.243 82.2554 115.023C82.925 115.803 83.2598 116.907 83.2598 118.335V119.148H77.3911C77.452 119.89 77.6982 120.477 78.1299 120.908C78.5671 121.34 79.1149 121.556 79.7734 121.556C80.6976 121.556 81.4502 121.182 82.0312 120.435L83.1187 121.473C82.759 122.009 82.2775 122.427 81.6743 122.726C81.0767 123.019 80.4043 123.166 79.6572 123.166ZM79.4165 115.471C78.8631 115.471 78.4149 115.665 78.0718 116.052C77.7342 116.44 77.5184 116.979 77.4243 117.671H81.2676V117.521C81.2233 116.846 81.0435 116.337 80.728 115.994C80.4126 115.646 79.9754 115.471 79.4165 115.471ZM84.4551 118.443C84.4551 117.059 84.776 115.95 85.418 115.114C86.0599 114.273 86.9204 113.853 87.9995 113.853C88.9513 113.853 89.7205 114.185 90.3071 114.849V110.25H92.3242V123H90.498L90.3984 122.07C89.7952 122.801 88.9901 123.166 87.9829 123.166C86.9315 123.166 86.0793 122.743 85.4263 121.896C84.7788 121.049 84.4551 119.898 84.4551 118.443ZM86.4722 118.617C86.4722 119.53 86.6465 120.244 86.9951 120.759C87.3493 121.268 87.8501 121.522 88.4976 121.522C89.3221 121.522 89.9253 121.154 90.3071 120.418V116.583C89.9364 115.864 89.3387 115.504 88.5142 115.504C87.8612 115.504 87.3576 115.764 87.0034 116.285C86.6493 116.799 86.4722 117.577 86.4722 118.617Z" fill="#262626"/>
<path d="M86.8214 11.0357H72.1071V7.35714C72.1071 5.40591 71.332 3.53459 69.9523 2.15486C68.5726 0.775125 66.7012 0 64.75 0C62.7988 0 60.9274 0.775125 59.5477 2.15486C58.168 3.53459 57.3929 5.40591 57.3929 7.35714V11.0357H42.6786C41.703 11.0357 40.7673 11.4233 40.0774 12.1131C39.3876 12.803 39 13.7387 39 14.7143V44.1429C39 45.1185 39.3876 46.0541 40.0774 46.744C40.7673 47.4339 41.703 47.8214 42.6786 47.8214H86.8214C87.797 47.8214 88.7327 47.4339 89.4226 46.744C90.1124 46.0541 90.5 45.1185 90.5 44.1429V14.7143C90.5 13.7387 90.1124 12.803 89.4226 12.1131C88.7327 11.4233 87.797 11.0357 86.8214 11.0357ZM59.8452 7.35714C59.8452 6.05632 60.362 4.80877 61.2818 3.88895C62.2016 2.96913 63.4492 2.45238 64.75 2.45238C66.0508 2.45238 67.2984 2.96913 68.2182 3.88895C69.138 4.80877 69.6548 6.05632 69.6548 7.35714V11.0357H59.8452V7.35714ZM88.0476 44.1429C88.0476 44.4681 87.9184 44.78 87.6885 45.0099C87.4585 45.2399 87.1466 45.369 86.8214 45.369H42.6786C42.3534 45.369 42.0415 45.2399 41.8115 45.0099C41.5816 44.78 41.4524 44.4681 41.4524 44.1429V14.7143C41.4524 14.3891 41.5816 14.0772 41.8115 13.8472C42.0415 13.6173 42.3534 13.4881 42.6786 13.4881H86.8214C87.1466 13.4881 87.4585 13.6173 87.6885 13.8472C87.9184 14.0772 88.0476 14.3891 88.0476 14.7143V44.1429Z" fill="#666666"/>
<path d="M57.3437 26.5665C57.9828 25.8634 58.4039 24.9898 58.5558 24.0519C58.7078 23.1139 58.584 22.152 58.1996 21.2831C57.8151 20.4142 57.1866 19.6756 56.3903 19.1572C55.5941 18.6388 54.6644 18.3628 53.7142 18.3628C52.764 18.3628 51.8343 18.6388 51.038 19.1572C50.2418 19.6756 49.6132 20.4142 49.2288 21.2831C48.8444 22.152 48.7206 23.1139 48.8725 24.0519C49.0245 24.9898 49.4456 25.8634 50.0847 26.5665C48.6062 27.2564 47.3549 28.3534 46.4776 29.729C45.6002 31.1046 45.133 32.7017 45.1309 34.3332V36.7856C45.1309 37.7612 45.5184 38.6969 46.2083 39.3867C46.8982 40.0766 47.8338 40.4642 48.8094 40.4642H58.619C59.5946 40.4642 60.5302 40.0766 61.2201 39.3867C61.91 38.6969 62.2975 37.7612 62.2975 36.7856V34.3332C62.2953 32.7017 61.8282 31.1046 60.9508 29.729C60.0735 28.3534 58.8222 27.2564 57.3437 26.5665ZM51.2618 23.2975C51.2618 22.8125 51.4056 22.3383 51.6751 21.935C51.9446 21.5317 52.3276 21.2174 52.7757 21.0318C53.2238 20.8462 53.7169 20.7976 54.1926 20.8922C54.6683 20.9869 55.1053 21.2204 55.4483 21.5634C55.7913 21.9064 56.0248 22.3434 56.1195 22.8191C56.2141 23.2948 56.1655 23.7879 55.9799 24.236C55.7943 24.6841 55.48 25.0671 55.0767 25.3366C54.6734 25.6061 54.1992 25.7499 53.7142 25.7499C53.0638 25.7499 52.44 25.4915 51.9801 25.0316C51.5202 24.5717 51.2618 23.9479 51.2618 23.2975ZM59.8451 36.7856C59.8451 37.1108 59.716 37.4227 59.486 37.6526C59.256 37.8826 58.9442 38.0118 58.619 38.0118H48.8094C48.4842 38.0118 48.1723 37.8826 47.9424 37.6526C47.7124 37.4227 47.5832 37.1108 47.5832 36.7856V34.3332C47.5832 32.7072 48.2292 31.1478 49.379 29.998C50.5287 28.8482 52.0882 28.2023 53.7142 28.2023C55.3402 28.2023 56.8997 28.8482 58.0494 29.998C59.1992 31.1478 59.8451 32.7072 59.8451 34.3332V36.7856Z" fill="#666666"/>
<path d="M83.1426 20.8452H68.4283C68.1031 20.8452 67.7912 20.9744 67.5613 21.2044C67.3313 21.4343 67.2021 21.7462 67.2021 22.0714C67.2021 22.3966 67.3313 22.7085 67.5613 22.9385C67.7912 23.1684 68.1031 23.2976 68.4283 23.2976H83.1426C83.4678 23.2976 83.7797 23.1684 84.0097 22.9385C84.2396 22.7085 84.3688 22.3966 84.3688 22.0714C84.3688 21.7462 84.2396 21.4343 84.0097 21.2044C83.7797 20.9744 83.4678 20.8452 83.1426 20.8452Z" fill="#666666"/>
<path d="M83.1426 35.5593H68.4283C68.1031 35.5593 67.7912 35.6885 67.5613 35.9185C67.3313 36.1484 67.2021 36.4603 67.2021 36.7855C67.2021 37.1107 67.3313 37.4226 67.5613 37.6526C67.7912 37.8825 68.1031 38.0117 68.4283 38.0117H83.1426C83.4678 38.0117 83.7797 37.8825 84.0097 37.6526C84.2396 37.4226 84.3688 37.1107 84.3688 36.7855C84.3688 36.4603 84.2396 36.1484 84.0097 35.9185C83.7797 35.6885 83.4678 35.5593 83.1426 35.5593Z" fill="#666666"/>
<path d="M83.1426 28.2024H68.4283C68.1031 28.2024 67.7912 28.3316 67.5613 28.5615C67.3313 28.7915 67.2021 29.1034 67.2021 29.4286C67.2021 29.7538 67.3313 30.0657 67.5613 30.2956C67.7912 30.5256 68.1031 30.6548 68.4283 30.6548H83.1426C83.4678 30.6548 83.7797 30.5256 84.0097 30.2956C84.2396 30.0657 84.3688 29.7538 84.3688 29.4286C84.3688 29.1034 84.2396 28.7915 84.0097 28.5615C83.7797 28.3316 83.4678 28.2024 83.1426 28.2024Z" fill="#666666"/>
<path d="M64.7504 8.58336C65.7662 8.58336 66.5897 7.75988 66.5897 6.74407C66.5897 5.72826 65.7662 4.90479 64.7504 4.90479C63.7346 4.90479 62.9111 5.72826 62.9111 6.74407C62.9111 7.75988 63.7346 8.58336 64.7504 8.58336Z" fill="#666666"/>
</svg>
