<svg width="18" height="18" viewBox="0 0 18 18" fill="none" xmlns="http://www.w3.org/2000/svg">
<g clip-path="url(#clip0)">
<path d="M8.38679 5.34527H7.45262V4.4111C7.45262 4.21693 7.29519 4.05957 7.10109 4.05957C6.90699 4.05957 6.74956 4.21696 6.74956 4.4111V5.34527H5.81539C5.62126 5.34527 5.46387 5.50266 5.46387 5.69679C5.46387 5.89093 5.62126 6.04832 5.81539 6.04832H6.74956V6.98249C6.74956 7.17666 6.90699 7.33402 7.10109 7.33402C7.29519 7.33402 7.45262 7.17662 7.45262 6.98249V6.04832H8.38679C8.58092 6.04832 8.73831 5.89093 8.73831 5.69679C8.73831 5.50266 8.58092 5.34527 8.38679 5.34527Z" fill="#333333"/>
<path d="M7.10138 2.60303C5.3956 2.60303 4.00781 3.99082 4.00781 5.6966C4.00781 7.40237 5.3956 8.79016 7.10138 8.79016C8.80716 8.79016 10.1949 7.40237 10.1949 5.6966C10.1949 3.99082 8.80716 2.60303 7.10138 2.60303ZM7.10138 8.08704C5.78327 8.08704 4.7109 7.01467 4.7109 5.69656C4.7109 4.37845 5.78327 3.30608 7.10138 3.30608C8.41949 3.30608 9.49186 4.37845 9.49186 5.69656C9.49186 7.01467 8.41949 8.08704 7.10138 8.08704Z" fill="#333333"/>
<path d="M14.0992 3.23267L10.9706 0.103949C10.9046 0.0380312 10.8152 0.000976562 10.722 0.000976562H1.05462C0.473097 0.000976562 0 0.474108 0 1.05563V16.9453C0 17.5268 0.473097 17.9999 1.05462 17.9999H7.76976C7.9639 17.9999 8.12129 17.8425 8.12129 17.6484C8.12129 17.4543 7.96386 17.2969 7.76976 17.2969H1.05462C0.860764 17.2969 0.703089 17.1392 0.703089 16.9453V1.05563C0.703089 0.861776 0.860799 0.7041 1.05462 0.7041H10.3704V2.77817C10.3704 3.35969 10.8435 3.83279 11.425 3.83279H13.4991V10.0902C13.4991 10.2843 13.6565 10.4417 13.8506 10.4417C14.0447 10.4417 14.2021 10.2843 14.2021 10.0902V3.48123C14.2022 3.38799 14.1652 3.29859 14.0992 3.23267ZM11.4251 3.1297C11.2312 3.1297 11.0735 2.97199 11.0735 2.77817V1.20124L13.002 3.1297H11.4251Z" fill="#333333"/>
<path d="M11.6002 9.84375H5.49508C5.30095 9.84375 5.14355 10.0012 5.14355 10.1953C5.14355 10.3894 5.30098 10.5468 5.49508 10.5468H11.6002C11.7943 10.5468 11.9517 10.3894 11.9517 10.1953C11.9517 10.0012 11.7943 9.84375 11.6002 9.84375Z" fill="#333333"/>
<path d="M3.74699 9.84375H2.60153C2.40739 9.84375 2.25 10.0012 2.25 10.1953C2.25 10.3894 2.40743 10.5468 2.60153 10.5468H3.74699C3.94112 10.5468 4.09852 10.3894 4.09852 10.1953C4.09852 10.0012 3.94112 9.84375 3.74699 9.84375Z" fill="#333333"/>
<path d="M8.99878 11.812H5.49508C5.30095 11.812 5.14355 11.9694 5.14355 12.1635C5.14355 12.3576 5.30098 12.5151 5.49508 12.5151H8.99878C9.19291 12.5151 9.35031 12.3577 9.35031 12.1635C9.35031 11.9694 9.19291 11.812 8.99878 11.812Z" fill="#333333"/>
<path d="M3.74699 11.812H2.60153C2.40739 11.812 2.25 11.9694 2.25 12.1635C2.25 12.3576 2.40743 12.5151 2.60153 12.5151H3.74699C3.94112 12.5151 4.09852 12.3576 4.09852 12.1635C4.09852 11.9694 3.94112 11.812 3.74699 11.812Z" fill="#333333"/>
<path d="M5.74364 13.8838C5.67828 13.8184 5.58789 13.7808 5.49512 13.7808C5.40266 13.7808 5.3123 13.8183 5.24656 13.8838C5.18117 13.9492 5.14355 14.0399 5.14355 14.1323C5.14355 14.2248 5.18114 14.3155 5.24656 14.3808C5.31195 14.4462 5.40266 14.4839 5.49512 14.4839C5.58793 14.4839 5.67828 14.4463 5.74364 14.3808C5.80938 14.3155 5.84668 14.2248 5.84668 14.1323C5.84668 14.0399 5.80938 13.9492 5.74364 13.8838Z" fill="#333333"/>
<path d="M3.74699 13.7808H2.60153C2.40739 13.7808 2.25 13.9382 2.25 14.1323C2.25 14.3264 2.40743 14.4838 2.60153 14.4838H3.74699C3.94112 14.4838 4.09852 14.3264 4.09852 14.1323C4.09855 13.9382 3.94112 13.7808 3.74699 13.7808Z" fill="#333333"/>
<path d="M15.8205 13.6404C15.7173 13.6404 15.616 13.6481 15.5166 13.6621C15.7381 12.9191 15.5562 12.0804 14.9706 11.4948C14.5589 11.0832 14.0116 10.8564 13.4294 10.8564C12.8472 10.8564 12.2999 11.0832 11.8882 11.4948L9.10419 14.2788C8.69254 14.6905 8.46582 15.2378 8.46582 15.82C8.46582 16.4022 8.69254 16.9495 9.10419 17.3612C9.52915 17.7861 10.0872 17.9985 10.6454 17.9985C11.2034 17.9985 11.7617 17.786 12.1865 17.3612L13.6431 15.9046C13.6878 17.0673 14.6471 17.9995 15.8206 17.9995C17.0224 17.9995 18.0001 17.0218 18.0001 15.82C18.0001 14.6181 17.0224 13.6404 15.8205 13.6404ZM11.6893 16.864C11.1137 17.4398 10.177 17.4398 9.60133 16.864C9.32244 16.5852 9.16887 16.2144 9.16887 15.82C9.16887 15.4257 9.32244 15.0549 9.60133 14.776L10.7448 13.6326L12.8328 15.7206L11.6893 16.864ZM13.3299 15.2234L11.2419 13.1354L12.3853 11.992C12.6642 11.7131 13.035 11.5595 13.4293 11.5595C13.8237 11.5595 14.1945 11.7131 14.4733 11.992C15.049 12.5676 15.049 13.5043 14.4733 14.08L13.3299 15.2234ZM15.469 17.2539C14.8241 17.0957 14.344 16.513 14.344 15.82C14.344 15.127 14.8241 14.5443 15.469 14.3862V17.2539ZM16.1721 17.2539V14.3861C16.817 14.5443 17.297 15.127 17.297 15.82C17.297 16.5129 16.817 17.0957 16.1721 17.2539Z" fill="#333333"/>
</g>
<defs>
<clipPath id="clip0">
<rect width="18" height="18" fill="white"/>
</clipPath>
</defs>
</svg>
