<svg width="18" height="18" viewBox="0 0 18 18" fill="none" xmlns="http://www.w3.org/2000/svg">
<path d="M14.7316 12.0068H12.9277V12.6081H14.7316V12.0068Z" fill="#333333"/>
<path d="M12.3263 12.0068H10.5225V12.6081H12.3263V12.0068Z" fill="#333333"/>
<path d="M9.92101 12.0068H8.11719V12.6081H9.92101V12.0068Z" fill="#333333"/>
<path d="M17.7336 6.23519L11.7849 0.285595C11.616 0.115059 11.3858 0.0192313 11.1458 0.019532H11.1431C10.9046 0.0196447 10.6762 0.11551 10.509 0.285595L4.19868 6.59505H0.901908C0.403792 6.59505 0 6.99884 0 7.49696V15.9148C0 16.4129 0.403792 16.8167 0.901908 16.8167H5.35613L6.25323 17.7147C6.42214 17.8852 6.65232 17.9811 6.89238 17.9807H6.89478C7.13334 17.9807 7.3619 17.8848 7.52912 17.7147L8.42803 16.8167H15.3324C15.8305 16.8167 16.2343 16.4129 16.2343 15.9148V9.01036L17.7321 7.51259C17.9031 7.34525 17.9996 7.11624 18 6.87705C18.0009 6.63601 17.9049 6.40475 17.7336 6.23519ZM13.9092 3.26099L10.5752 6.59505H8.02217L12.6327 1.98449L13.9092 3.26099ZM10.9347 0.709492C11.0491 0.592357 11.2368 0.590102 11.3539 0.704494C11.3556 0.706148 11.3573 0.707801 11.3589 0.709492L12.2076 1.55939L7.17167 6.59505H5.04888L10.9347 0.709492ZM7.10342 17.2908C7.04845 17.3482 6.97246 17.3808 6.89298 17.381C6.81241 17.3808 6.73529 17.3483 6.67893 17.2908L6.20663 16.8167H7.57783L7.10342 17.2908ZM15.6331 15.9148C15.6331 16.0808 15.4985 16.2154 15.3324 16.2154H0.901908C0.735881 16.2154 0.601272 16.0808 0.601272 15.9148V11.7059H15.6331V15.9148ZM15.6331 11.1046H0.601272V9.30078H15.6331V11.1046ZM15.6331 8.6995H0.601272V7.49696C0.601272 7.33093 0.735881 7.19632 0.901908 7.19632H15.3324C15.4985 7.19632 15.6331 7.33093 15.6331 7.49696V8.6995ZM17.3085 7.08599L16.2343 8.16016V7.49696C16.2343 6.99884 15.8305 6.59505 15.3324 6.59505H11.4242L14.3331 3.68609L17.3073 6.66029C17.3651 6.71688 17.3976 6.79437 17.3975 6.87524C17.3974 6.95461 17.3653 7.0306 17.3085 7.08599Z" fill="#333333"/>
<path d="M2.88372 15.6224C2.92761 15.5845 2.96872 15.5433 3.00668 15.4995C3.40423 15.9625 4.08732 16.0505 4.58923 15.7033C4.91317 15.4768 5.1076 15.1076 5.11114 14.7124C5.11114 14.0483 4.57273 13.5099 3.90859 13.5099C3.84891 13.509 3.78931 13.5141 3.73061 13.5249L3.7228 13.527C3.71979 13.527 3.71678 13.527 3.71408 13.527C3.43866 13.5728 3.18819 13.7141 3.00668 13.9262C2.57226 13.4239 1.81281 13.3688 1.31049 13.8033C0.808122 14.2377 0.753068 14.9971 1.18753 15.4995C1.62195 16.0018 2.38135 16.0569 2.88372 15.6224ZM3.83253 14.1174C3.85759 14.1127 3.88307 14.1106 3.90859 14.1111C4.24068 14.1111 4.50986 14.3803 4.50986 14.7124C4.50956 14.8396 4.46811 14.9633 4.39171 15.065C4.38089 15.0798 4.37247 15.0951 4.36015 15.1104C4.35804 15.1128 4.35504 15.1143 4.35263 15.1167C4.23907 15.2421 4.07777 15.3137 3.90859 15.3137C3.57657 15.308 3.31198 15.0343 3.31765 14.7022C3.32269 14.4074 3.54072 14.1597 3.83253 14.1174ZM2.10477 14.1111C2.43686 14.1111 2.70604 14.3803 2.70604 14.7124C2.70604 15.0445 2.43686 15.3137 2.10477 15.3137C1.77268 15.3137 1.5035 15.0445 1.5035 14.7124C1.5035 14.3803 1.77268 14.1111 2.10477 14.1111Z" fill="#333333"/>
</svg>
