<svg width="22" height="22" viewBox="0 0 22 22" fill="none" xmlns="http://www.w3.org/2000/svg">
<path d="M21.8602 10.5714C21.6636 10.3025 16.9808 3.98828 10.9999 3.98828C5.01902 3.98828 0.33593 10.3025 0.139606 10.5711C-0.0465352 10.8262 -0.0465352 11.1721 0.139606 11.4272C0.33593 11.696 5.01902 18.0103 10.9999 18.0103C16.9808 18.0103 21.6636 11.696 21.8602 11.4274C22.0466 11.1724 22.0466 10.8262 21.8602 10.5714ZM10.9999 16.5597C6.59434 16.5597 2.77867 12.3688 1.64914 10.9988C2.7772 9.62751 6.58489 5.43882 10.9999 5.43882C15.4052 5.43882 19.2206 9.62897 20.3506 10.9998C19.2226 12.371 15.4149 16.5597 10.9999 16.5597Z" fill="#766CEB"/>
<path d="M11.0001 6.64844C8.60064 6.64844 6.64844 8.60064 6.64844 11.0001C6.64844 13.3996 8.60064 15.3518 11.0001 15.3518C13.3996 15.3518 15.3518 13.3996 15.3518 11.0001C15.3518 8.60064 13.3996 6.64844 11.0001 6.64844ZM11.0001 13.9012C9.40037 13.9012 8.09902 12.5998 8.09902 11.0001C8.09902 9.40042 9.40041 8.09902 11.0001 8.09902C12.5998 8.09902 13.9012 9.40042 13.9012 11.0001C13.9012 12.5998 12.5998 13.9012 11.0001 13.9012Z" fill="#766CEB"/>
</svg>
