<svg width="229" height="128" viewBox="0 0 229 128" fill="none" xmlns="http://www.w3.org/2000/svg">
<path d="M16.8911 96.0117L18.7505 86.9141H20.834L18.0449 99H16.0361L13.7368 90.1763L11.3877 99H9.37061L6.58154 86.9141H8.66504L10.541 95.9951L12.8486 86.9141H14.6084L16.8911 96.0117ZM25.8643 99.166C24.5859 99.166 23.5483 98.7648 22.7515 97.9624C21.9601 97.1545 21.5645 96.0809 21.5645 94.7417V94.4927C21.5645 93.5962 21.736 92.7965 22.0791 92.0938C22.4277 91.3854 22.9147 90.8348 23.54 90.4419C24.1654 90.049 24.8626 89.8525 25.6318 89.8525C26.8548 89.8525 27.7983 90.2427 28.4624 91.0229C29.132 91.8032 29.4668 92.9072 29.4668 94.335V95.1484H23.5981C23.659 95.89 23.9053 96.4766 24.3369 96.9082C24.7741 97.3398 25.3219 97.5557 25.9805 97.5557C26.9046 97.5557 27.6572 97.1821 28.2383 96.4351L29.3257 97.4727C28.966 98.0094 28.4845 98.4272 27.8813 98.7261C27.2837 99.0194 26.6113 99.166 25.8643 99.166ZM25.6235 91.4712C25.0701 91.4712 24.6219 91.6649 24.2788 92.0522C23.9412 92.4396 23.7254 92.9792 23.6313 93.6709H27.4746V93.5215C27.4303 92.8464 27.2505 92.3372 26.9351 91.9941C26.6196 91.6455 26.1825 91.4712 25.6235 91.4712ZM43.1631 96.2192L44.5908 90.0186H46.5581L44.1094 99H42.4492L40.5234 92.8325L38.6309 99H36.9707L34.5137 90.0186H36.481L37.9336 96.1528L39.7764 90.0186H41.2954L43.1631 96.2192ZM50.0527 99H48.0356V90.0186H50.0527V99ZM47.9111 87.686C47.9111 87.3761 48.008 87.1188 48.2017 86.9141C48.4009 86.7093 48.6831 86.6069 49.0483 86.6069C49.4136 86.6069 49.6958 86.7093 49.895 86.9141C50.0942 87.1188 50.1938 87.3761 50.1938 87.686C50.1938 87.9904 50.0942 88.245 49.895 88.4497C49.6958 88.6489 49.4136 88.7485 49.0483 88.7485C48.6831 88.7485 48.4009 88.6489 48.2017 88.4497C48.008 88.245 47.9111 87.9904 47.9111 87.686ZM54.4023 99H52.3853V86.25H54.4023V99ZM58.752 99H56.7349V86.25H58.752V99ZM69.8916 91.8613C69.626 91.8171 69.3521 91.7949 69.0698 91.7949C68.1457 91.7949 67.5231 92.1491 67.2021 92.8574V99H65.1851V90.0186H67.1108L67.1606 91.0229C67.6476 90.2427 68.3228 89.8525 69.186 89.8525C69.4738 89.8525 69.7118 89.8913 69.8999 89.9688L69.8916 91.8613ZM74.9551 99.166C73.6768 99.166 72.6392 98.7648 71.8423 97.9624C71.0509 97.1545 70.6553 96.0809 70.6553 94.7417V94.4927C70.6553 93.5962 70.8268 92.7965 71.1699 92.0938C71.5186 91.3854 72.0055 90.8348 72.6309 90.4419C73.2562 90.049 73.9535 89.8525 74.7227 89.8525C75.9456 89.8525 76.8892 90.2427 77.5532 91.0229C78.2228 91.8032 78.5576 92.9072 78.5576 94.335V95.1484H72.689C72.7498 95.89 72.9961 96.4766 73.4277 96.9082C73.8649 97.3398 74.4128 97.5557 75.0713 97.5557C75.9954 97.5557 76.748 97.1821 77.3291 96.4351L78.4165 97.4727C78.0568 98.0094 77.5754 98.4272 76.9722 98.7261C76.3745 99.0194 75.7021 99.166 74.9551 99.166ZM74.7144 91.4712C74.161 91.4712 73.7127 91.6649 73.3696 92.0522C73.0321 92.4396 72.8162 92.9792 72.7222 93.6709H76.5654V93.5215C76.5212 92.8464 76.3413 92.3372 76.0259 91.9941C75.7104 91.6455 75.2733 91.4712 74.7144 91.4712ZM85.4971 99C85.4085 98.8285 85.3311 98.549 85.2646 98.1616C84.6227 98.8312 83.8369 99.166 82.9072 99.166C82.0052 99.166 81.2692 98.9087 80.6992 98.394C80.1292 97.8794 79.8442 97.243 79.8442 96.4849C79.8442 95.5275 80.1984 94.7943 80.9067 94.2852C81.6206 93.7705 82.6388 93.5132 83.9614 93.5132H85.1982V92.9238C85.1982 92.459 85.0682 92.0882 84.8081 91.8115C84.548 91.5293 84.1523 91.3882 83.6211 91.3882C83.1618 91.3882 82.7855 91.5044 82.4922 91.7368C82.1989 91.9637 82.0522 92.2542 82.0522 92.6084H80.0352C80.0352 92.1159 80.1984 91.6566 80.5249 91.2305C80.8514 90.7988 81.2941 90.4613 81.853 90.2178C82.4175 89.9743 83.0456 89.8525 83.7373 89.8525C84.7887 89.8525 85.6271 90.1182 86.2524 90.6494C86.8778 91.1751 87.1987 91.9167 87.2153 92.874V96.9248C87.2153 97.7327 87.3288 98.3774 87.5557 98.8589V99H85.4971ZM83.2808 97.5474C83.6792 97.5474 84.0527 97.4505 84.4014 97.2568C84.7555 97.0632 85.0212 96.8031 85.1982 96.4766V94.7832H84.1108C83.3638 94.7832 82.8021 94.9132 82.4258 95.1733C82.0495 95.4334 81.8613 95.8014 81.8613 96.2773C81.8613 96.6647 81.9886 96.9746 82.2432 97.207C82.5033 97.4339 82.8491 97.5474 83.2808 97.5474ZM93.0176 97.5557C93.5212 97.5557 93.939 97.409 94.271 97.1157C94.603 96.8224 94.7801 96.46 94.8022 96.0283H96.7031C96.681 96.5872 96.5067 97.1102 96.1802 97.5972C95.8537 98.0786 95.411 98.4604 94.8521 98.7427C94.2931 99.0249 93.6899 99.166 93.0425 99.166C91.7863 99.166 90.7902 98.7593 90.0542 97.9458C89.3182 97.1323 88.9502 96.009 88.9502 94.5757V94.3682C88.9502 93.0013 89.3154 91.9084 90.0459 91.0894C90.7764 90.2648 91.7725 89.8525 93.0342 89.8525C94.1022 89.8525 94.971 90.1652 95.6406 90.7905C96.3158 91.4103 96.6699 92.2266 96.7031 93.2393H94.8022C94.7801 92.7246 94.603 92.3013 94.271 91.9692C93.9445 91.6372 93.5267 91.4712 93.0176 91.4712C92.3646 91.4712 91.861 91.7091 91.5068 92.1851C91.1527 92.6554 90.9728 93.3721 90.9673 94.335V94.6587C90.9673 95.6326 91.1416 96.3604 91.4902 96.8418C91.8444 97.3177 92.3535 97.5557 93.0176 97.5557ZM100.214 90.998C100.873 90.2344 101.706 89.8525 102.713 89.8525C104.628 89.8525 105.599 90.9455 105.626 93.1313V99H103.609V93.2061C103.609 92.5863 103.474 92.1491 103.203 91.8945C102.937 91.6344 102.544 91.5044 102.024 91.5044C101.216 91.5044 100.613 91.8641 100.214 92.5835V99H98.1973V86.25H100.214V90.998ZM111.528 94.4263C111.528 93.5464 111.703 92.755 112.051 92.0522C112.4 91.3439 112.89 90.8016 113.521 90.4253C114.151 90.0435 114.876 89.8525 115.695 89.8525C116.907 89.8525 117.889 90.2427 118.642 91.0229C119.4 91.8032 119.81 92.8381 119.871 94.1274L119.879 94.6006C119.879 95.486 119.707 96.2773 119.364 96.9746C119.027 97.6719 118.54 98.2114 117.903 98.5933C117.272 98.9751 116.542 99.166 115.712 99.166C114.445 99.166 113.429 98.7454 112.666 97.9043C111.907 97.0576 111.528 95.9315 111.528 94.5259V94.4263ZM113.545 94.6006C113.545 95.5247 113.736 96.2497 114.118 96.7754C114.5 97.2956 115.031 97.5557 115.712 97.5557C116.393 97.5557 116.921 97.29 117.297 96.7588C117.679 96.2275 117.87 95.45 117.87 94.4263C117.87 93.5187 117.674 92.7993 117.281 92.2681C116.893 91.7368 116.365 91.4712 115.695 91.4712C115.037 91.4712 114.514 91.734 114.126 92.2598C113.739 92.7799 113.545 93.5602 113.545 94.6006ZM127.026 98.1201C126.434 98.8174 125.593 99.166 124.502 99.166C123.528 99.166 122.79 98.881 122.286 98.311C121.788 97.741 121.539 96.9165 121.539 95.8374V90.0186H123.556V95.8125C123.556 96.9525 124.029 97.5225 124.976 97.5225C125.955 97.5225 126.616 97.1711 126.959 96.4683V90.0186H128.977V99H127.076L127.026 98.1201ZM133.559 87.8354V90.0186H135.144V91.5127H133.559V96.5264C133.559 96.8695 133.625 97.1185 133.758 97.2734C133.896 97.4229 134.14 97.4976 134.488 97.4976C134.721 97.4976 134.956 97.4699 135.194 97.4146V98.9751C134.735 99.1024 134.292 99.166 133.866 99.166C132.316 99.166 131.542 98.311 131.542 96.6011V91.5127H130.064V90.0186H131.542V87.8354H133.559ZM143.453 87.8354V90.0186H145.039V91.5127H143.453V96.5264C143.453 96.8695 143.52 97.1185 143.652 97.2734C143.791 97.4229 144.034 97.4976 144.383 97.4976C144.615 97.4976 144.85 97.4699 145.088 97.4146V98.9751C144.629 99.1024 144.186 99.166 143.76 99.166C142.211 99.166 141.436 98.311 141.436 96.6011V91.5127H139.958V90.0186H141.436V87.8354H143.453ZM145.96 94.4263C145.96 93.5464 146.134 92.755 146.483 92.0522C146.832 91.3439 147.321 90.8016 147.952 90.4253C148.583 90.0435 149.308 89.8525 150.127 89.8525C151.339 89.8525 152.321 90.2427 153.074 91.0229C153.832 91.8032 154.241 92.8381 154.302 94.1274L154.311 94.6006C154.311 95.486 154.139 96.2773 153.796 96.9746C153.458 97.6719 152.971 98.2114 152.335 98.5933C151.704 98.9751 150.974 99.166 150.144 99.166C148.876 99.166 147.861 98.7454 147.097 97.9043C146.339 97.0576 145.96 95.9315 145.96 94.5259V94.4263ZM147.977 94.6006C147.977 95.5247 148.168 96.2497 148.55 96.7754C148.932 97.2956 149.463 97.5557 150.144 97.5557C150.824 97.5557 151.353 97.29 151.729 96.7588C152.111 96.2275 152.302 95.45 152.302 94.4263C152.302 93.5187 152.105 92.7993 151.712 92.2681C151.325 91.7368 150.797 91.4712 150.127 91.4712C149.468 91.4712 148.945 91.734 148.558 92.2598C148.171 92.7799 147.977 93.5602 147.977 94.6006ZM163.392 96.1113L165.218 90.0186H167.368L163.798 100.361C163.25 101.872 162.321 102.627 161.009 102.627C160.716 102.627 160.392 102.578 160.038 102.478V100.917L160.42 100.942C160.929 100.942 161.311 100.848 161.565 100.66C161.826 100.478 162.03 100.168 162.18 99.7305L162.47 98.9585L159.316 90.0186H161.491L163.392 96.1113ZM168.023 94.4263C168.023 93.5464 168.198 92.755 168.546 92.0522C168.895 91.3439 169.385 90.8016 170.016 90.4253C170.646 90.0435 171.371 89.8525 172.19 89.8525C173.402 89.8525 174.385 90.2427 175.137 91.0229C175.895 91.8032 176.305 92.8381 176.366 94.1274L176.374 94.6006C176.374 95.486 176.202 96.2773 175.859 96.9746C175.522 97.6719 175.035 98.2114 174.398 98.5933C173.768 98.9751 173.037 99.166 172.207 99.166C170.94 99.166 169.924 98.7454 169.161 97.9043C168.403 97.0576 168.023 95.9315 168.023 94.5259V94.4263ZM170.041 94.6006C170.041 95.5247 170.231 96.2497 170.613 96.7754C170.995 97.2956 171.526 97.5557 172.207 97.5557C172.888 97.5557 173.416 97.29 173.792 96.7588C174.174 96.2275 174.365 95.45 174.365 94.4263C174.365 93.5187 174.169 92.7993 173.776 92.2681C173.389 91.7368 172.86 91.4712 172.19 91.4712C171.532 91.4712 171.009 91.734 170.622 92.2598C170.234 92.7799 170.041 93.5602 170.041 94.6006ZM183.521 98.1201C182.929 98.8174 182.088 99.166 180.998 99.166C180.024 99.166 179.285 98.881 178.781 98.311C178.283 97.741 178.034 96.9165 178.034 95.8374V90.0186H180.051V95.8125C180.051 96.9525 180.524 97.5225 181.471 97.5225C182.45 97.5225 183.111 97.1711 183.455 96.4683V90.0186H185.472V99H183.571L183.521 98.1201ZM199.649 96.2192L201.077 90.0186H203.044L200.596 99H198.936L197.01 92.8325L195.117 99H193.457L191 90.0186H192.967L194.42 96.1528L196.263 90.0186H197.782L199.649 96.2192ZM206.539 99H204.522V90.0186H206.539V99ZM204.397 87.686C204.397 87.3761 204.494 87.1188 204.688 86.9141C204.887 86.7093 205.169 86.6069 205.535 86.6069C205.9 86.6069 206.182 86.7093 206.381 86.9141C206.581 87.1188 206.68 87.3761 206.68 87.686C206.68 87.9904 206.581 88.245 206.381 88.4497C206.182 88.6489 205.9 88.7485 205.535 88.7485C205.169 88.7485 204.887 88.6489 204.688 88.4497C204.494 88.245 204.397 87.9904 204.397 87.686ZM211.271 87.8354V90.0186H212.856V91.5127H211.271V96.5264C211.271 96.8695 211.337 97.1185 211.47 97.2734C211.608 97.4229 211.852 97.4976 212.2 97.4976C212.433 97.4976 212.668 97.4699 212.906 97.4146V98.9751C212.446 99.1024 212.004 99.166 211.578 99.166C210.028 99.166 209.253 98.311 209.253 96.6011V91.5127H207.776V90.0186H209.253V87.8354H211.271ZM216.392 90.998C217.051 90.2344 217.883 89.8525 218.891 89.8525C220.805 89.8525 221.777 90.9455 221.804 93.1313V99H219.787V93.2061C219.787 92.5863 219.652 92.1491 219.38 91.8945C219.115 91.6344 218.722 91.5044 218.202 91.5044C217.394 91.5044 216.791 91.8641 216.392 92.5835V99H214.375V86.25H216.392V90.998ZM33.1357 117.601C33.1357 118.99 32.8203 120.099 32.1895 120.929C31.5586 121.754 30.7119 122.166 29.6494 122.166C28.6644 122.166 27.8758 121.842 27.2837 121.195V125.453H25.2666V113.019H27.126L27.209 113.932C27.8011 113.212 28.6063 112.853 29.6245 112.853C30.7202 112.853 31.578 113.262 32.1978 114.081C32.8231 114.895 33.1357 116.026 33.1357 117.476V117.601ZM31.127 117.426C31.127 116.53 30.9471 115.819 30.5874 115.293C30.2332 114.767 29.7241 114.504 29.0601 114.504C28.2355 114.504 27.6434 114.845 27.2837 115.525V119.51C27.6489 120.207 28.2466 120.556 29.0767 120.556C29.7186 120.556 30.2194 120.298 30.5791 119.784C30.9443 119.264 31.127 118.478 31.127 117.426ZM39.5522 114.861C39.2866 114.817 39.0127 114.795 38.7305 114.795C37.8063 114.795 37.1838 115.149 36.8628 115.857V122H34.8457V113.019H36.7715L36.8213 114.023C37.3083 113.243 37.9834 112.853 38.8467 112.853C39.1344 112.853 39.3724 112.891 39.5605 112.969L39.5522 114.861ZM42.9722 122H40.9551V113.019H42.9722V122ZM40.8306 110.686C40.8306 110.376 40.9274 110.119 41.1211 109.914C41.3203 109.709 41.6025 109.607 41.9678 109.607C42.333 109.607 42.6152 109.709 42.8145 109.914C43.0137 110.119 43.1133 110.376 43.1133 110.686C43.1133 110.99 43.0137 111.245 42.8145 111.45C42.6152 111.649 42.333 111.749 41.9678 111.749C41.6025 111.749 41.3203 111.649 41.1211 111.45C40.9274 111.245 40.8306 110.99 40.8306 110.686ZM48.8657 120.556C49.3693 120.556 49.7871 120.409 50.1191 120.116C50.4512 119.822 50.6283 119.46 50.6504 119.028H52.5513C52.5291 119.587 52.3548 120.11 52.0283 120.597C51.7018 121.079 51.2591 121.46 50.7002 121.743C50.1413 122.025 49.5381 122.166 48.8906 122.166C47.6344 122.166 46.6383 121.759 45.9023 120.946C45.1663 120.132 44.7983 119.009 44.7983 117.576V117.368C44.7983 116.001 45.1636 114.908 45.894 114.089C46.6245 113.265 47.6206 112.853 48.8823 112.853C49.9504 112.853 50.8192 113.165 51.4888 113.791C52.1639 114.41 52.5181 115.227 52.5513 116.239H50.6504C50.6283 115.725 50.4512 115.301 50.1191 114.969C49.7926 114.637 49.3748 114.471 48.8657 114.471C48.2127 114.471 47.7091 114.709 47.355 115.185C47.0008 115.655 46.821 116.372 46.8154 117.335V117.659C46.8154 118.633 46.9897 119.36 47.3384 119.842C47.6925 120.318 48.2017 120.556 48.8657 120.556ZM58.0298 122.166C56.7515 122.166 55.7139 121.765 54.917 120.962C54.1257 120.154 53.73 119.081 53.73 117.742V117.493C53.73 116.596 53.9015 115.797 54.2446 115.094C54.5933 114.385 55.0802 113.835 55.7056 113.442C56.3309 113.049 57.0282 112.853 57.7974 112.853C59.0203 112.853 59.9639 113.243 60.6279 114.023C61.2975 114.803 61.6323 115.907 61.6323 117.335V118.148H55.7637C55.8245 118.89 56.0708 119.477 56.5024 119.908C56.9396 120.34 57.4875 120.556 58.146 120.556C59.0701 120.556 59.8228 120.182 60.4038 119.435L61.4912 120.473C61.1315 121.009 60.6501 121.427 60.0469 121.726C59.4492 122.019 58.7769 122.166 58.0298 122.166ZM57.7891 114.471C57.2357 114.471 56.7874 114.665 56.4443 115.052C56.1068 115.44 55.891 115.979 55.7969 116.671H59.6401V116.521C59.5959 115.846 59.416 115.337 59.1006 114.994C58.7852 114.646 58.348 114.471 57.7891 114.471ZM72.8052 122C72.7166 121.828 72.6392 121.549 72.5728 121.162C71.9308 121.831 71.145 122.166 70.2153 122.166C69.3133 122.166 68.5773 121.909 68.0073 121.394C67.4373 120.879 67.1523 120.243 67.1523 119.485C67.1523 118.528 67.5065 117.794 68.2148 117.285C68.9287 116.771 69.9469 116.513 71.2695 116.513H72.5063V115.924C72.5063 115.459 72.3763 115.088 72.1162 114.812C71.8561 114.529 71.4604 114.388 70.9292 114.388C70.4699 114.388 70.0936 114.504 69.8003 114.737C69.507 114.964 69.3604 115.254 69.3604 115.608H67.3433C67.3433 115.116 67.5065 114.657 67.833 114.23C68.1595 113.799 68.6022 113.461 69.1611 113.218C69.7256 112.974 70.3537 112.853 71.0454 112.853C72.0968 112.853 72.9352 113.118 73.5605 113.649C74.1859 114.175 74.5068 114.917 74.5234 115.874V119.925C74.5234 120.733 74.6369 121.377 74.8638 121.859V122H72.8052ZM70.5889 120.547C70.9873 120.547 71.3608 120.451 71.7095 120.257C72.0636 120.063 72.3293 119.803 72.5063 119.477V117.783H71.4189C70.6719 117.783 70.1102 117.913 69.7339 118.173C69.3576 118.433 69.1694 118.801 69.1694 119.277C69.1694 119.665 69.2967 119.975 69.5513 120.207C69.8114 120.434 70.1572 120.547 70.5889 120.547ZM78.5078 113.019L78.5659 114.056C79.23 113.254 80.1016 112.853 81.1807 112.853C83.0511 112.853 84.0029 113.923 84.0361 116.065V122H82.019V116.181C82.019 115.611 81.8945 115.191 81.6455 114.919C81.402 114.643 81.0008 114.504 80.4419 114.504C79.6284 114.504 79.0225 114.872 78.624 115.608V122H76.6069V113.019H78.5078ZM85.7212 117.443C85.7212 116.059 86.0422 114.95 86.6841 114.114C87.326 113.273 88.1865 112.853 89.2656 112.853C90.2174 112.853 90.9867 113.185 91.5732 113.849V109.25H93.5903V122H91.7642L91.6646 121.07C91.0614 121.801 90.2562 122.166 89.249 122.166C88.1976 122.166 87.3454 121.743 86.6924 120.896C86.0449 120.049 85.7212 118.898 85.7212 117.443ZM87.7383 117.617C87.7383 118.53 87.9126 119.244 88.2612 119.759C88.6154 120.268 89.1162 120.522 89.7637 120.522C90.5882 120.522 91.1914 120.154 91.5732 119.418V115.583C91.2025 114.864 90.6048 114.504 89.7803 114.504C89.1273 114.504 88.6237 114.764 88.2695 115.285C87.9154 115.799 87.7383 116.577 87.7383 117.617ZM99.5503 117.443C99.5503 116.059 99.8713 114.95 100.513 114.114C101.155 113.273 102.016 112.853 103.095 112.853C104.047 112.853 104.816 113.185 105.402 113.849V109.25H107.419V122H105.593L105.494 121.07C104.89 121.801 104.085 122.166 103.078 122.166C102.027 122.166 101.174 121.743 100.521 120.896C99.874 120.049 99.5503 118.898 99.5503 117.443ZM101.567 117.617C101.567 118.53 101.742 119.244 102.09 119.759C102.444 120.268 102.945 120.522 103.593 120.522C104.417 120.522 105.021 120.154 105.402 119.418V115.583C105.032 114.864 104.434 114.504 103.609 114.504C102.956 114.504 102.453 114.764 102.099 115.285C101.744 115.799 101.567 116.577 101.567 117.617ZM113.479 122.166C112.201 122.166 111.163 121.765 110.366 120.962C109.575 120.154 109.179 119.081 109.179 117.742V117.493C109.179 116.596 109.351 115.797 109.694 115.094C110.042 114.385 110.529 113.835 111.155 113.442C111.78 113.049 112.477 112.853 113.247 112.853C114.47 112.853 115.413 113.243 116.077 114.023C116.747 114.803 117.082 115.907 117.082 117.335V118.148H111.213C111.274 118.89 111.52 119.477 111.952 119.908C112.389 120.34 112.937 120.556 113.595 120.556C114.519 120.556 115.272 120.182 115.853 119.435L116.94 120.473C116.581 121.009 116.099 121.427 115.496 121.726C114.898 122.019 114.226 122.166 113.479 122.166ZM113.238 114.471C112.685 114.471 112.237 114.665 111.894 115.052C111.556 115.44 111.34 115.979 111.246 116.671H115.089V116.521C115.045 115.846 114.865 115.337 114.55 114.994C114.234 114.646 113.797 114.471 113.238 114.471ZM120.8 122H118.783V109.25H120.8V122ZM125.15 122H123.133V113.019H125.15V122ZM123.008 110.686C123.008 110.376 123.105 110.119 123.299 109.914C123.498 109.709 123.78 109.607 124.146 109.607C124.511 109.607 124.793 109.709 124.992 109.914C125.191 110.119 125.291 110.376 125.291 110.686C125.291 110.99 125.191 111.245 124.992 111.45C124.793 111.649 124.511 111.749 124.146 111.749C123.78 111.749 123.498 111.649 123.299 111.45C123.105 111.245 123.008 110.99 123.008 110.686ZM130.521 119.443L132.421 113.019H134.505L131.392 122H129.641L126.503 113.019H128.595L130.521 119.443ZM139.61 122.166C138.332 122.166 137.294 121.765 136.497 120.962C135.706 120.154 135.31 119.081 135.31 117.742V117.493C135.31 116.596 135.482 115.797 135.825 115.094C136.173 114.385 136.66 113.835 137.286 113.442C137.911 113.049 138.608 112.853 139.377 112.853C140.6 112.853 141.544 113.243 142.208 114.023C142.878 114.803 143.212 115.907 143.212 117.335V118.148H137.344C137.405 118.89 137.651 119.477 138.083 119.908C138.52 120.34 139.068 120.556 139.726 120.556C140.65 120.556 141.403 120.182 141.984 119.435L143.071 120.473C142.712 121.009 142.23 121.427 141.627 121.726C141.029 122.019 140.357 122.166 139.61 122.166ZM139.369 114.471C138.816 114.471 138.368 114.665 138.024 115.052C137.687 115.44 137.471 115.979 137.377 116.671H141.22V116.521C141.176 115.846 140.996 115.337 140.681 114.994C140.365 114.646 139.928 114.471 139.369 114.471ZM149.488 114.861C149.222 114.817 148.948 114.795 148.666 114.795C147.742 114.795 147.119 115.149 146.798 115.857V122H144.781V113.019H146.707L146.757 114.023C147.244 113.243 147.919 112.853 148.782 112.853C149.07 112.853 149.308 112.891 149.496 112.969L149.488 114.861ZM154.053 119.111L155.879 113.019H158.029L154.46 123.361C153.912 124.872 152.982 125.627 151.671 125.627C151.378 125.627 151.054 125.578 150.7 125.478V123.917L151.082 123.942C151.591 123.942 151.972 123.848 152.227 123.66C152.487 123.478 152.692 123.168 152.841 122.73L153.132 121.958L149.978 113.019H152.152L154.053 119.111ZM163.051 117.443C163.051 116.059 163.372 114.95 164.014 114.114C164.656 113.273 165.517 112.853 166.596 112.853C167.548 112.853 168.317 113.185 168.903 113.849V109.25H170.92V122H169.094L168.995 121.07C168.391 121.801 167.586 122.166 166.579 122.166C165.528 122.166 164.675 121.743 164.022 120.896C163.375 120.049 163.051 118.898 163.051 117.443ZM165.068 117.617C165.068 118.53 165.243 119.244 165.591 119.759C165.945 120.268 166.446 120.522 167.094 120.522C167.918 120.522 168.521 120.154 168.903 119.418V115.583C168.533 114.864 167.935 114.504 167.11 114.504C166.457 114.504 165.954 114.764 165.6 115.285C165.245 115.799 165.068 116.577 165.068 117.617ZM178.391 122C178.303 121.828 178.225 121.549 178.159 121.162C177.517 121.831 176.731 122.166 175.801 122.166C174.899 122.166 174.163 121.909 173.593 121.394C173.023 120.879 172.738 120.243 172.738 119.485C172.738 118.528 173.092 117.794 173.801 117.285C174.515 116.771 175.533 116.513 176.855 116.513H178.092V115.924C178.092 115.459 177.962 115.088 177.702 114.812C177.442 114.529 177.046 114.388 176.515 114.388C176.056 114.388 175.68 114.504 175.386 114.737C175.093 114.964 174.946 115.254 174.946 115.608H172.929C172.929 115.116 173.092 114.657 173.419 114.23C173.745 113.799 174.188 113.461 174.747 113.218C175.312 112.974 175.94 112.853 176.631 112.853C177.683 112.853 178.521 113.118 179.146 113.649C179.772 114.175 180.093 114.917 180.109 115.874V119.925C180.109 120.733 180.223 121.377 180.45 121.859V122H178.391ZM176.175 120.547C176.573 120.547 176.947 120.451 177.295 120.257C177.65 120.063 177.915 119.803 178.092 119.477V117.783H177.005C176.258 117.783 175.696 117.913 175.32 118.173C174.944 118.433 174.755 118.801 174.755 119.277C174.755 119.665 174.883 119.975 175.137 120.207C175.397 120.434 175.743 120.547 176.175 120.547ZM184.75 110.835V113.019H186.335V114.513H184.75V119.526C184.75 119.869 184.816 120.118 184.949 120.273C185.087 120.423 185.331 120.498 185.679 120.498C185.912 120.498 186.147 120.47 186.385 120.415V121.975C185.925 122.102 185.483 122.166 185.057 122.166C183.507 122.166 182.732 121.311 182.732 119.601V114.513H181.255V113.019H182.732V110.835H184.75ZM191.838 122.166C190.56 122.166 189.522 121.765 188.726 120.962C187.934 120.154 187.539 119.081 187.539 117.742V117.493C187.539 116.596 187.71 115.797 188.053 115.094C188.402 114.385 188.889 113.835 189.514 113.442C190.139 113.049 190.837 112.853 191.606 112.853C192.829 112.853 193.772 113.243 194.437 114.023C195.106 114.803 195.441 115.907 195.441 117.335V118.148H189.572C189.633 118.89 189.879 119.477 190.311 119.908C190.748 120.34 191.296 120.556 191.955 120.556C192.879 120.556 193.631 120.182 194.212 119.435L195.3 120.473C194.94 121.009 194.459 121.427 193.855 121.726C193.258 122.019 192.585 122.166 191.838 122.166ZM191.598 114.471C191.044 114.471 190.596 114.665 190.253 115.052C189.915 115.44 189.7 115.979 189.605 116.671H193.449V116.521C193.404 115.846 193.225 115.337 192.909 114.994C192.594 114.646 192.157 114.471 191.598 114.471ZM202.048 119.56C202.048 119.2 201.899 118.926 201.6 118.738C201.307 118.55 200.817 118.384 200.131 118.24C199.445 118.096 198.872 117.913 198.413 117.692C197.405 117.205 196.902 116.499 196.902 115.575C196.902 114.8 197.228 114.153 197.881 113.633C198.534 113.113 199.364 112.853 200.372 112.853C201.445 112.853 202.311 113.118 202.97 113.649C203.634 114.181 203.966 114.87 203.966 115.716H201.949C201.949 115.329 201.805 115.008 201.517 114.753C201.229 114.493 200.847 114.363 200.372 114.363C199.929 114.363 199.566 114.466 199.284 114.67C199.007 114.875 198.869 115.149 198.869 115.492C198.869 115.802 198.999 116.043 199.259 116.214C199.519 116.386 200.045 116.56 200.836 116.737C201.628 116.909 202.248 117.116 202.696 117.36C203.15 117.598 203.484 117.886 203.7 118.223C203.922 118.561 204.032 118.97 204.032 119.452C204.032 120.26 203.697 120.915 203.028 121.419C202.358 121.917 201.481 122.166 200.396 122.166C199.66 122.166 199.005 122.033 198.429 121.768C197.854 121.502 197.405 121.137 197.084 120.672C196.764 120.207 196.603 119.706 196.603 119.169H198.562C198.59 119.645 198.77 120.013 199.102 120.273C199.434 120.528 199.874 120.655 200.421 120.655C200.953 120.655 201.357 120.556 201.633 120.356C201.91 120.152 202.048 119.886 202.048 119.56Z" fill="#262626"/>
<path d="M134.874 37.3107L126.724 29.1607C125.991 28.4633 125.018 28.0743 124.007 28.0743C122.996 28.0743 122.023 28.4633 121.29 29.1607L118.217 32.2342C118.106 32.3522 117.973 32.4469 117.825 32.5128C117.677 32.5788 117.518 32.6147 117.356 32.6184C116.305 32.6005 113.351 32.0882 108.613 27.3499C103.875 22.6115 103.362 19.666 103.355 18.6082C103.357 18.4462 103.391 18.2861 103.456 18.1375C103.521 17.9889 103.614 17.8546 103.731 17.7425C103.859 17.6081 106.976 14.4974 106.805 14.669C107.524 13.9476 107.928 12.9706 107.928 11.9521C107.928 10.9336 107.524 9.95658 106.805 9.23524L98.6548 1.08525C97.9221 0.388527 96.9497 0 95.9386 0C94.9275 0 93.9551 0.388527 93.2224 1.08525L90.2206 4.08707C89.5903 4.71532 89.1986 5.54356 89.1128 6.42936C88.7555 10.229 88.5199 23.5566 100.463 35.4999C109.189 44.2261 120.313 47.7197 129.534 46.8502C130.42 46.7651 131.248 46.3733 131.876 45.7424L134.875 42.7444C135.232 42.3876 135.515 41.964 135.708 41.4977C135.901 41.0315 136 40.5319 136 40.0273C136 39.5227 135.9 39.0231 135.707 38.557C135.514 38.0909 135.231 37.6674 134.874 37.3107ZM124.913 30.9715L133.063 39.1228C133.303 39.3629 133.437 39.6883 133.437 40.0276C133.437 40.3668 133.303 40.6922 133.063 40.9323L132.158 41.839L122.197 31.8782L123.102 30.9728C123.347 30.7412 123.671 30.6121 124.007 30.6119C124.344 30.6116 124.668 30.7403 124.913 30.9715ZM96.8415 2.89992L104.991 11.0499C105.111 11.1688 105.205 11.3101 105.269 11.4655C105.334 11.621 105.367 11.7877 105.367 11.956C105.367 12.1242 105.334 12.2909 105.269 12.4464C105.205 12.6018 105.111 12.7431 104.991 12.862L104.086 13.7661L94.1252 3.80533L95.0306 2.89992C95.2753 2.66854 95.5993 2.53962 95.936 2.53962C96.2728 2.53962 96.5968 2.66854 96.8415 2.89992ZM129.294 44.3004C125.777 44.6334 113.428 44.8421 102.273 33.689C91.117 22.536 91.3322 10.1893 91.6638 6.66756C91.7399 6.24775 91.9719 5.87221 92.3131 5.61615L102.274 15.577C101.825 15.9488 101.46 16.4125 101.205 16.9369C100.949 17.4612 100.809 18.0342 100.794 18.6172C100.794 20.6918 101.847 24.2059 106.802 29.1607C111.757 34.1155 115.272 35.1618 117.344 35.1707H117.359C117.936 35.1372 118.501 34.9889 119.021 34.7345C119.54 34.4801 120.004 34.1247 120.385 33.689L130.347 43.6498C130.09 43.9916 129.714 44.2239 129.294 44.3004Z" fill="#666666"/>
</svg>
