<svg width="18" height="18" viewBox="0 0 18 18" fill="none" xmlns="http://www.w3.org/2000/svg">
<g clip-path="url(#clip0)">
<path d="M5.07579 14.8404C6.94006 16.7238 8.77449 17.9046 8.85171 17.954C8.94762 18.0153 9.07065 18.0153 9.16656 17.954C9.24377 17.9046 11.0782 16.7238 12.9425 14.8404C14.042 13.7298 14.9192 12.6061 15.55 11.501C16.348 10.1026 16.7526 8.72815 16.7526 7.41566C16.7526 3.32676 13.2789 0 9.00913 0C4.73939 0 1.26562 3.32676 1.26562 7.4158C1.26562 8.72829 1.67025 10.1027 2.46822 11.501C3.09892 12.6062 3.97624 13.7296 5.07579 14.8404ZM9.00913 0.584598C12.9566 0.584598 16.168 3.64903 16.168 7.4158C16.168 8.62367 15.7902 9.89891 15.0452 11.2061C14.4412 12.2657 13.5966 13.3476 12.5351 14.4211C11.4531 15.5067 10.2728 16.4895 9.00913 17.3568C7.74559 16.4895 6.56512 15.5067 5.48327 14.4211C4.42169 13.3476 3.57719 12.2657 2.97318 11.2061C2.22801 9.89877 1.85022 8.62367 1.85022 7.4158C1.85022 3.64903 5.06166 0.584598 9.00913 0.584598Z" fill="#333333"/>
<path d="M9.00986 13.3443C12.1708 13.3443 14.7424 10.7727 14.7424 7.61177C14.7424 4.45086 12.1708 1.87939 9.00986 1.87939C5.84895 1.87939 3.27734 4.45086 3.27734 7.61177C3.27734 10.7728 5.84895 13.3443 9.00986 13.3443ZM9.00986 2.46399C11.8484 2.46399 14.1578 4.77327 14.1578 7.61177C14.1578 10.4503 11.8484 12.7597 9.00986 12.7597C6.17136 12.7597 3.86194 10.4503 3.86194 7.61177C3.86194 4.77341 6.17136 2.46399 9.00986 2.46399Z" fill="#333333"/>
<path d="M6.38035 10.096H11.6383C12.0606 10.096 12.4073 9.73004 12.4073 9.29502V5.93672C12.4089 5.73191 12.3285 5.53495 12.1841 5.3898C12.0397 5.2445 11.8431 5.16301 11.6383 5.16344H10.5074V5.05097C10.5074 4.61595 10.166 4.25 9.74379 4.25H8.2753C7.85298 4.25 7.51172 4.61595 7.51172 5.05097V5.16344H6.38035C6.17554 5.16301 5.97901 5.2445 5.83457 5.38965C5.69013 5.53495 5.60978 5.73191 5.61135 5.93672V9.29502C5.61135 9.73004 5.95789 10.096 6.38035 10.096ZM11.6383 9.51139H6.38035C6.2803 9.51139 6.19595 9.40763 6.19595 9.29502V8.40513C6.25675 8.41541 6.31869 8.41883 6.38035 8.41527H11.6383C11.7 8.41883 11.7619 8.41541 11.8227 8.40513V9.29502C11.8227 9.40763 11.7384 9.51139 11.6383 9.51139ZM8.0959 5.05097C8.0959 4.93822 8.17511 4.8346 8.27516 4.8346H9.74379C9.84384 4.8346 9.92277 4.93822 9.92277 5.05097V5.16344H8.0959V5.05097ZM6.19595 5.93672C6.19424 5.8869 6.21293 5.83852 6.24776 5.80284C6.28258 5.7673 6.33054 5.74746 6.38035 5.74803H11.6383C11.6881 5.74746 11.7361 5.7673 11.7709 5.80298C11.8057 5.83852 11.8244 5.8869 11.8227 5.93672V7.63942C11.8246 7.68937 11.8059 7.73804 11.7712 7.77415C11.7364 7.81011 11.6884 7.83052 11.6383 7.83067H6.38035C6.33025 7.83052 6.2823 7.81011 6.24747 7.77415C6.21279 7.73804 6.19409 7.68937 6.19595 7.63942V5.93672Z" fill="#333333"/>
<path d="M8.53448 7.02747H9.48445C9.64586 7.02747 9.77674 6.89659 9.77674 6.73517C9.77674 6.57375 9.64586 6.44287 9.48445 6.44287H8.53448C8.37306 6.44287 8.24219 6.57375 8.24219 6.73517C8.24219 6.89659 8.37306 7.02747 8.53448 7.02747Z" fill="#333333"/>
</g>
<defs>
<clipPath id="clip0">
<rect width="18" height="18" fill="white"/>
</clipPath>
</defs>
</svg>
