<svg width="18" height="18" viewBox="0 0 18 18" fill="none" xmlns="http://www.w3.org/2000/svg">
<path d="M18 1.05908H4.23633V8.47266H0V14.8228H1.58643C2.27633 14.8228 2.8645 14.3799 3.08239 13.7637H3.48613L6.66344 16.9409L13.763 16.9396V15.3539C13.763 15.1676 13.7305 14.9889 13.6712 14.8228H18V1.05908ZM16.9453 2.11377V3.17725H13.2341V2.11377H16.9453ZM12.1795 2.11377V5.71577L11.1182 5.24609L10.0569 5.71577V2.11377H12.1795ZM9.00218 2.11377V3.17725H5.29102V2.11377H9.00218ZM1.58643 13.7681H1.05469V9.52734H2.11816V13.2363C2.11816 13.5295 1.87963 13.7681 1.58643 13.7681ZM12.7084 15.3539V15.8851C10.9332 15.8855 7.93069 15.886 7.10023 15.8861L3.92302 12.709H3.17285V9.52734H5.45854C6.61943 9.51806 7.51085 10.5519 7.41403 11.7008L8.87941 13.1662C9.08673 13.3735 9.08673 13.7109 8.87941 13.9182C8.6721 14.1255 8.33477 14.1255 8.12742 13.9183L6.11606 11.9069L5.37029 12.6527L7.38165 14.6641C7.9418 15.2241 8.81997 15.277 9.44012 14.8228H12.1772C12.4701 14.8228 12.7084 15.061 12.7084 15.3539ZM10.073 13.7681C10.1412 13.2903 9.99186 12.7872 9.62515 12.4205L8.46014 11.2554C8.34855 9.65215 6.92831 8.38751 5.29102 8.47266V4.23193H9.00218V7.33598L11.1182 6.39942L13.2341 7.33598V4.23193H16.9453V13.7681H10.073Z" fill="#333333"/>
<path d="M12.709 9.53174H15.8818V10.5864H12.709V9.53174Z" fill="#333333"/>
<path d="M13.7656 11.6499H15.8794V12.7046H13.7656V11.6499Z" fill="#333333"/>
</svg>
