<svg width="129" height="128" viewBox="0 0 129 128" fill="none" xmlns="http://www.w3.org/2000/svg">
<path d="M20.3647 94.3433H18.0239V99H15.9238V86.9141H20.1738C21.5684 86.9141 22.6447 87.2267 23.4028 87.8521C24.161 88.4774 24.54 89.3822 24.54 90.5664C24.54 91.3743 24.3436 92.0522 23.9507 92.6001C23.5633 93.1424 23.021 93.5602 22.3237 93.8535L25.0381 98.8921V99H22.7886L20.3647 94.3433ZM18.0239 92.6582H20.1821C20.8905 92.6582 21.4438 92.4811 21.8423 92.127C22.2407 91.7673 22.4399 91.2775 22.4399 90.6577C22.4399 90.0103 22.2546 89.5094 21.8838 89.1553C21.5186 88.8011 20.9707 88.6185 20.2402 88.6074H18.0239V92.6582ZM30.2925 99.166C29.0142 99.166 27.9766 98.7648 27.1797 97.9624C26.3883 97.1545 25.9927 96.0809 25.9927 94.7417V94.4927C25.9927 93.5962 26.1642 92.7965 26.5073 92.0938C26.856 91.3854 27.3429 90.8348 27.9683 90.4419C28.5936 90.049 29.2909 89.8525 30.0601 89.8525C31.283 89.8525 32.2266 90.2427 32.8906 91.0229C33.5602 91.8032 33.895 92.9072 33.895 94.335V95.1484H28.0264C28.0872 95.89 28.3335 96.4766 28.7651 96.9082C29.2023 97.3398 29.7502 97.5557 30.4087 97.5557C31.3328 97.5557 32.0854 97.1821 32.6665 96.4351L33.7539 97.4727C33.3942 98.0094 32.9128 98.4272 32.3096 98.7261C31.7119 99.0194 31.0396 99.166 30.2925 99.166ZM30.0518 91.4712C29.4984 91.4712 29.0501 91.6649 28.707 92.0522C28.3695 92.4396 28.1536 92.9792 28.0596 93.6709H31.9028V93.5215C31.8586 92.8464 31.6787 92.3372 31.3633 91.9941C31.0479 91.6455 30.6107 91.4712 30.0518 91.4712ZM35.1152 94.4429C35.1152 93.0483 35.4417 91.936 36.0947 91.106C36.7533 90.2703 37.6248 89.8525 38.7095 89.8525C39.7332 89.8525 40.5384 90.2095 41.125 90.9233L41.2163 90.0186H43.0342V98.7261C43.0342 99.9048 42.6662 100.834 41.9302 101.515C41.1997 102.196 40.2119 102.536 38.9668 102.536C38.3083 102.536 37.6636 102.398 37.0327 102.121C36.4074 101.85 35.9315 101.493 35.605 101.05L36.5596 99.8384C37.1794 100.574 37.943 100.942 38.8506 100.942C39.5202 100.942 40.0487 100.76 40.436 100.395C40.8234 100.035 41.0171 99.5036 41.0171 98.8008V98.1948C40.436 98.8423 39.6613 99.166 38.6929 99.166C37.6414 99.166 36.7809 98.7482 36.1113 97.9126C35.4473 97.077 35.1152 95.9204 35.1152 94.4429ZM37.124 94.6172C37.124 95.5192 37.3066 96.2303 37.6719 96.7505C38.0426 97.2651 38.5545 97.5225 39.2075 97.5225C40.021 97.5225 40.6242 97.1738 41.0171 96.4766V92.5254C40.6353 91.8447 40.0376 91.5044 39.2241 91.5044C38.5601 91.5044 38.0426 91.7673 37.6719 92.293C37.3066 92.8187 37.124 93.5934 37.124 94.6172ZM47.2593 99H45.2422V90.0186H47.2593V99ZM45.1177 87.686C45.1177 87.3761 45.2145 87.1188 45.4082 86.9141C45.6074 86.7093 45.8896 86.6069 46.2549 86.6069C46.6201 86.6069 46.9023 86.7093 47.1016 86.9141C47.3008 87.1188 47.4004 87.3761 47.4004 87.686C47.4004 87.9904 47.3008 88.245 47.1016 88.4497C46.9023 88.6489 46.6201 88.7485 46.2549 88.7485C45.8896 88.7485 45.6074 88.6489 45.4082 88.4497C45.2145 88.245 45.1177 87.9904 45.1177 87.686ZM54.4976 96.5596C54.4976 96.1999 54.3481 95.9259 54.0493 95.7378C53.756 95.5496 53.2663 95.3836 52.5801 95.2397C51.8939 95.0959 51.3211 94.9132 50.8618 94.6919C49.8547 94.2049 49.3511 93.4993 49.3511 92.5752C49.3511 91.8005 49.6776 91.153 50.3306 90.6328C50.9836 90.1126 51.8136 89.8525 52.8208 89.8525C53.8944 89.8525 54.7604 90.1182 55.4189 90.6494C56.083 91.1807 56.415 91.8696 56.415 92.7163H54.3979C54.3979 92.3289 54.2541 92.008 53.9663 91.7534C53.6785 91.4933 53.2967 91.3633 52.8208 91.3633C52.3781 91.3633 52.0156 91.4657 51.7334 91.6704C51.4567 91.8752 51.3184 92.1491 51.3184 92.4922C51.3184 92.8021 51.4484 93.0428 51.7085 93.2144C51.9686 93.3859 52.4943 93.5602 53.2856 93.7373C54.077 93.9089 54.6968 94.1164 55.145 94.3599C55.5988 94.5978 55.9336 94.8856 56.1494 95.2231C56.3708 95.5607 56.4814 95.9702 56.4814 96.4517C56.4814 97.2596 56.1466 97.9154 55.4771 98.4189C54.8075 98.917 53.9303 99.166 52.8457 99.166C52.1097 99.166 51.4539 99.0332 50.8784 98.7676C50.3029 98.502 49.8547 98.1367 49.5337 97.6719C49.2127 97.207 49.0522 96.7062 49.0522 96.1694H51.0112C51.0389 96.6453 51.2188 97.0133 51.5508 97.2734C51.8828 97.528 52.3228 97.6553 52.8706 97.6553C53.4019 97.6553 53.8058 97.5557 54.0825 97.3564C54.3592 97.1517 54.4976 96.8861 54.4976 96.5596ZM60.7729 87.8354V90.0186H62.3584V91.5127H60.7729V96.5264C60.7729 96.8695 60.8394 97.1185 60.9722 97.2734C61.1105 97.4229 61.354 97.4976 61.7026 97.4976C61.9351 97.4976 62.1702 97.4699 62.4082 97.4146V98.9751C61.9489 99.1024 61.5062 99.166 61.0801 99.166C59.5306 99.166 58.7559 98.311 58.7559 96.6011V91.5127H57.2783V90.0186H58.7559V87.8354H60.7729ZM67.8618 99.166C66.5835 99.166 65.5459 98.7648 64.749 97.9624C63.9577 97.1545 63.562 96.0809 63.562 94.7417V94.4927C63.562 93.5962 63.7336 92.7965 64.0767 92.0938C64.4253 91.3854 64.9123 90.8348 65.5376 90.4419C66.1629 90.049 66.8602 89.8525 67.6294 89.8525C68.8524 89.8525 69.7959 90.2427 70.46 91.0229C71.1296 91.8032 71.4644 92.9072 71.4644 94.335V95.1484H65.5957C65.6566 95.89 65.9028 96.4766 66.3345 96.9082C66.7716 97.3398 67.3195 97.5557 67.978 97.5557C68.9022 97.5557 69.6548 97.1821 70.2358 96.4351L71.3232 97.4727C70.9635 98.0094 70.4821 98.4272 69.8789 98.7261C69.2812 99.0194 68.6089 99.166 67.8618 99.166ZM67.6211 91.4712C67.0677 91.4712 66.6195 91.6649 66.2764 92.0522C65.9388 92.4396 65.723 92.9792 65.6289 93.6709H69.4722V93.5215C69.4279 92.8464 69.248 92.3372 68.9326 91.9941C68.6172 91.6455 68.18 91.4712 67.6211 91.4712ZM77.7397 91.8613C77.4741 91.8171 77.2002 91.7949 76.918 91.7949C75.9938 91.7949 75.3713 92.1491 75.0503 92.8574V99H73.0332V90.0186H74.959L75.0088 91.0229C75.4958 90.2427 76.1709 89.8525 77.0342 89.8525C77.3219 89.8525 77.5599 89.8913 77.748 89.9688L77.7397 91.8613ZM91.1372 96.2192L92.5649 90.0186H94.5322L92.0835 99H90.4233L88.4976 92.8325L86.605 99H84.9448L82.4878 90.0186H84.4551L85.9077 96.1528L87.7505 90.0186H89.2695L91.1372 96.2192ZM98.0269 99H96.0098V90.0186H98.0269V99ZM95.8853 87.686C95.8853 87.3761 95.9821 87.1188 96.1758 86.9141C96.375 86.7093 96.6572 86.6069 97.0225 86.6069C97.3877 86.6069 97.6699 86.7093 97.8691 86.9141C98.0684 87.1188 98.168 87.3761 98.168 87.686C98.168 87.9904 98.0684 88.245 97.8691 88.4497C97.6699 88.6489 97.3877 88.7485 97.0225 88.7485C96.6572 88.7485 96.375 88.6489 96.1758 88.4497C95.9821 88.245 95.8853 87.9904 95.8853 87.686ZM102.758 87.8354V90.0186H104.344V91.5127H102.758V96.5264C102.758 96.8695 102.825 97.1185 102.958 97.2734C103.096 97.4229 103.339 97.4976 103.688 97.4976C103.92 97.4976 104.156 97.4699 104.394 97.4146V98.9751C103.934 99.1024 103.492 99.166 103.065 99.166C101.516 99.166 100.741 98.311 100.741 96.6011V91.5127H99.2637V90.0186H100.741V87.8354H102.758ZM107.88 90.998C108.538 90.2344 109.371 89.8525 110.378 89.8525C112.293 89.8525 113.264 90.9455 113.292 93.1313V99H111.275V93.2061C111.275 92.5863 111.139 92.1491 110.868 91.8945C110.603 91.6344 110.21 91.5044 109.689 91.5044C108.882 91.5044 108.278 91.8641 107.88 92.5835V99H105.863V86.25H107.88V90.998ZM39.5562 109.914L43.0425 119.178L46.5205 109.914H49.2349V122H47.1431V118.016L47.3506 112.687L43.7812 122H42.2788L38.7178 112.695L38.9253 118.016V122H36.8335V109.914H39.5562ZM56.2324 114.861C55.9668 114.817 55.6929 114.795 55.4106 114.795C54.4865 114.795 53.8639 115.149 53.543 115.857V122H51.5259V113.019H53.4517L53.5015 114.023C53.9884 113.243 54.6636 112.853 55.5269 112.853C55.8146 112.853 56.0526 112.891 56.2407 112.969L56.2324 114.861ZM57.3198 119.875C57.6961 119.875 57.9867 119.983 58.1914 120.199C58.3962 120.409 58.4985 120.675 58.4985 120.996C58.4985 121.311 58.3962 121.574 58.1914 121.784C57.9867 121.989 57.6961 122.091 57.3198 122.091C56.9601 122.091 56.6751 121.989 56.4648 121.784C56.2546 121.579 56.1494 121.317 56.1494 120.996C56.1494 120.675 56.2518 120.409 56.4565 120.199C56.6613 119.983 56.9491 119.875 57.3198 119.875ZM63.728 109.914L67.2144 119.178L70.6924 109.914H73.4067V122H71.3149V118.016L71.5225 112.687L67.9531 122H66.4507L62.8896 112.695L63.0972 118.016V122H61.0054V109.914H63.728ZM79.6572 122.166C78.3789 122.166 77.3413 121.765 76.5444 120.962C75.7531 120.154 75.3574 119.081 75.3574 117.742V117.493C75.3574 116.596 75.529 115.797 75.8721 115.094C76.2207 114.385 76.7077 113.835 77.333 113.442C77.9583 113.049 78.6556 112.853 79.4248 112.853C80.6478 112.853 81.5913 113.243 82.2554 114.023C82.925 114.803 83.2598 115.907 83.2598 117.335V118.148H77.3911C77.452 118.89 77.6982 119.477 78.1299 119.908C78.5671 120.34 79.1149 120.556 79.7734 120.556C80.6976 120.556 81.4502 120.182 82.0312 119.435L83.1187 120.473C82.759 121.009 82.2775 121.427 81.6743 121.726C81.0767 122.019 80.4043 122.166 79.6572 122.166ZM79.4165 114.471C78.8631 114.471 78.4149 114.665 78.0718 115.052C77.7342 115.44 77.5184 115.979 77.4243 116.671H81.2676V116.521C81.2233 115.846 81.0435 115.337 80.728 114.994C80.4126 114.646 79.9754 114.471 79.4165 114.471ZM84.4551 117.443C84.4551 116.059 84.776 114.95 85.418 114.114C86.0599 113.273 86.9204 112.853 87.9995 112.853C88.9513 112.853 89.7205 113.185 90.3071 113.849V109.25H92.3242V122H90.498L90.3984 121.07C89.7952 121.801 88.9901 122.166 87.9829 122.166C86.9315 122.166 86.0793 121.743 85.4263 120.896C84.7788 120.049 84.4551 118.898 84.4551 117.443ZM86.4722 117.617C86.4722 118.53 86.6465 119.244 86.9951 119.759C87.3493 120.268 87.8501 120.522 88.4976 120.522C89.3221 120.522 89.9253 120.154 90.3071 119.418V115.583C89.9364 114.864 89.3387 114.504 88.5142 114.504C87.8612 114.504 87.3576 114.764 87.0034 115.285C86.6493 115.799 86.4722 116.577 86.4722 117.617Z" fill="#262626"/>
<path d="M86.8214 11.0357H72.1071V7.35714C72.1071 5.40591 71.332 3.53459 69.9523 2.15486C68.5726 0.775125 66.7012 0 64.75 0C62.7988 0 60.9274 0.775125 59.5477 2.15486C58.168 3.53459 57.3929 5.40591 57.3929 7.35714V11.0357H42.6786C41.703 11.0357 40.7673 11.4233 40.0774 12.1131C39.3876 12.803 39 13.7387 39 14.7143V44.1429C39 45.1185 39.3876 46.0541 40.0774 46.744C40.7673 47.4339 41.703 47.8214 42.6786 47.8214H86.8214C87.797 47.8214 88.7327 47.4339 89.4226 46.744C90.1124 46.0541 90.5 45.1185 90.5 44.1429V14.7143C90.5 13.7387 90.1124 12.803 89.4226 12.1131C88.7327 11.4233 87.797 11.0357 86.8214 11.0357ZM59.8452 7.35714C59.8452 6.05632 60.362 4.80877 61.2818 3.88895C62.2016 2.96913 63.4492 2.45238 64.75 2.45238C66.0508 2.45238 67.2984 2.96913 68.2182 3.88895C69.138 4.80877 69.6548 6.05632 69.6548 7.35714V11.0357H59.8452V7.35714ZM88.0476 44.1429C88.0476 44.4681 87.9184 44.78 87.6885 45.0099C87.4585 45.2399 87.1466 45.369 86.8214 45.369H42.6786C42.3534 45.369 42.0415 45.2399 41.8115 45.0099C41.5816 44.78 41.4524 44.4681 41.4524 44.1429V14.7143C41.4524 14.3891 41.5816 14.0772 41.8115 13.8472C42.0415 13.6173 42.3534 13.4881 42.6786 13.4881H86.8214C87.1466 13.4881 87.4585 13.6173 87.6885 13.8472C87.9184 14.0772 88.0476 14.3891 88.0476 14.7143V44.1429Z" fill="#666666"/>
<path d="M57.3435 26.5665C57.9826 25.8634 58.4037 24.9898 58.5556 24.0519C58.7075 23.1139 58.5838 22.152 58.1993 21.2831C57.8149 20.4142 57.1864 19.6756 56.3901 19.1572C55.5938 18.6388 54.6641 18.3628 53.7139 18.3628C52.7638 18.3628 51.8341 18.6388 51.0378 19.1572C50.2415 19.6756 49.613 20.4142 49.2286 21.2831C48.8441 22.152 48.7204 23.1139 48.8723 24.0519C49.0242 24.9898 49.4453 25.8634 50.0844 26.5665C48.6059 27.2564 47.3547 28.3534 46.4773 29.729C45.5999 31.1046 45.1328 32.7017 45.1306 34.3332V36.7856C45.1306 37.7612 45.5182 38.6969 46.208 39.3867C46.8979 40.0766 47.8336 40.4642 48.8092 40.4642H58.6187C59.5943 40.4642 60.53 40.0766 61.2199 39.3867C61.9097 38.6969 62.2973 37.7612 62.2973 36.7856V34.3332C62.2951 32.7017 61.8279 31.1046 60.9506 29.729C60.0732 28.3534 58.822 27.2564 57.3435 26.5665ZM51.2616 23.2975C51.2616 22.8125 51.4054 22.3383 51.6749 21.935C51.9443 21.5317 52.3273 21.2174 52.7755 21.0318C53.2236 20.8462 53.7167 20.7976 54.1924 20.8922C54.6681 20.9869 55.1051 21.2204 55.448 21.5634C55.791 21.9064 56.0246 22.3434 56.1192 22.8191C56.2138 23.2948 56.1653 23.7879 55.9797 24.236C55.794 24.6841 55.4797 25.0671 55.0764 25.3366C54.6731 25.6061 54.199 25.7499 53.7139 25.7499C53.0635 25.7499 52.4398 25.4915 51.9799 25.0316C51.5199 24.5717 51.2616 23.9479 51.2616 23.2975ZM59.8449 36.7856C59.8449 37.1108 59.7157 37.4227 59.4858 37.6526C59.2558 37.8826 58.9439 38.0118 58.6187 38.0118H48.8092C48.484 38.0118 48.1721 37.8826 47.9421 37.6526C47.7122 37.4227 47.583 37.1108 47.583 36.7856V34.3332C47.583 32.7072 48.2289 31.1478 49.3787 29.998C50.5285 28.8482 52.0879 28.2023 53.7139 28.2023C55.34 28.2023 56.8994 28.8482 58.0492 29.998C59.199 31.1478 59.8449 32.7072 59.8449 34.3332V36.7856Z" fill="#666666"/>
<path d="M83.1424 20.8452H68.4281C68.1029 20.8452 67.791 20.9744 67.561 21.2044C67.3311 21.4343 67.2019 21.7462 67.2019 22.0714C67.2019 22.3966 67.3311 22.7085 67.561 22.9385C67.791 23.1684 68.1029 23.2976 68.4281 23.2976H83.1424C83.4676 23.2976 83.7795 23.1684 84.0094 22.9385C84.2394 22.7085 84.3686 22.3966 84.3686 22.0714C84.3686 21.7462 84.2394 21.4343 84.0094 21.2044C83.7795 20.9744 83.4676 20.8452 83.1424 20.8452Z" fill="#666666"/>
<path d="M83.1424 35.5596H68.4281C68.1029 35.5596 67.791 35.6888 67.561 35.9187C67.3311 36.1487 67.2019 36.4606 67.2019 36.7858C67.2019 37.111 67.3311 37.4229 67.561 37.6528C67.791 37.8828 68.1029 38.012 68.4281 38.012H83.1424C83.4676 38.012 83.7795 37.8828 84.0094 37.6528C84.2394 37.4229 84.3686 37.111 84.3686 36.7858C84.3686 36.4606 84.2394 36.1487 84.0094 35.9187C83.7795 35.6888 83.4676 35.5596 83.1424 35.5596Z" fill="#666666"/>
<path d="M83.1424 28.2021H68.4281C68.1029 28.2021 67.791 28.3313 67.561 28.5613C67.3311 28.7912 67.2019 29.1031 67.2019 29.4283C67.2019 29.7535 67.3311 30.0654 67.561 30.2954C67.791 30.5253 68.1029 30.6545 68.4281 30.6545H83.1424C83.4676 30.6545 83.7795 30.5253 84.0094 30.2954C84.2394 30.0654 84.3686 29.7535 84.3686 29.4283C84.3686 29.1031 84.2394 28.7912 84.0094 28.5613C83.7795 28.3313 83.4676 28.2021 83.1424 28.2021Z" fill="#666666"/>
<path d="M64.7499 8.58336C65.7657 8.58336 66.5892 7.75988 66.5892 6.74407C66.5892 5.72826 65.7657 4.90479 64.7499 4.90479C63.7341 4.90479 62.9106 5.72826 62.9106 6.74407C62.9106 7.75988 63.7341 8.58336 64.7499 8.58336Z" fill="#666666"/>
</svg>
