<svg width="178" height="125" viewBox="0 0 178 125" fill="none" xmlns="http://www.w3.org/2000/svg">
<path d="M13.7949 91.3433H11.4541V96H9.354V83.9141H13.604C14.9985 83.9141 16.0749 84.2267 16.833 84.8521C17.5911 85.4774 17.9702 86.3822 17.9702 87.5664C17.9702 88.3743 17.7738 89.0522 17.3809 89.6001C16.9935 90.1424 16.4512 90.5602 15.7539 90.8535L18.4683 95.8921V96H16.2188L13.7949 91.3433ZM11.4541 89.6582H13.6123C14.3206 89.6582 14.874 89.4811 15.2725 89.127C15.6709 88.7673 15.8701 88.2775 15.8701 87.6577C15.8701 87.0103 15.6847 86.5094 15.314 86.1553C14.9487 85.8011 14.4009 85.6185 13.6704 85.6074H11.4541V89.6582ZM23.7227 96.166C22.4443 96.166 21.4067 95.7648 20.6099 94.9624C19.8185 94.1545 19.4229 93.0809 19.4229 91.7417V91.4927C19.4229 90.5962 19.5944 89.7965 19.9375 89.0938C20.2861 88.3854 20.7731 87.8348 21.3984 87.4419C22.0238 87.049 22.721 86.8525 23.4902 86.8525C24.7132 86.8525 25.6567 87.2427 26.3208 88.0229C26.9904 88.8032 27.3252 89.9072 27.3252 91.335V92.1484H21.4565C21.5174 92.89 21.7637 93.4766 22.1953 93.9082C22.6325 94.3398 23.1803 94.5557 23.8389 94.5557C24.763 94.5557 25.5156 94.1821 26.0967 93.4351L27.1841 94.4727C26.8244 95.0094 26.3429 95.4272 25.7397 95.7261C25.1421 96.0194 24.4697 96.166 23.7227 96.166ZM23.4819 88.4712C22.9285 88.4712 22.4803 88.6649 22.1372 89.0522C21.7996 89.4396 21.5838 89.9792 21.4897 90.6709H25.333V90.5215C25.2887 89.8464 25.1089 89.3372 24.7935 88.9941C24.478 88.6455 24.0409 88.4712 23.4819 88.4712ZM28.5205 91.4346C28.5205 90.029 28.8415 88.9139 29.4834 88.0894C30.1253 87.2648 30.9941 86.8525 32.0898 86.8525C33.0915 86.8525 33.8856 87.2039 34.4722 87.9067L34.5884 87.0186H36.3813V99.4531H34.3643V95.2363C33.7777 95.8561 33.014 96.166 32.0732 96.166C30.9997 96.166 30.1392 95.7482 29.4917 94.9126C28.8442 94.0715 28.5205 92.9121 28.5205 91.4346ZM30.5376 91.6089C30.5376 92.5275 30.7174 93.2497 31.0771 93.7754C31.4424 94.2956 31.946 94.5557 32.5879 94.5557C33.3848 94.5557 33.9769 94.2153 34.3643 93.5347V89.4507C33.9769 88.7977 33.3903 88.4712 32.6045 88.4712C31.9626 88.4712 31.4562 88.7285 31.0854 89.2432C30.7202 89.7578 30.5376 90.5464 30.5376 91.6089ZM44.0015 95.1201C43.4093 95.8174 42.5682 96.166 41.478 96.166C40.5041 96.166 39.7653 95.881 39.2617 95.311C38.7637 94.741 38.5146 93.9165 38.5146 92.8374V87.0186H40.5317V92.8125C40.5317 93.9525 41.0049 94.5225 41.9512 94.5225C42.9307 94.5225 43.592 94.1711 43.9351 93.4683V87.0186H45.9521V96H44.0513L44.0015 95.1201ZM51.9619 96.166C50.6836 96.166 49.646 95.7648 48.8491 94.9624C48.0578 94.1545 47.6621 93.0809 47.6621 91.7417V91.4927C47.6621 90.5962 47.8337 89.7965 48.1768 89.0938C48.5254 88.3854 49.0124 87.8348 49.6377 87.4419C50.263 87.049 50.9603 86.8525 51.7295 86.8525C52.9525 86.8525 53.896 87.2427 54.5601 88.0229C55.2297 88.8032 55.5645 89.9072 55.5645 91.335V92.1484H49.6958C49.7567 92.89 50.0029 93.4766 50.4346 93.9082C50.8717 94.3398 51.4196 94.5557 52.0781 94.5557C53.0023 94.5557 53.7549 94.1821 54.3359 93.4351L55.4233 94.4727C55.0636 95.0094 54.5822 95.4272 53.979 95.7261C53.3813 96.0194 52.709 96.166 51.9619 96.166ZM51.7212 88.4712C51.1678 88.4712 50.7196 88.6649 50.3765 89.0522C50.0389 89.4396 49.8231 89.9792 49.729 90.6709H53.5723V90.5215C53.528 89.8464 53.3481 89.3372 53.0327 88.9941C52.7173 88.6455 52.2801 88.4712 51.7212 88.4712ZM62.1719 93.5596C62.1719 93.1999 62.0225 92.9259 61.7236 92.7378C61.4303 92.5496 60.9406 92.3836 60.2544 92.2397C59.5682 92.0959 58.9954 91.9132 58.5361 91.6919C57.529 91.2049 57.0254 90.4993 57.0254 89.5752C57.0254 88.8005 57.3519 88.153 58.0049 87.6328C58.6579 87.1126 59.488 86.8525 60.4951 86.8525C61.5687 86.8525 62.4347 87.1182 63.0933 87.6494C63.7573 88.1807 64.0894 88.8696 64.0894 89.7163H62.0723C62.0723 89.3289 61.9284 89.008 61.6406 88.7534C61.3529 88.4933 60.971 88.3633 60.4951 88.3633C60.0524 88.3633 59.6899 88.4657 59.4077 88.6704C59.131 88.8752 58.9927 89.1491 58.9927 89.4922C58.9927 89.8021 59.1227 90.0428 59.3828 90.2144C59.6429 90.3859 60.1686 90.5602 60.96 90.7373C61.7513 90.9089 62.3711 91.1164 62.8193 91.3599C63.2731 91.5978 63.6079 91.8856 63.8237 92.2231C64.0451 92.5607 64.1558 92.9702 64.1558 93.4517C64.1558 94.2596 63.821 94.9154 63.1514 95.4189C62.4818 95.917 61.6047 96.166 60.52 96.166C59.784 96.166 59.1283 96.0332 58.5527 95.7676C57.9772 95.502 57.529 95.1367 57.208 94.6719C56.887 94.207 56.7266 93.7062 56.7266 93.1694H58.6855C58.7132 93.6453 58.8931 94.0133 59.2251 94.2734C59.5571 94.528 59.9971 94.6553 60.5449 94.6553C61.0762 94.6553 61.4801 94.5557 61.7568 94.3564C62.0335 94.1517 62.1719 93.8861 62.1719 93.5596ZM68.4473 84.8354V87.0186H70.0327V88.5127H68.4473V93.5264C68.4473 93.8695 68.5137 94.1185 68.6465 94.2734C68.7848 94.4229 69.0283 94.4976 69.377 94.4976C69.6094 94.4976 69.8446 94.4699 70.0825 94.4146V95.9751C69.6232 96.1024 69.1805 96.166 68.7544 96.166C67.2049 96.166 66.4302 95.311 66.4302 93.6011V88.5127H64.9526V87.0186H66.4302V84.8354H68.4473ZM76.5239 96V88.5127H75.1543V87.0186H76.5239V86.1968C76.5239 85.2007 76.8006 84.4315 77.354 83.8892C77.9074 83.3468 78.6821 83.0757 79.6782 83.0757C80.0324 83.0757 80.4087 83.1255 80.8071 83.2251L80.7573 84.8022C80.536 84.758 80.2786 84.7358 79.9854 84.7358C79.0225 84.7358 78.541 85.2311 78.541 86.2217V87.0186H80.3672V88.5127H78.541V96H76.5239ZM81.4629 91.4263C81.4629 90.5464 81.6372 89.755 81.9858 89.0522C82.3345 88.3439 82.8242 87.8016 83.4551 87.4253C84.0859 87.0435 84.8109 86.8525 85.6299 86.8525C86.8418 86.8525 87.8241 87.2427 88.5767 88.0229C89.3348 88.8032 89.7443 89.8381 89.8052 91.1274L89.8135 91.6006C89.8135 92.486 89.6419 93.2773 89.2988 93.9746C88.9613 94.6719 88.4743 95.2114 87.8379 95.5933C87.207 95.9751 86.4766 96.166 85.6465 96.166C84.3792 96.166 83.3638 95.7454 82.6001 94.9043C81.842 94.0576 81.4629 92.9315 81.4629 91.5259V91.4263ZM83.48 91.6006C83.48 92.5247 83.6709 93.2497 84.0527 93.7754C84.4346 94.2956 84.9658 94.5557 85.6465 94.5557C86.3271 94.5557 86.8556 94.29 87.2319 93.7588C87.6138 93.2275 87.8047 92.45 87.8047 91.4263C87.8047 90.5187 87.6082 89.7993 87.2153 89.2681C86.828 88.7368 86.2995 88.4712 85.6299 88.4712C84.9714 88.4712 84.4484 88.734 84.061 89.2598C83.6737 89.7799 83.48 90.5602 83.48 91.6006ZM96.2217 88.8613C95.9561 88.8171 95.6821 88.7949 95.3999 88.7949C94.4757 88.7949 93.8532 89.1491 93.5322 89.8574V96H91.5151V87.0186H93.4409L93.4907 88.0229C93.9777 87.2427 94.6528 86.8525 95.5161 86.8525C95.8039 86.8525 96.0418 86.8913 96.23 86.9688L96.2217 88.8613ZM103.875 96H101.858V87.0186H103.875V96ZM101.733 84.686C101.733 84.3761 101.83 84.1188 102.024 83.9141C102.223 83.7093 102.505 83.6069 102.871 83.6069C103.236 83.6069 103.518 83.7093 103.717 83.9141C103.917 84.1188 104.016 84.3761 104.016 84.686C104.016 84.9904 103.917 85.245 103.717 85.4497C103.518 85.6489 103.236 85.7485 102.871 85.7485C102.505 85.7485 102.223 85.6489 102.024 85.4497C101.83 85.245 101.733 84.9904 101.733 84.686ZM107.976 87.0186L108.034 87.9565C108.665 87.2205 109.528 86.8525 110.624 86.8525C111.824 86.8525 112.646 87.3118 113.089 88.2305C113.742 87.3118 114.66 86.8525 115.845 86.8525C116.835 86.8525 117.571 87.1265 118.053 87.6743C118.54 88.2222 118.789 89.0301 118.8 90.0981V96H116.783V90.1562C116.783 89.5863 116.658 89.1685 116.409 88.9028C116.16 88.6372 115.748 88.5044 115.172 88.5044C114.713 88.5044 114.337 88.6289 114.043 88.8779C113.756 89.1214 113.554 89.4424 113.438 89.8408L113.446 96H111.429V90.0898C111.401 89.0329 110.861 88.5044 109.81 88.5044C109.002 88.5044 108.429 88.8337 108.092 89.4922V96H106.075V87.0186H107.976ZM128.736 91.6006C128.736 92.9896 128.42 94.0991 127.79 94.9292C127.159 95.7537 126.312 96.166 125.25 96.166C124.264 96.166 123.476 95.8423 122.884 95.1948V99.4531H120.867V87.0186H122.726L122.809 87.9316C123.401 87.2122 124.206 86.8525 125.225 86.8525C126.32 86.8525 127.178 87.262 127.798 88.0811C128.423 88.8945 128.736 90.0262 128.736 91.4761V91.6006ZM126.727 91.4263C126.727 90.5298 126.547 89.8187 126.188 89.293C125.833 88.7673 125.324 88.5044 124.66 88.5044C123.836 88.5044 123.243 88.8447 122.884 89.5254V93.5098C123.249 94.207 123.847 94.5557 124.677 94.5557C125.319 94.5557 125.819 94.2983 126.179 93.7837C126.544 93.2635 126.727 92.4777 126.727 91.4263ZM130.072 91.4263C130.072 90.5464 130.247 89.755 130.595 89.0522C130.944 88.3439 131.434 87.8016 132.064 87.4253C132.695 87.0435 133.42 86.8525 134.239 86.8525C135.451 86.8525 136.433 87.2427 137.186 88.0229C137.944 88.8032 138.354 89.8381 138.415 91.1274L138.423 91.6006C138.423 92.486 138.251 93.2773 137.908 93.9746C137.571 94.6719 137.084 95.2114 136.447 95.5933C135.816 95.9751 135.086 96.166 134.256 96.166C132.989 96.166 131.973 95.7454 131.209 94.9043C130.451 94.0576 130.072 92.9315 130.072 91.5259V91.4263ZM132.089 91.6006C132.089 92.5247 132.28 93.2497 132.662 93.7754C133.044 94.2956 133.575 94.5557 134.256 94.5557C134.937 94.5557 135.465 94.29 135.841 93.7588C136.223 93.2275 136.414 92.45 136.414 91.4263C136.414 90.5187 136.218 89.7993 135.825 89.2681C135.437 88.7368 134.909 88.4712 134.239 88.4712C133.581 88.4712 133.058 88.734 132.67 89.2598C132.283 89.7799 132.089 90.5602 132.089 91.6006ZM144.831 88.8613C144.565 88.8171 144.292 88.7949 144.009 88.7949C143.085 88.7949 142.463 89.1491 142.142 89.8574V96H140.125V87.0186H142.05L142.1 88.0229C142.587 87.2427 143.262 86.8525 144.125 86.8525C144.413 86.8525 144.651 86.8913 144.839 86.9688L144.831 88.8613ZM149.048 84.8354V87.0186H150.633V88.5127H149.048V93.5264C149.048 93.8695 149.114 94.1185 149.247 94.2734C149.385 94.4229 149.629 94.4976 149.978 94.4976C150.21 94.4976 150.445 94.4699 150.683 94.4146V95.9751C150.224 96.1024 149.781 96.166 149.355 96.166C147.806 96.166 147.031 95.311 147.031 93.6011V88.5127H145.553V87.0186H147.031V84.8354H149.048ZM156.137 96.166C154.858 96.166 153.821 95.7648 153.024 94.9624C152.233 94.1545 151.837 93.0809 151.837 91.7417V91.4927C151.837 90.5962 152.008 89.7965 152.352 89.0938C152.7 88.3854 153.187 87.8348 153.812 87.4419C154.438 87.049 155.135 86.8525 155.904 86.8525C157.127 86.8525 158.071 87.2427 158.735 88.0229C159.404 88.8032 159.739 89.9072 159.739 91.335V92.1484H153.871C153.931 92.89 154.178 93.4766 154.609 93.9082C155.047 94.3398 155.594 94.5557 156.253 94.5557C157.177 94.5557 157.93 94.1821 158.511 93.4351L159.598 94.4727C159.238 95.0094 158.757 95.4272 158.154 95.7261C157.556 96.0194 156.884 96.166 156.137 96.166ZM155.896 88.4712C155.343 88.4712 154.894 88.6649 154.551 89.0522C154.214 89.4396 153.998 89.9792 153.904 90.6709H157.747V90.5215C157.703 89.8464 157.523 89.3372 157.208 88.9941C156.892 88.6455 156.455 88.4712 155.896 88.4712ZM160.935 91.4429C160.935 90.0594 161.256 88.9499 161.897 88.1143C162.539 87.2731 163.4 86.8525 164.479 86.8525C165.431 86.8525 166.2 87.1846 166.787 87.8486V83.25H168.804V96H166.978L166.878 95.0703C166.275 95.8008 165.47 96.166 164.462 96.166C163.411 96.166 162.559 95.7427 161.906 94.896C161.258 94.0493 160.935 92.8983 160.935 91.4429ZM162.952 91.6172C162.952 92.5303 163.126 93.2441 163.475 93.7588C163.829 94.2679 164.33 94.5225 164.977 94.5225C165.802 94.5225 166.405 94.1545 166.787 93.4185V89.5835C166.416 88.8641 165.818 88.5044 164.994 88.5044C164.341 88.5044 163.837 88.7645 163.483 89.2847C163.129 89.7993 162.952 90.5768 162.952 91.6172ZM57.0752 110.019L57.1333 110.957C57.7642 110.221 58.6274 109.853 59.7231 109.853C60.924 109.853 61.7458 110.312 62.1885 111.23C62.8415 110.312 63.7601 109.853 64.9443 109.853C65.9349 109.853 66.6709 110.126 67.1523 110.674C67.6393 111.222 67.8883 112.03 67.8994 113.098V119H65.8823V113.156C65.8823 112.586 65.7578 112.168 65.5088 111.903C65.2598 111.637 64.8475 111.504 64.272 111.504C63.8127 111.504 63.4364 111.629 63.1431 111.878C62.8553 112.121 62.6533 112.442 62.5371 112.841L62.5454 119H60.5283V113.09C60.5007 112.033 59.9611 111.504 58.9097 111.504C58.1017 111.504 57.529 111.834 57.1914 112.492V119H55.1743V110.019H57.0752ZM73.9258 119.166C72.6475 119.166 71.6099 118.765 70.813 117.962C70.0216 117.154 69.626 116.081 69.626 114.742V114.493C69.626 113.596 69.7975 112.797 70.1406 112.094C70.4893 111.385 70.9762 110.835 71.6016 110.442C72.2269 110.049 72.9242 109.853 73.6934 109.853C74.9163 109.853 75.8599 110.243 76.5239 111.023C77.1935 111.803 77.5283 112.907 77.5283 114.335V115.148H71.6597C71.7205 115.89 71.9668 116.477 72.3984 116.908C72.8356 117.34 73.3835 117.556 74.042 117.556C74.9661 117.556 75.7188 117.182 76.2998 116.435L77.3872 117.473C77.0275 118.009 76.5461 118.427 75.9429 118.726C75.3452 119.019 74.6729 119.166 73.9258 119.166ZM73.6851 111.471C73.1317 111.471 72.6834 111.665 72.3403 112.052C72.0028 112.44 71.7869 112.979 71.6929 113.671H75.5361V113.521C75.4919 112.846 75.312 112.337 74.9966 111.994C74.6812 111.646 74.244 111.471 73.6851 111.471ZM78.7236 114.443C78.7236 113.059 79.0446 111.95 79.6865 111.114C80.3285 110.273 81.189 109.853 82.2681 109.853C83.2199 109.853 83.9891 110.185 84.5757 110.849V106.25H86.5928V119H84.7666L84.667 118.07C84.0638 118.801 83.2586 119.166 82.2515 119.166C81.2 119.166 80.3478 118.743 79.6948 117.896C79.0474 117.049 78.7236 115.898 78.7236 114.443ZM80.7407 114.617C80.7407 115.53 80.915 116.244 81.2637 116.759C81.6178 117.268 82.1187 117.522 82.7661 117.522C83.5907 117.522 84.1938 117.154 84.5757 116.418V112.583C84.2049 111.864 83.6073 111.504 82.7827 111.504C82.1297 111.504 81.6261 111.764 81.272 112.285C80.9178 112.799 80.7407 113.577 80.7407 114.617ZM90.8428 119H88.8257V110.019H90.8428V119ZM88.7012 107.686C88.7012 107.376 88.798 107.119 88.9917 106.914C89.1909 106.709 89.4731 106.607 89.8384 106.607C90.2036 106.607 90.4858 106.709 90.6851 106.914C90.8843 107.119 90.9839 107.376 90.9839 107.686C90.9839 107.99 90.8843 108.245 90.6851 108.45C90.4858 108.649 90.2036 108.749 89.8384 108.749C89.4731 108.749 89.1909 108.649 88.9917 108.45C88.798 108.245 88.7012 107.99 88.7012 107.686ZM96.7363 117.556C97.2399 117.556 97.6577 117.409 97.9897 117.116C98.3218 116.822 98.4989 116.46 98.521 116.028H100.422C100.4 116.587 100.225 117.11 99.8989 117.597C99.5724 118.079 99.1297 118.46 98.5708 118.743C98.0119 119.025 97.4087 119.166 96.7612 119.166C95.505 119.166 94.509 118.759 93.7729 117.946C93.0369 117.132 92.6689 116.009 92.6689 114.576V114.368C92.6689 113.001 93.0342 111.908 93.7646 111.089C94.4951 110.265 95.4912 109.853 96.7529 109.853C97.821 109.853 98.6898 110.165 99.3594 110.791C100.035 111.41 100.389 112.227 100.422 113.239H98.521C98.4989 112.725 98.3218 112.301 97.9897 111.969C97.6632 111.637 97.2454 111.471 96.7363 111.471C96.0833 111.471 95.5798 111.709 95.2256 112.185C94.8714 112.655 94.6916 113.372 94.686 114.335V114.659C94.686 115.633 94.8604 116.36 95.209 116.842C95.5632 117.318 96.0723 117.556 96.7363 117.556ZM104.091 119H102.074V110.019H104.091V119ZM101.949 107.686C101.949 107.376 102.046 107.119 102.24 106.914C102.439 106.709 102.721 106.607 103.086 106.607C103.452 106.607 103.734 106.709 103.933 106.914C104.132 107.119 104.232 107.376 104.232 107.686C104.232 107.99 104.132 108.245 103.933 108.45C103.734 108.649 103.452 108.749 103.086 108.749C102.721 108.749 102.439 108.649 102.24 108.45C102.046 108.245 101.949 107.99 101.949 107.686ZM108.167 110.019L108.225 111.056C108.889 110.254 109.76 109.853 110.839 109.853C112.71 109.853 113.662 110.923 113.695 113.065V119H111.678V113.181C111.678 112.611 111.553 112.191 111.304 111.919C111.061 111.643 110.66 111.504 110.101 111.504C109.287 111.504 108.681 111.872 108.283 112.608V119H106.266V110.019H108.167ZM119.713 119.166C118.435 119.166 117.397 118.765 116.6 117.962C115.809 117.154 115.413 116.081 115.413 114.742V114.493C115.413 113.596 115.585 112.797 115.928 112.094C116.276 111.385 116.763 110.835 117.389 110.442C118.014 110.049 118.711 109.853 119.48 109.853C120.703 109.853 121.647 110.243 122.311 111.023C122.981 111.803 123.315 112.907 123.315 114.335V115.148H117.447C117.508 115.89 117.754 116.477 118.186 116.908C118.623 117.34 119.171 117.556 119.829 117.556C120.753 117.556 121.506 117.182 122.087 116.435L123.174 117.473C122.815 118.009 122.333 118.427 121.73 118.726C121.132 119.019 120.46 119.166 119.713 119.166ZM119.472 111.471C118.919 111.471 118.471 111.665 118.127 112.052C117.79 112.44 117.574 112.979 117.48 113.671H121.323V113.521C121.279 112.846 121.099 112.337 120.784 111.994C120.468 111.646 120.031 111.471 119.472 111.471Z" fill="#262626"/>
<path d="M109.18 0H67.82C67.0721 0 66.3548 0.297106 65.826 0.825959C65.2971 1.35481 65 2.07209 65 2.82V38.54C65 39.2879 65.2971 40.0052 65.826 40.534C66.3548 41.0629 67.0721 41.36 67.82 41.36H109.18C109.928 41.36 110.645 41.0629 111.174 40.534C111.703 40.0052 112 39.2879 112 38.54V2.82C112 2.07209 111.703 1.35481 111.174 0.825959C110.645 0.297106 109.928 0 109.18 0ZM67.82 1.88H109.18C109.429 1.88 109.668 1.97904 109.845 2.15532C110.021 2.3316 110.12 2.5707 110.12 2.82V5.64H66.88V2.82C66.88 2.5707 66.979 2.3316 67.1553 2.15532C67.3316 1.97904 67.5707 1.88 67.82 1.88ZM109.18 39.48H67.82C67.5707 39.48 67.3316 39.381 67.1553 39.2047C66.979 39.0284 66.88 38.7893 66.88 38.54V7.52H110.12V38.54C110.12 38.7893 110.021 39.0284 109.845 39.2047C109.668 39.381 109.429 39.48 109.18 39.48Z" fill="#666666"/>
<path d="M103.54 11.2798H93.1999C92.452 11.2798 91.7347 11.5769 91.2058 12.1057C90.677 12.6346 90.3799 13.3519 90.3799 14.0998V15.9798C90.3799 16.7277 90.677 17.445 91.2058 17.9738C91.7347 18.5027 92.452 18.7998 93.1999 18.7998H103.54C104.288 18.7998 105.005 18.5027 105.534 17.9738C106.063 17.445 106.36 16.7277 106.36 15.9798V14.0998C106.36 13.3519 106.063 12.6346 105.534 12.1057C105.005 11.5769 104.288 11.2798 103.54 11.2798ZM104.48 15.9798C104.48 16.2291 104.381 16.4682 104.205 16.6445C104.028 16.8208 103.789 16.9198 103.54 16.9198H93.1999C92.9506 16.9198 92.7115 16.8208 92.5352 16.6445C92.3589 16.4682 92.2599 16.2291 92.2599 15.9798V14.0998C92.2599 13.8505 92.3589 13.6114 92.5352 13.4351C92.7115 13.2588 92.9506 13.1598 93.1999 13.1598H103.54C103.789 13.1598 104.028 13.2588 104.205 13.4351C104.381 13.6114 104.48 13.8505 104.48 14.0998V15.9798Z" fill="#666666"/>
<path d="M85.6801 11.2798H71.5801C71.3308 11.2798 71.0917 11.3788 70.9155 11.5551C70.7392 11.7314 70.6401 11.9705 70.6401 12.2198C70.6401 12.4691 70.7392 12.7082 70.9155 12.8845C71.0917 13.0607 71.3308 13.1598 71.5801 13.1598H85.6801C85.9294 13.1598 86.1685 13.0607 86.3448 12.8845C86.5211 12.7082 86.6201 12.4691 86.6201 12.2198C86.6201 11.9705 86.5211 11.7314 86.3448 11.5551C86.1685 11.3788 85.9294 11.2798 85.6801 11.2798Z" fill="#666666"/>
<path d="M85.6801 16.9199H71.5801C71.3308 16.9199 71.0917 17.019 70.9155 17.1952C70.7392 17.3715 70.6401 17.6106 70.6401 17.8599C70.6401 18.1092 70.7392 18.3483 70.9155 18.5246C71.0917 18.7009 71.3308 18.7999 71.5801 18.7999H85.6801C85.9294 18.7999 86.1685 18.7009 86.3448 18.5246C86.5211 18.3483 86.6201 18.1092 86.6201 17.8599C86.6201 17.6106 86.5211 17.3715 86.3448 17.1952C86.1685 17.019 85.9294 16.9199 85.6801 16.9199Z" fill="#666666"/>
<path d="M85.6801 22.5601H71.5801C71.3308 22.5601 71.0917 22.6591 70.9155 22.8354C70.7392 23.0117 70.6401 23.2508 70.6401 23.5001C70.6401 23.7494 70.7392 23.9885 70.9155 24.1647C71.0917 24.341 71.3308 24.4401 71.5801 24.4401H85.6801C85.9294 24.4401 86.1685 24.341 86.3448 24.1647C86.5211 23.9885 86.6201 23.7494 86.6201 23.5001C86.6201 23.2508 86.5211 23.0117 86.3448 22.8354C86.1685 22.6591 85.9294 22.5601 85.6801 22.5601Z" fill="#666666"/>
<path d="M85.6801 28.2002H71.5801C71.3308 28.2002 71.0917 28.2992 70.9155 28.4755C70.7392 28.6518 70.6401 28.8909 70.6401 29.1402C70.6401 29.3895 70.7392 29.6286 70.9155 29.8049C71.0917 29.9812 71.3308 30.0802 71.5801 30.0802H85.6801C85.9294 30.0802 86.1685 29.9812 86.3448 29.8049C86.5211 29.6286 86.6201 29.3895 86.6201 29.1402C86.6201 28.8909 86.5211 28.6518 86.3448 28.4755C86.1685 28.2992 85.9294 28.2002 85.6801 28.2002Z" fill="#666666"/>
</svg>
