<svg width="18" height="18" viewBox="0 0 18 18" fill="none" xmlns="http://www.w3.org/2000/svg">
<path d="M16.8566 10.2414H14.789V8.17392C14.789 7.71717 14.4188 7.34691 13.962 7.34691H12.308C11.8513 7.34691 11.481 7.71717 11.481 8.17392V10.2414H10.7231C10.0946 9.65931 9.35211 9.21395 8.54265 8.93352C10.4337 7.99393 11.4295 5.87639 10.9469 3.82061C10.4644 1.76483 8.63041 0.311523 6.51875 0.311523C4.4071 0.311523 2.57314 1.76483 2.09058 3.82061C1.60801 5.87639 2.60376 7.99393 4.49486 8.93352C1.99779 9.79771 0.321198 12.1476 0.316406 14.79V16.444C0.316406 17.1291 0.871802 17.6845 1.55692 17.6845H11.481C12.1661 17.6845 12.7215 17.1291 12.7215 16.444H13.962C14.4188 16.444 14.789 16.0737 14.789 15.617V13.5495H16.8566C17.3133 13.5495 17.6836 13.1792 17.6836 12.7225V11.0684C17.6836 10.6117 17.3133 10.2414 16.8566 10.2414ZM2.79743 4.86589C2.79743 2.81054 4.46361 1.14435 6.51896 1.14435C8.57431 1.14435 10.2405 2.81054 10.2405 4.86589C10.2405 6.92123 8.57431 8.58742 6.51896 8.58742C4.46456 8.58514 2.79971 6.92029 2.79743 4.86589ZM11.481 16.8575H1.55692C1.32855 16.8575 1.14341 16.6724 1.14341 16.444V14.79C1.14085 12.8323 2.20411 11.0285 3.91812 10.0826C5.63213 9.13675 7.72511 9.19888 9.37999 10.2447C8.93766 10.2627 8.58789 10.6257 8.58648 11.0684V12.7225C8.58648 13.1792 8.95674 13.5495 9.41349 13.5495H11.481V15.617C11.4819 15.9111 11.6395 16.1825 11.8945 16.329V16.444C11.8945 16.6724 11.7094 16.8575 11.481 16.8575ZM16.8566 12.7225H14.789C14.3323 12.7225 13.962 13.0927 13.962 13.5495V15.617H12.308V13.5495C12.308 13.0927 11.9377 12.7225 11.481 12.7225H9.41349V11.0684H11.481C11.9377 11.0684 12.308 10.6982 12.308 10.2414V8.17392H13.962V10.2414C13.962 10.6982 14.3323 11.0684 14.789 11.0684H16.8566V12.7225Z" fill="#333333"/>
</svg>
