<svg width="18" height="18" viewBox="0 0 18 18" fill="none" xmlns="http://www.w3.org/2000/svg">
<path d="M15.9793 3.4873H2.02226C1.65617 3.48775 1.30521 3.63339 1.04638 3.89228C0.787546 4.15117 0.641974 4.50216 0.641602 4.86824V13.1318C0.641974 13.4979 0.787546 13.8489 1.04638 14.1077C1.30521 14.3666 1.65617 14.5123 2.02226 14.5127H15.9793C16.3454 14.5123 16.6963 14.3666 16.9552 14.1077C17.214 13.8489 17.3596 13.4979 17.3599 13.1318V4.86782C17.3595 4.50181 17.2138 4.15093 16.955 3.89213C16.6962 3.63334 16.3453 3.48775 15.9793 3.4873ZM16.8678 4.86824V5.9533H14.2215V3.97949H15.9793C16.2148 3.97979 16.4406 4.07347 16.6072 4.24C16.7737 4.40652 16.8674 4.6323 16.8678 4.86782V4.86824ZM11.83 3.97949H13.7293V7.53337L12.9536 6.75782C12.9075 6.71171 12.8449 6.6858 12.7796 6.6858C12.7144 6.6858 12.6518 6.71171 12.6057 6.75782L11.83 7.53337V3.97949ZM2.02226 3.97949H11.3378V5.95288H1.13379V4.86782C1.13412 4.6323 1.22784 4.40652 1.39439 4.24C1.56095 4.07347 1.78674 3.97979 2.02226 3.97949ZM15.9793 14.0201H2.02226C1.78666 14.0198 1.56081 13.9261 1.39425 13.7595C1.22768 13.5928 1.13401 13.367 1.13379 13.1314V6.44507H11.3378V8.12793C11.3378 8.1766 11.3522 8.22417 11.3793 8.26464C11.4063 8.30511 11.4447 8.33666 11.4897 8.35529C11.5346 8.37392 11.5841 8.37881 11.6319 8.36933C11.6796 8.35985 11.7234 8.33642 11.7579 8.30202L12.7796 7.28038L13.8014 8.30202C13.8359 8.33642 13.8797 8.35985 13.9274 8.36933C13.9752 8.37881 14.0246 8.37392 14.0696 8.35529C14.1146 8.33666 14.153 8.30511 14.18 8.26464C14.2071 8.22417 14.2215 8.1766 14.2215 8.12793V6.44507H16.8678V13.1318C16.8674 13.3673 16.7737 13.5931 16.6072 13.7596C16.4406 13.9261 16.2148 14.0198 15.9793 14.0201Z" fill="#333333"/>
<path d="M7.02588 7.88135H2.81543C2.75016 7.88135 2.68757 7.90728 2.64142 7.95343C2.59526 7.99958 2.56934 8.06217 2.56934 8.12744V12.3379C2.56932 12.3702 2.57567 12.4022 2.58803 12.4321C2.60039 12.462 2.61852 12.4891 2.64137 12.512C2.66423 12.5348 2.69137 12.5529 2.72123 12.5653C2.7511 12.5777 2.78311 12.584 2.81543 12.584H7.02588C7.05821 12.584 7.09021 12.5777 7.12008 12.5653C7.14995 12.5529 7.17708 12.5348 7.19994 12.512C7.22279 12.4891 7.24092 12.462 7.25328 12.4321C7.26564 12.4022 7.272 12.3702 7.27198 12.3379V8.12786C7.27203 8.09551 7.26571 8.06346 7.25337 8.03356C7.24102 8.00365 7.2229 7.97647 7.20005 7.95358C7.17719 7.93068 7.15004 7.91251 7.12016 7.90012C7.09027 7.88773 7.05824 7.88135 7.02588 7.88135ZM4.4277 9.82001C4.4277 9.72266 4.45656 9.6275 4.51064 9.54656C4.56473 9.46562 4.6416 9.40254 4.73153 9.36529C4.82147 9.32803 4.92043 9.31829 5.0159 9.33728C5.11138 9.35627 5.19908 9.40315 5.26791 9.47198C5.33675 9.54081 5.38362 9.62851 5.40261 9.72399C5.4216 9.81946 5.41186 9.91843 5.3746 10.0084C5.33735 10.0983 5.27427 10.1752 5.19333 10.2292C5.11239 10.2833 5.01723 10.3122 4.91988 10.3122C4.78945 10.3119 4.66445 10.2599 4.57222 10.1677C4.47999 10.0754 4.42803 9.95044 4.4277 9.82001ZM4.91988 10.8044C5.14194 10.8046 5.35482 10.893 5.51184 11.05C5.66886 11.207 5.75718 11.4199 5.75745 11.642V12.0911H4.08302V11.6427C4.08328 11.4206 4.17161 11.2077 4.32863 11.0507C4.48564 10.8937 4.69853 10.8054 4.92059 10.8051L4.91988 10.8044ZM6.77909 12.0911H6.25034V11.6427C6.25008 11.4163 6.19198 11.1937 6.08155 10.9961C5.97112 10.7984 5.81202 10.6323 5.61935 10.5134C5.75649 10.3754 5.84969 10.1999 5.88719 10.009C5.92469 9.81805 5.90482 9.62031 5.83008 9.44067C5.75534 9.26104 5.62907 9.10756 5.46722 8.99959C5.30536 8.89163 5.11515 8.83401 4.92059 8.83401C4.72602 8.83401 4.53582 8.89163 4.37396 8.99959C4.2121 9.10756 4.08583 9.26104 4.01109 9.44067C3.93635 9.62031 3.91648 9.81805 3.95398 10.009C3.99148 10.1999 4.08468 10.3754 4.22182 10.5134C4.02917 10.6323 3.87009 10.7985 3.75966 10.9961C3.64923 11.1937 3.59112 11.4163 3.59084 11.6427V12.0918H3.06152V8.37354H6.77979L6.77909 12.0911Z" fill="#333333"/>
<path d="M15.1854 12.0918H9.22656C9.1613 12.0918 9.0987 12.1177 9.05255 12.1639C9.0064 12.21 8.98047 12.2726 8.98047 12.3379C8.98047 12.4032 9.0064 12.4658 9.05255 12.5119C9.0987 12.5581 9.1613 12.584 9.22656 12.584H15.1854C15.2507 12.584 15.3133 12.5581 15.3594 12.5119C15.4056 12.4658 15.4315 12.4032 15.4315 12.3379C15.4315 12.2726 15.4056 12.21 15.3594 12.1639C15.3133 12.1177 15.2507 12.0918 15.1854 12.0918Z" fill="#333333"/>
<path d="M15.1854 10.6831H9.22656C9.1613 10.6831 9.0987 10.709 9.05255 10.7552C9.0064 10.8013 8.98047 10.8639 8.98047 10.9292C8.98047 10.9945 9.0064 11.0571 9.05255 11.1032C9.0987 11.1494 9.1613 11.1753 9.22656 11.1753H15.1854C15.2507 11.1753 15.3133 11.1494 15.3594 11.1032C15.4056 11.0571 15.4315 10.9945 15.4315 10.9292C15.4315 10.8639 15.4056 10.8013 15.3594 10.7552C15.3133 10.709 15.2507 10.6831 15.1854 10.6831Z" fill="#333333"/>
<path d="M15.1854 9.26221H9.22656C9.1613 9.26221 9.0987 9.28813 9.05255 9.33429C9.0064 9.38044 8.98047 9.44303 8.98047 9.5083C8.98047 9.57357 9.0064 9.63616 9.05255 9.68231C9.0987 9.72847 9.1613 9.75439 9.22656 9.75439H15.1854C15.2507 9.75439 15.3133 9.72847 15.3594 9.68231C15.4056 9.63616 15.4315 9.57357 15.4315 9.5083C15.4315 9.44303 15.4056 9.38044 15.3594 9.33429C15.3133 9.28813 15.2507 9.26221 15.1854 9.26221Z" fill="#333333"/>
</svg>
