<svg width="178" height="149" viewBox="0 0 178 149" fill="none" xmlns="http://www.w3.org/2000/svg">
<path d="M11.4707 92.3433H9.12988V97H7.02979V84.9141H11.2798C12.6743 84.9141 13.7507 85.2267 14.5088 85.8521C15.2669 86.4774 15.646 87.3822 15.646 88.5664C15.646 89.3743 15.4495 90.0522 15.0566 90.6001C14.6693 91.1424 14.127 91.5602 13.4297 91.8535L16.144 96.8921V97H13.8945L11.4707 92.3433ZM9.12988 90.6582H11.2881C11.9964 90.6582 12.5498 90.4811 12.9482 90.127C13.3467 89.7673 13.5459 89.2775 13.5459 88.6577C13.5459 88.0103 13.3605 87.5094 12.9897 87.1553C12.6245 86.8011 12.0767 86.6185 11.3462 86.6074H9.12988V90.6582ZM21.3984 97.166C20.1201 97.166 19.0825 96.7648 18.2856 95.9624C17.4943 95.1545 17.0986 94.0809 17.0986 92.7417V92.4927C17.0986 91.5962 17.2702 90.7965 17.6133 90.0938C17.9619 89.3854 18.4489 88.8348 19.0742 88.4419C19.6995 88.049 20.3968 87.8525 21.166 87.8525C22.389 87.8525 23.3325 88.2427 23.9966 89.0229C24.6662 89.8032 25.001 90.9072 25.001 92.335V93.1484H19.1323C19.1932 93.89 19.4395 94.4766 19.8711 94.9082C20.3083 95.3398 20.8561 95.5557 21.5146 95.5557C22.4388 95.5557 23.1914 95.1821 23.7725 94.4351L24.8599 95.4727C24.5002 96.0094 24.0187 96.4272 23.4155 96.7261C22.8179 97.0194 22.1455 97.166 21.3984 97.166ZM21.1577 89.4712C20.6043 89.4712 20.1561 89.6649 19.813 90.0522C19.4754 90.4396 19.2596 90.9792 19.1655 91.6709H23.0088V91.5215C22.9645 90.8464 22.7847 90.3372 22.4692 89.9941C22.1538 89.6455 21.7166 89.4712 21.1577 89.4712ZM26.1963 92.4346C26.1963 91.029 26.5173 89.9139 27.1592 89.0894C27.8011 88.2648 28.6699 87.8525 29.7656 87.8525C30.7673 87.8525 31.5614 88.2039 32.1479 88.9067L32.2642 88.0186H34.0571V100.453H32.04V96.2363C31.4535 96.8561 30.6898 97.166 29.749 97.166C28.6755 97.166 27.8149 96.7482 27.1675 95.9126C26.52 95.0715 26.1963 93.9121 26.1963 92.4346ZM28.2134 92.6089C28.2134 93.5275 28.3932 94.2497 28.7529 94.7754C29.1182 95.2956 29.6217 95.5557 30.2637 95.5557C31.0605 95.5557 31.6527 95.2153 32.04 94.5347V90.4507C31.6527 89.7977 31.0661 89.4712 30.2803 89.4712C29.6383 89.4712 29.132 89.7285 28.7612 90.2432C28.396 90.7578 28.2134 91.5464 28.2134 92.6089ZM41.6772 96.1201C41.0851 96.8174 40.244 97.166 39.1538 97.166C38.1799 97.166 37.4411 96.881 36.9375 96.311C36.4395 95.741 36.1904 94.9165 36.1904 93.8374V88.0186H38.2075V93.8125C38.2075 94.9525 38.6807 95.5225 39.627 95.5225C40.6064 95.5225 41.2677 95.1711 41.6108 94.4683V88.0186H43.6279V97H41.7271L41.6772 96.1201ZM49.6377 97.166C48.3594 97.166 47.3218 96.7648 46.5249 95.9624C45.7336 95.1545 45.3379 94.0809 45.3379 92.7417V92.4927C45.3379 91.5962 45.5094 90.7965 45.8525 90.0938C46.2012 89.3854 46.6882 88.8348 47.3135 88.4419C47.9388 88.049 48.6361 87.8525 49.4053 87.8525C50.6283 87.8525 51.5718 88.2427 52.2358 89.0229C52.9054 89.8032 53.2402 90.9072 53.2402 92.335V93.1484H47.3716C47.4325 93.89 47.6787 94.4766 48.1104 94.9082C48.5475 95.3398 49.0954 95.5557 49.7539 95.5557C50.6781 95.5557 51.4307 95.1821 52.0117 94.4351L53.0991 95.4727C52.7394 96.0094 52.258 96.4272 51.6548 96.7261C51.0571 97.0194 50.3848 97.166 49.6377 97.166ZM49.397 89.4712C48.8436 89.4712 48.3953 89.6649 48.0522 90.0522C47.7147 90.4396 47.4989 90.9792 47.4048 91.6709H51.248V91.5215C51.2038 90.8464 51.0239 90.3372 50.7085 89.9941C50.3931 89.6455 49.9559 89.4712 49.397 89.4712ZM59.8477 94.5596C59.8477 94.1999 59.6982 93.9259 59.3994 93.7378C59.1061 93.5496 58.6164 93.3836 57.9302 93.2397C57.244 93.0959 56.6712 92.9132 56.2119 92.6919C55.2048 92.2049 54.7012 91.4993 54.7012 90.5752C54.7012 89.8005 55.0277 89.153 55.6807 88.6328C56.3337 88.1126 57.1637 87.8525 58.1709 87.8525C59.2445 87.8525 60.1105 88.1182 60.769 88.6494C61.4331 89.1807 61.7651 89.8696 61.7651 90.7163H59.748C59.748 90.3289 59.6042 90.008 59.3164 89.7534C59.0286 89.4933 58.6468 89.3633 58.1709 89.3633C57.7282 89.3633 57.3657 89.4657 57.0835 89.6704C56.8068 89.8752 56.6685 90.1491 56.6685 90.4922C56.6685 90.8021 56.7985 91.0428 57.0586 91.2144C57.3187 91.3859 57.8444 91.5602 58.6357 91.7373C59.4271 91.9089 60.0469 92.1164 60.4951 92.3599C60.9489 92.5978 61.2837 92.8856 61.4995 93.2231C61.7209 93.5607 61.8315 93.9702 61.8315 94.4517C61.8315 95.2596 61.4967 95.9154 60.8271 96.4189C60.1576 96.917 59.2804 97.166 58.1958 97.166C57.4598 97.166 56.804 97.0332 56.2285 96.7676C55.653 96.502 55.2048 96.1367 54.8838 95.6719C54.5628 95.207 54.4023 94.7062 54.4023 94.1694H56.3613C56.389 94.6453 56.5688 95.0133 56.9009 95.2734C57.2329 95.528 57.6729 95.6553 58.2207 95.6553C58.752 95.6553 59.1559 95.5557 59.4326 95.3564C59.7093 95.1517 59.8477 94.8861 59.8477 94.5596ZM66.123 85.8354V88.0186H67.7085V89.5127H66.123V94.5264C66.123 94.8695 66.1895 95.1185 66.3223 95.2734C66.4606 95.4229 66.7041 95.4976 67.0527 95.4976C67.2852 95.4976 67.5203 95.4699 67.7583 95.4146V96.9751C67.299 97.1024 66.8563 97.166 66.4302 97.166C64.8807 97.166 64.106 96.311 64.106 94.6011V89.5127H62.6284V88.0186H64.106V85.8354H66.123ZM77.4453 97.166C76.167 97.166 75.1294 96.7648 74.3325 95.9624C73.5412 95.1545 73.1455 94.0809 73.1455 92.7417V92.4927C73.1455 91.5962 73.3171 90.7965 73.6602 90.0938C74.0088 89.3854 74.4958 88.8348 75.1211 88.4419C75.7464 88.049 76.4437 87.8525 77.2129 87.8525C78.4359 87.8525 79.3794 88.2427 80.0435 89.0229C80.7131 89.8032 81.0479 90.9072 81.0479 92.335V93.1484H75.1792C75.2401 93.89 75.4863 94.4766 75.918 94.9082C76.3551 95.3398 76.903 95.5557 77.5615 95.5557C78.4857 95.5557 79.2383 95.1821 79.8193 94.4351L80.9067 95.4727C80.547 96.0094 80.0656 96.4272 79.4624 96.7261C78.8647 97.0194 78.1924 97.166 77.4453 97.166ZM77.2046 89.4712C76.6512 89.4712 76.203 89.6649 75.8599 90.0522C75.5223 90.4396 75.3065 90.9792 75.2124 91.6709H79.0557V91.5215C79.0114 90.8464 78.8315 90.3372 78.5161 89.9941C78.2007 89.6455 77.7635 89.4712 77.2046 89.4712ZM84.4927 88.0186L84.5508 89.0562C85.2148 88.2537 86.0864 87.8525 87.1655 87.8525C89.036 87.8525 89.9878 88.9233 90.021 91.0649V97H88.0039V91.1812C88.0039 90.6112 87.8794 90.1906 87.6304 89.9194C87.3869 89.6427 86.9857 89.5044 86.4268 89.5044C85.6133 89.5044 85.0073 89.8724 84.6089 90.6084V97H82.5918V88.0186H84.4927ZM96.7861 89.8613C96.5205 89.8171 96.2466 89.7949 95.9644 89.7949C95.0402 89.7949 94.4176 90.1491 94.0967 90.8574V97H92.0796V88.0186H94.0054L94.0552 89.0229C94.5422 88.2427 95.2173 87.8525 96.0806 87.8525C96.3683 87.8525 96.6063 87.8913 96.7944 87.9688L96.7861 89.8613ZM97.3838 92.4263C97.3838 91.5464 97.5581 90.755 97.9067 90.0522C98.2554 89.3439 98.7451 88.8016 99.376 88.4253C100.007 88.0435 100.732 87.8525 101.551 87.8525C102.763 87.8525 103.745 88.2427 104.498 89.0229C105.256 89.8032 105.665 90.8381 105.726 92.1274L105.734 92.6006C105.734 93.486 105.563 94.2773 105.22 94.9746C104.882 95.6719 104.395 96.2114 103.759 96.5933C103.128 96.9751 102.397 97.166 101.567 97.166C100.3 97.166 99.2847 96.7454 98.521 95.9043C97.7629 95.0576 97.3838 93.9315 97.3838 92.5259V92.4263ZM99.4009 92.6006C99.4009 93.5247 99.5918 94.2497 99.9736 94.7754C100.355 95.2956 100.887 95.5557 101.567 95.5557C102.248 95.5557 102.777 95.29 103.153 94.7588C103.535 94.2275 103.726 93.45 103.726 92.4263C103.726 91.5187 103.529 90.7993 103.136 90.2681C102.749 89.7368 102.22 89.4712 101.551 89.4712C100.892 89.4712 100.369 89.734 99.9819 90.2598C99.5946 90.7799 99.4009 91.5602 99.4009 92.6006ZM109.586 97H107.569V84.25H109.586V97ZM113.936 97H111.918V84.25H113.936V97ZM118.036 88.0186L118.094 88.9565C118.725 88.2205 119.588 87.8525 120.684 87.8525C121.885 87.8525 122.707 88.3118 123.149 89.2305C123.802 88.3118 124.721 87.8525 125.905 87.8525C126.896 87.8525 127.632 88.1265 128.113 88.6743C128.6 89.2222 128.849 90.0301 128.86 91.0981V97H126.843V91.1562C126.843 90.5863 126.719 90.1685 126.47 89.9028C126.221 89.6372 125.808 89.5044 125.233 89.5044C124.774 89.5044 124.397 89.6289 124.104 89.8779C123.816 90.1214 123.614 90.4424 123.498 90.8408L123.506 97H121.489V91.0898C121.462 90.0329 120.922 89.5044 119.871 89.5044C119.063 89.5044 118.49 89.8337 118.152 90.4922V97H116.135V88.0186H118.036ZM134.887 97.166C133.608 97.166 132.571 96.7648 131.774 95.9624C130.983 95.1545 130.587 94.0809 130.587 92.7417V92.4927C130.587 91.5962 130.758 90.7965 131.102 90.0938C131.45 89.3854 131.937 88.8348 132.562 88.4419C133.188 88.049 133.885 87.8525 134.654 87.8525C135.877 87.8525 136.821 88.2427 137.485 89.0229C138.154 89.8032 138.489 90.9072 138.489 92.335V93.1484H132.621C132.681 93.89 132.928 94.4766 133.359 94.9082C133.797 95.3398 134.344 95.5557 135.003 95.5557C135.927 95.5557 136.68 95.1821 137.261 94.4351L138.348 95.4727C137.988 96.0094 137.507 96.4272 136.904 96.7261C136.306 97.0194 135.634 97.166 134.887 97.166ZM134.646 89.4712C134.093 89.4712 133.644 89.6649 133.301 90.0522C132.964 90.4396 132.748 90.9792 132.654 91.6709H136.497V91.5215C136.453 90.8464 136.273 90.3372 135.958 89.9941C135.642 89.6455 135.205 89.4712 134.646 89.4712ZM141.934 88.0186L141.992 89.0562C142.656 88.2537 143.528 87.8525 144.607 87.8525C146.477 87.8525 147.429 88.9233 147.462 91.0649V97H145.445V91.1812C145.445 90.6112 145.321 90.1906 145.072 89.9194C144.828 89.6427 144.427 89.5044 143.868 89.5044C143.055 89.5044 142.449 89.8724 142.05 90.6084V97H140.033V88.0186H141.934ZM152.053 85.8354V88.0186H153.638V89.5127H152.053V94.5264C152.053 94.8695 152.119 95.1185 152.252 95.2734C152.39 95.4229 152.634 95.4976 152.982 95.4976C153.215 95.4976 153.45 95.4699 153.688 95.4146V96.9751C153.229 97.1024 152.786 97.166 152.36 97.166C150.81 97.166 150.036 96.311 150.036 94.6011V89.5127H148.558V88.0186H150.036V85.8354H152.053ZM161.565 97H159.548V88.0186H161.565V97ZM159.424 85.686C159.424 85.3761 159.521 85.1188 159.714 84.9141C159.914 84.7093 160.196 84.6069 160.561 84.6069C160.926 84.6069 161.208 84.7093 161.408 84.9141C161.607 85.1188 161.707 85.3761 161.707 85.686C161.707 85.9904 161.607 86.245 161.408 86.4497C161.208 86.6489 160.926 86.7485 160.561 86.7485C160.196 86.7485 159.914 86.6489 159.714 86.4497C159.521 86.245 159.424 85.9904 159.424 85.686ZM165.641 88.0186L165.699 89.0562C166.363 88.2537 167.235 87.8525 168.314 87.8525C170.184 87.8525 171.136 88.9233 171.169 91.0649V97H169.152V91.1812C169.152 90.6112 169.028 90.1906 168.779 89.9194C168.535 89.6427 168.134 89.5044 167.575 89.5044C166.762 89.5044 166.156 89.8724 165.757 90.6084V97H163.74V88.0186H165.641ZM44.8315 115.509V120H42.7314V107.914H47.355C48.7052 107.914 49.776 108.265 50.5674 108.968C51.3643 109.671 51.7627 110.601 51.7627 111.757C51.7627 112.942 51.3726 113.863 50.5923 114.521C49.8175 115.18 48.7301 115.509 47.3301 115.509H44.8315ZM44.8315 113.824H47.355C48.1021 113.824 48.672 113.65 49.0649 113.301C49.4578 112.947 49.6543 112.438 49.6543 111.774C49.6543 111.121 49.4551 110.601 49.0566 110.213C48.6582 109.82 48.1104 109.618 47.4131 109.607H44.8315V113.824ZM58.8931 117.186H54.2114L53.2319 120H51.0488L55.6143 107.914H57.4985L62.0723 120H59.8809L58.8931 117.186ZM54.8008 115.493H58.3037L56.5522 110.479L54.8008 115.493ZM65.5503 115.509V120H63.4502V107.914H68.0737C69.424 107.914 70.4948 108.265 71.2861 108.968C72.083 109.671 72.4814 110.601 72.4814 111.757C72.4814 112.942 72.0913 113.863 71.311 114.521C70.5363 115.18 69.4489 115.509 68.0488 115.509H65.5503ZM65.5503 113.824H68.0737C68.8208 113.824 69.3908 113.65 69.7837 113.301C70.1766 112.947 70.373 112.438 70.373 111.774C70.373 111.121 70.1738 110.601 69.7754 110.213C69.377 109.82 68.8291 109.618 68.1318 109.607H65.5503V113.824ZM79.0723 120V112.513H77.7026V111.019H79.0723V110.197C79.0723 109.201 79.349 108.431 79.9023 107.889C80.4557 107.347 81.2305 107.076 82.2266 107.076C82.5807 107.076 82.957 107.125 83.3555 107.225L83.3057 108.802C83.0843 108.758 82.827 108.736 82.5337 108.736C81.5708 108.736 81.0894 109.231 81.0894 110.222V111.019H82.9155V112.513H81.0894V120H79.0723ZM84.0112 115.426C84.0112 114.546 84.1855 113.755 84.5342 113.052C84.8828 112.344 85.3726 111.802 86.0034 111.425C86.6343 111.043 87.3592 110.853 88.1782 110.853C89.3901 110.853 90.3724 111.243 91.125 112.023C91.8831 112.803 92.2926 113.838 92.3535 115.127L92.3618 115.601C92.3618 116.486 92.1903 117.277 91.8472 117.975C91.5096 118.672 91.0226 119.211 90.3862 119.593C89.7554 119.975 89.0249 120.166 88.1948 120.166C86.9276 120.166 85.9121 119.745 85.1484 118.904C84.3903 118.058 84.0112 116.931 84.0112 115.526V115.426ZM86.0283 115.601C86.0283 116.525 86.2192 117.25 86.6011 117.775C86.9829 118.296 87.5142 118.556 88.1948 118.556C88.8755 118.556 89.404 118.29 89.7803 117.759C90.1621 117.228 90.353 116.45 90.353 115.426C90.353 114.519 90.1566 113.799 89.7637 113.268C89.3763 112.737 88.8478 112.471 88.1782 112.471C87.5197 112.471 86.9967 112.734 86.6094 113.26C86.222 113.78 86.0283 114.56 86.0283 115.601ZM98.77 112.861C98.5044 112.817 98.2305 112.795 97.9482 112.795C97.0241 112.795 96.4015 113.149 96.0806 113.857V120H94.0635V111.019H95.9893L96.0391 112.023C96.526 111.243 97.2012 110.853 98.0645 110.853C98.3522 110.853 98.5902 110.891 98.7783 110.969L98.77 112.861ZM107.419 117.111L109.246 111.019H111.396L107.826 121.361C107.278 122.872 106.349 123.627 105.037 123.627C104.744 123.627 104.42 123.578 104.066 123.478V121.917L104.448 121.942C104.957 121.942 105.339 121.848 105.593 121.66C105.853 121.478 106.058 121.168 106.208 120.73L106.498 119.958L103.344 111.019H105.519L107.419 117.111ZM112.051 115.426C112.051 114.546 112.226 113.755 112.574 113.052C112.923 112.344 113.413 111.802 114.043 111.425C114.674 111.043 115.399 110.853 116.218 110.853C117.43 110.853 118.412 111.243 119.165 112.023C119.923 112.803 120.333 113.838 120.394 115.127L120.402 115.601C120.402 116.486 120.23 117.277 119.887 117.975C119.55 118.672 119.063 119.211 118.426 119.593C117.795 119.975 117.065 120.166 116.235 120.166C114.968 120.166 113.952 119.745 113.188 118.904C112.43 118.058 112.051 116.931 112.051 115.526V115.426ZM114.068 115.601C114.068 116.525 114.259 117.25 114.641 117.775C115.023 118.296 115.554 118.556 116.235 118.556C116.916 118.556 117.444 118.29 117.82 117.759C118.202 117.228 118.393 116.45 118.393 115.426C118.393 114.519 118.197 113.799 117.804 113.268C117.416 112.737 116.888 112.471 116.218 112.471C115.56 112.471 115.037 112.734 114.649 113.26C114.262 113.78 114.068 114.56 114.068 115.601ZM127.549 119.12C126.957 119.817 126.116 120.166 125.025 120.166C124.051 120.166 123.313 119.881 122.809 119.311C122.311 118.741 122.062 117.917 122.062 116.837V111.019H124.079V116.812C124.079 117.952 124.552 118.522 125.499 118.522C126.478 118.522 127.139 118.171 127.482 117.468V111.019H129.5V120H127.599L127.549 119.12ZM136.256 112.861C135.991 112.817 135.717 112.795 135.435 112.795C134.51 112.795 133.888 113.149 133.567 113.857V120H131.55V111.019H133.476L133.525 112.023C134.012 111.243 134.688 110.853 135.551 110.853C135.839 110.853 136.076 110.891 136.265 110.969L136.256 112.861ZM15.2974 138.601C15.2974 139.99 14.9819 141.099 14.3511 141.929C13.7202 142.754 12.8735 143.166 11.811 143.166C10.826 143.166 10.0374 142.842 9.44531 142.195V146.453H7.42822V134.019H9.2876L9.37061 134.932C9.96273 134.212 10.7679 133.853 11.7861 133.853C12.8818 133.853 13.7396 134.262 14.3594 135.081C14.9847 135.895 15.2974 137.026 15.2974 138.476V138.601ZM13.2886 138.426C13.2886 137.53 13.1087 136.819 12.749 136.293C12.3949 135.767 11.8857 135.504 11.2217 135.504C10.3971 135.504 9.80501 135.845 9.44531 136.525V140.51C9.81055 141.207 10.4082 141.556 11.2383 141.556C11.8802 141.556 12.381 141.298 12.7407 140.784C13.106 140.264 13.2886 139.478 13.2886 138.426ZM21.7139 135.861C21.4482 135.817 21.1743 135.795 20.8921 135.795C19.9679 135.795 19.3454 136.149 19.0244 136.857V143H17.0073V134.019H18.9331L18.9829 135.023C19.4699 134.243 20.145 133.853 21.0083 133.853C21.2961 133.853 21.534 133.891 21.7222 133.969L21.7139 135.861ZM26.7773 143.166C25.499 143.166 24.4614 142.765 23.6646 141.962C22.8732 141.154 22.4775 140.081 22.4775 138.742V138.493C22.4775 137.596 22.6491 136.797 22.9922 136.094C23.3408 135.385 23.8278 134.835 24.4531 134.442C25.0785 134.049 25.7757 133.853 26.5449 133.853C27.7679 133.853 28.7114 134.243 29.3755 135.023C30.0451 135.803 30.3799 136.907 30.3799 138.335V139.148H24.5112C24.5721 139.89 24.8184 140.477 25.25 140.908C25.6872 141.34 26.235 141.556 26.8936 141.556C27.8177 141.556 28.5703 141.182 29.1514 140.435L30.2388 141.473C29.8791 142.009 29.3976 142.427 28.7944 142.726C28.1968 143.019 27.5244 143.166 26.7773 143.166ZM26.5366 135.471C25.9832 135.471 25.535 135.665 25.1919 136.052C24.8543 136.44 24.6385 136.979 24.5444 137.671H28.3877V137.521C28.3434 136.846 28.1636 136.337 27.8481 135.994C27.5327 135.646 27.0955 135.471 26.5366 135.471ZM36.9873 140.56C36.9873 140.2 36.8379 139.926 36.5391 139.738C36.2458 139.55 35.756 139.384 35.0698 139.24C34.3836 139.096 33.8109 138.913 33.3516 138.692C32.3444 138.205 31.8408 137.499 31.8408 136.575C31.8408 135.8 32.1673 135.153 32.8203 134.633C33.4733 134.113 34.3034 133.853 35.3105 133.853C36.3841 133.853 37.2502 134.118 37.9087 134.649C38.5728 135.181 38.9048 135.87 38.9048 136.716H36.8877C36.8877 136.329 36.7438 136.008 36.4561 135.753C36.1683 135.493 35.7865 135.363 35.3105 135.363C34.8678 135.363 34.5054 135.466 34.2231 135.67C33.9465 135.875 33.8081 136.149 33.8081 136.492C33.8081 136.802 33.9382 137.043 34.1982 137.214C34.4583 137.386 34.984 137.56 35.7754 137.737C36.5667 137.909 37.1865 138.116 37.6348 138.36C38.0885 138.598 38.4233 138.886 38.6392 139.223C38.8605 139.561 38.9712 139.97 38.9712 140.452C38.9712 141.26 38.6364 141.915 37.9668 142.419C37.2972 142.917 36.4201 143.166 35.3354 143.166C34.5994 143.166 33.9437 143.033 33.3682 142.768C32.7926 142.502 32.3444 142.137 32.0234 141.672C31.7025 141.207 31.542 140.706 31.542 140.169H33.501C33.5286 140.645 33.7085 141.013 34.0405 141.273C34.3726 141.528 34.8125 141.655 35.3604 141.655C35.8916 141.655 36.2956 141.556 36.5723 141.356C36.849 141.152 36.9873 140.886 36.9873 140.56ZM44.4248 141.556C44.9284 141.556 45.3462 141.409 45.6782 141.116C46.0103 140.822 46.1873 140.46 46.2095 140.028H48.1104C48.0882 140.587 47.9139 141.11 47.5874 141.597C47.2609 142.079 46.8182 142.46 46.2593 142.743C45.7004 143.025 45.0972 143.166 44.4497 143.166C43.1935 143.166 42.1974 142.759 41.4614 141.946C40.7254 141.132 40.3574 140.009 40.3574 138.576V138.368C40.3574 137.001 40.7227 135.908 41.4531 135.089C42.1836 134.265 43.1797 133.853 44.4414 133.853C45.5094 133.853 46.3783 134.165 47.0479 134.791C47.723 135.41 48.0771 136.227 48.1104 137.239H46.2095C46.1873 136.725 46.0103 136.301 45.6782 135.969C45.3517 135.637 44.9339 135.471 44.4248 135.471C43.7718 135.471 43.2682 135.709 42.9141 136.185C42.5599 136.655 42.38 137.372 42.3745 138.335V138.659C42.3745 139.633 42.5488 140.36 42.8975 140.842C43.2516 141.318 43.7607 141.556 44.4248 141.556ZM54.3359 135.861C54.0703 135.817 53.7964 135.795 53.5142 135.795C52.59 135.795 51.9674 136.149 51.6465 136.857V143H49.6294V134.019H51.5552L51.605 135.023C52.092 134.243 52.7671 133.853 53.6304 133.853C53.9181 133.853 54.1561 133.891 54.3442 133.969L54.3359 135.861ZM57.7559 143H55.7388V134.019H57.7559V143ZM55.6143 131.686C55.6143 131.376 55.7111 131.119 55.9048 130.914C56.104 130.709 56.3862 130.607 56.7515 130.607C57.1167 130.607 57.3989 130.709 57.5981 130.914C57.7974 131.119 57.897 131.376 57.897 131.686C57.897 131.99 57.7974 132.245 57.5981 132.45C57.3989 132.649 57.1167 132.749 56.7515 132.749C56.3862 132.749 56.104 132.649 55.9048 132.45C55.7111 132.245 55.6143 131.99 55.6143 131.686ZM67.8247 138.601C67.8247 139.99 67.5093 141.099 66.8784 141.929C66.2476 142.754 65.4009 143.166 64.3384 143.166C63.3534 143.166 62.5648 142.842 61.9727 142.195V146.453H59.9556V134.019H61.8149L61.8979 134.932C62.4901 134.212 63.2952 133.853 64.3135 133.853C65.4092 133.853 66.2669 134.262 66.8867 135.081C67.512 135.895 67.8247 137.026 67.8247 138.476V138.601ZM65.8159 138.426C65.8159 137.53 65.6361 136.819 65.2764 136.293C64.9222 135.767 64.4131 135.504 63.749 135.504C62.9245 135.504 62.3324 135.845 61.9727 136.525V140.51C62.3379 141.207 62.9355 141.556 63.7656 141.556C64.4076 141.556 64.9084 141.298 65.2681 140.784C65.6333 140.264 65.8159 139.478 65.8159 138.426ZM72.0664 131.835V134.019H73.6519V135.513H72.0664V140.526C72.0664 140.869 72.1328 141.118 72.2656 141.273C72.404 141.423 72.6475 141.498 72.9961 141.498C73.2285 141.498 73.4637 141.47 73.7017 141.415V142.975C73.2424 143.102 72.7996 143.166 72.3735 143.166C70.8241 143.166 70.0493 142.311 70.0493 140.601V135.513H68.5718V134.019H70.0493V131.835H72.0664ZM77.3457 143H75.3286V134.019H77.3457V143ZM75.2041 131.686C75.2041 131.376 75.3009 131.119 75.4946 130.914C75.6938 130.709 75.9761 130.607 76.3413 130.607C76.7065 130.607 76.9888 130.709 77.188 130.914C77.3872 131.119 77.4868 131.376 77.4868 131.686C77.4868 131.99 77.3872 132.245 77.188 132.45C76.9888 132.649 76.7065 132.749 76.3413 132.749C75.9761 132.749 75.6938 132.649 75.4946 132.45C75.3009 132.245 75.2041 131.99 75.2041 131.686ZM79.1719 138.426C79.1719 137.546 79.3462 136.755 79.6948 136.052C80.0435 135.344 80.5332 134.802 81.1641 134.425C81.7949 134.043 82.5199 133.853 83.3389 133.853C84.5508 133.853 85.533 134.243 86.2856 135.023C87.0438 135.803 87.4533 136.838 87.5142 138.127L87.5225 138.601C87.5225 139.486 87.3509 140.277 87.0078 140.975C86.6702 141.672 86.1833 142.211 85.5469 142.593C84.916 142.975 84.1855 143.166 83.3555 143.166C82.0882 143.166 81.0728 142.745 80.3091 141.904C79.5509 141.058 79.1719 139.931 79.1719 138.526V138.426ZM81.189 138.601C81.189 139.525 81.3799 140.25 81.7617 140.775C82.1436 141.296 82.6748 141.556 83.3555 141.556C84.0361 141.556 84.5646 141.29 84.9409 140.759C85.3228 140.228 85.5137 139.45 85.5137 138.426C85.5137 137.519 85.3172 136.799 84.9243 136.268C84.5369 135.737 84.0085 135.471 83.3389 135.471C82.6803 135.471 82.1574 135.734 81.77 136.26C81.3826 136.78 81.189 137.56 81.189 138.601ZM91.1001 134.019L91.1582 135.056C91.8223 134.254 92.6938 133.853 93.7729 133.853C95.6434 133.853 96.5952 134.923 96.6284 137.065V143H94.6113V137.181C94.6113 136.611 94.4868 136.191 94.2378 135.919C93.9943 135.643 93.5931 135.504 93.0342 135.504C92.2207 135.504 91.6147 135.872 91.2163 136.608V143H89.1992V134.019H91.1001ZM104.821 134.019L104.879 134.957C105.51 134.221 106.374 133.853 107.469 133.853C108.67 133.853 109.492 134.312 109.935 135.23C110.588 134.312 111.506 133.853 112.69 133.853C113.681 133.853 114.417 134.126 114.898 134.674C115.385 135.222 115.634 136.03 115.646 137.098V143H113.628V137.156C113.628 136.586 113.504 136.168 113.255 135.903C113.006 135.637 112.594 135.504 112.018 135.504C111.559 135.504 111.182 135.629 110.889 135.878C110.601 136.121 110.399 136.442 110.283 136.841L110.292 143H108.274V137.09C108.247 136.033 107.707 135.504 106.656 135.504C105.848 135.504 105.275 135.834 104.938 136.492V143H102.92V134.019H104.821ZM121.672 143.166C120.394 143.166 119.356 142.765 118.559 141.962C117.768 141.154 117.372 140.081 117.372 138.742V138.493C117.372 137.596 117.544 136.797 117.887 136.094C118.235 135.385 118.722 134.835 119.348 134.442C119.973 134.049 120.67 133.853 121.439 133.853C122.662 133.853 123.606 134.243 124.27 135.023C124.94 135.803 125.274 136.907 125.274 138.335V139.148H119.406C119.467 139.89 119.713 140.477 120.145 140.908C120.582 141.34 121.13 141.556 121.788 141.556C122.712 141.556 123.465 141.182 124.046 140.435L125.133 141.473C124.774 142.009 124.292 142.427 123.689 142.726C123.091 143.019 122.419 143.166 121.672 143.166ZM121.431 135.471C120.878 135.471 120.43 135.665 120.086 136.052C119.749 136.44 119.533 136.979 119.439 137.671H123.282V137.521C123.238 136.846 123.058 136.337 122.743 135.994C122.427 135.646 121.99 135.471 121.431 135.471ZM126.47 138.443C126.47 137.059 126.791 135.95 127.433 135.114C128.075 134.273 128.935 133.853 130.014 133.853C130.966 133.853 131.735 134.185 132.322 134.849V130.25H134.339V143H132.513L132.413 142.07C131.81 142.801 131.005 143.166 129.998 143.166C128.946 143.166 128.094 142.743 127.441 141.896C126.793 141.049 126.47 139.898 126.47 138.443ZM128.487 138.617C128.487 139.53 128.661 140.244 129.01 140.759C129.364 141.268 129.865 141.522 130.512 141.522C131.337 141.522 131.94 141.154 132.322 140.418V136.583C131.951 135.864 131.353 135.504 130.529 135.504C129.876 135.504 129.372 135.764 129.018 136.285C128.664 136.799 128.487 137.577 128.487 138.617ZM138.589 143H136.572V134.019H138.589V143ZM136.447 131.686C136.447 131.376 136.544 131.119 136.738 130.914C136.937 130.709 137.219 130.607 137.584 130.607C137.95 130.607 138.232 130.709 138.431 130.914C138.63 131.119 138.73 131.376 138.73 131.686C138.73 131.99 138.63 132.245 138.431 132.45C138.232 132.649 137.95 132.749 137.584 132.749C137.219 132.749 136.937 132.649 136.738 132.45C136.544 132.245 136.447 131.99 136.447 131.686ZM144.482 141.556C144.986 141.556 145.404 141.409 145.736 141.116C146.068 140.822 146.245 140.46 146.267 140.028H148.168C148.146 140.587 147.972 141.11 147.645 141.597C147.319 142.079 146.876 142.46 146.317 142.743C145.758 143.025 145.155 143.166 144.507 143.166C143.251 143.166 142.255 142.759 141.519 141.946C140.783 141.132 140.415 140.009 140.415 138.576V138.368C140.415 137.001 140.78 135.908 141.511 135.089C142.241 134.265 143.237 133.853 144.499 133.853C145.567 133.853 146.436 134.165 147.105 134.791C147.781 135.41 148.135 136.227 148.168 137.239H146.267C146.245 136.725 146.068 136.301 145.736 135.969C145.409 135.637 144.992 135.471 144.482 135.471C143.829 135.471 143.326 135.709 142.972 136.185C142.618 136.655 142.438 137.372 142.432 138.335V138.659C142.432 139.633 142.606 140.36 142.955 140.842C143.309 141.318 143.818 141.556 144.482 141.556ZM151.837 143H149.82V134.019H151.837V143ZM149.695 131.686C149.695 131.376 149.792 131.119 149.986 130.914C150.185 130.709 150.467 130.607 150.833 130.607C151.198 130.607 151.48 130.709 151.679 130.914C151.878 131.119 151.978 131.376 151.978 131.686C151.978 131.99 151.878 132.245 151.679 132.45C151.48 132.649 151.198 132.749 150.833 132.749C150.467 132.749 150.185 132.649 149.986 132.45C149.792 132.245 149.695 131.99 149.695 131.686ZM155.913 134.019L155.971 135.056C156.635 134.254 157.506 133.853 158.585 133.853C160.456 133.853 161.408 134.923 161.441 137.065V143H159.424V137.181C159.424 136.611 159.299 136.191 159.05 135.919C158.807 135.643 158.406 135.504 157.847 135.504C157.033 135.504 156.427 135.872 156.029 136.608V143H154.012V134.019H155.913ZM167.459 143.166C166.181 143.166 165.143 142.765 164.346 141.962C163.555 141.154 163.159 140.081 163.159 138.742V138.493C163.159 137.596 163.331 136.797 163.674 136.094C164.022 135.385 164.509 134.835 165.135 134.442C165.76 134.049 166.457 133.853 167.227 133.853C168.45 133.853 169.393 134.243 170.057 135.023C170.727 135.803 171.062 136.907 171.062 138.335V139.148H165.193C165.254 139.89 165.5 140.477 165.932 140.908C166.369 141.34 166.917 141.556 167.575 141.556C168.499 141.556 169.252 141.182 169.833 140.435L170.92 141.473C170.561 142.009 170.079 142.427 169.476 142.726C168.878 143.019 168.206 143.166 167.459 143.166ZM167.218 135.471C166.665 135.471 166.217 135.665 165.874 136.052C165.536 136.44 165.32 136.979 165.226 137.671H169.069V137.521C169.025 136.846 168.845 136.337 168.53 135.994C168.214 135.646 167.777 135.471 167.218 135.471Z" fill="#262626"/>
<path d="M109.18 0H67.82C67.0721 0 66.3548 0.297106 65.826 0.825959C65.2971 1.35481 65 2.07209 65 2.82V38.54C65 39.2879 65.2971 40.0052 65.826 40.534C66.3548 41.0629 67.0721 41.36 67.82 41.36H109.18C109.928 41.36 110.645 41.0629 111.174 40.534C111.703 40.0052 112 39.2879 112 38.54V2.82C112 2.07209 111.703 1.35481 111.174 0.825959C110.645 0.297106 109.928 0 109.18 0ZM67.82 1.88H109.18C109.429 1.88 109.668 1.97904 109.845 2.15532C110.021 2.3316 110.12 2.5707 110.12 2.82V5.64H66.88V2.82C66.88 2.5707 66.979 2.3316 67.1553 2.15532C67.3316 1.97904 67.5707 1.88 67.82 1.88ZM109.18 39.48H67.82C67.5707 39.48 67.3316 39.381 67.1553 39.2047C66.979 39.0284 66.88 38.7893 66.88 38.54V7.52H110.12V38.54C110.12 38.7893 110.021 39.0284 109.845 39.2047C109.668 39.381 109.429 39.48 109.18 39.48Z" fill="#666666"/>
<path d="M103.54 11.28H93.1999C92.452 11.28 91.7347 11.5771 91.2058 12.106C90.677 12.6348 90.3799 13.3521 90.3799 14.1V15.98C90.3799 16.7279 90.677 17.4452 91.2058 17.9741C91.7347 18.5029 92.452 18.8 93.1999 18.8H103.54C104.288 18.8 105.005 18.5029 105.534 17.9741C106.063 17.4452 106.36 16.7279 106.36 15.98V14.1C106.36 13.3521 106.063 12.6348 105.534 12.106C105.005 11.5771 104.288 11.28 103.54 11.28ZM104.48 15.98C104.48 16.2293 104.381 16.4684 104.205 16.6447C104.028 16.821 103.789 16.92 103.54 16.92H93.1999C92.9506 16.92 92.7115 16.821 92.5352 16.6447C92.3589 16.4684 92.2599 16.2293 92.2599 15.98V14.1C92.2599 13.8507 92.3589 13.6116 92.5352 13.4353C92.7115 13.2591 92.9506 13.16 93.1999 13.16H103.54C103.789 13.16 104.028 13.2591 104.205 13.4353C104.381 13.6116 104.48 13.8507 104.48 14.1V15.98Z" fill="#666666"/>
<path d="M85.6806 11.28H71.5806C71.3313 11.28 71.0922 11.3791 70.9159 11.5553C70.7397 11.7316 70.6406 11.9707 70.6406 12.22C70.6406 12.4693 70.7397 12.7084 70.9159 12.8847C71.0922 13.061 71.3313 13.16 71.5806 13.16H85.6806C85.9299 13.16 86.169 13.061 86.3453 12.8847C86.5216 12.7084 86.6206 12.4693 86.6206 12.22C86.6206 11.9707 86.5216 11.7316 86.3453 11.5553C86.169 11.3791 85.9299 11.28 85.6806 11.28Z" fill="#666666"/>
<path d="M85.6806 16.9202H71.5806C71.3313 16.9202 71.0922 17.0192 70.9159 17.1955C70.7397 17.3718 70.6406 17.6109 70.6406 17.8602C70.6406 18.1095 70.7397 18.3486 70.9159 18.5248C71.0922 18.7011 71.3313 18.8002 71.5806 18.8002H85.6806C85.9299 18.8002 86.169 18.7011 86.3453 18.5248C86.5216 18.3486 86.6206 18.1095 86.6206 17.8602C86.6206 17.6109 86.5216 17.3718 86.3453 17.1955C86.169 17.0192 85.9299 16.9202 85.6806 16.9202Z" fill="#666666"/>
<path d="M85.6806 22.5601H71.5806C71.3313 22.5601 71.0922 22.6591 70.9159 22.8354C70.7397 23.0117 70.6406 23.2508 70.6406 23.5001C70.6406 23.7494 70.7397 23.9885 70.9159 24.1647C71.0922 24.341 71.3313 24.4401 71.5806 24.4401H85.6806C85.9299 24.4401 86.169 24.341 86.3453 24.1647C86.5216 23.9885 86.6206 23.7494 86.6206 23.5001C86.6206 23.2508 86.5216 23.0117 86.3453 22.8354C86.169 22.6591 85.9299 22.5601 85.6806 22.5601Z" fill="#666666"/>
<path d="M85.6806 28.2H71.5806C71.3313 28.2 71.0922 28.299 70.9159 28.4753C70.7397 28.6516 70.6406 28.8906 70.6406 29.14C70.6406 29.3893 70.7397 29.6283 70.9159 29.8046C71.0922 29.9809 71.3313 30.08 71.5806 30.08H85.6806C85.9299 30.08 86.169 29.9809 86.3453 29.8046C86.5216 29.6283 86.6206 29.3893 86.6206 29.14C86.6206 28.8906 86.5216 28.6516 86.3453 28.4753C86.169 28.299 85.9299 28.2 85.6806 28.2Z" fill="#666666"/>
</svg>
