<svg width="129" height="128" viewBox="0 0 129 128" fill="none" xmlns="http://www.w3.org/2000/svg">
<path d="M5.78857 99V86.9141H9.35791C10.4259 86.9141 11.3722 87.152 12.1968 87.6279C13.0269 88.1038 13.6688 88.779 14.1226 89.6533C14.5763 90.5277 14.8032 91.5293 14.8032 92.6582V93.2642C14.8032 94.4097 14.5736 95.4168 14.1143 96.2856C13.6605 97.1545 13.0103 97.8241 12.1636 98.2944C11.3224 98.7648 10.3568 99 9.2666 99H5.78857ZM7.88867 88.6074V97.3232H9.2583C10.3595 97.3232 11.2035 96.9801 11.79 96.2939C12.3822 95.6022 12.6838 94.6117 12.6948 93.3223V92.6499C12.6948 91.3384 12.4098 90.3368 11.8398 89.645C11.2699 88.9533 10.4425 88.6074 9.35791 88.6074H7.88867ZM16.3223 94.4263C16.3223 93.5464 16.4966 92.755 16.8452 92.0522C17.1938 91.3439 17.6836 90.8016 18.3145 90.4253C18.9453 90.0435 19.6702 89.8525 20.4893 89.8525C21.7012 89.8525 22.6834 90.2427 23.436 91.0229C24.1942 91.8032 24.6037 92.8381 24.6646 94.1274L24.6729 94.6006C24.6729 95.486 24.5013 96.2773 24.1582 96.9746C23.8206 97.6719 23.3337 98.2114 22.6973 98.5933C22.0664 98.9751 21.3359 99.166 20.5059 99.166C19.2386 99.166 18.2231 98.7454 17.4595 97.9043C16.7013 97.0576 16.3223 95.9315 16.3223 94.5259V94.4263ZM18.3394 94.6006C18.3394 95.5247 18.5303 96.2497 18.9121 96.7754C19.2939 97.2956 19.8252 97.5557 20.5059 97.5557C21.1865 97.5557 21.715 97.29 22.0913 96.7588C22.4731 96.2275 22.6641 95.45 22.6641 94.4263C22.6641 93.5187 22.4676 92.7993 22.0747 92.2681C21.6873 91.7368 21.1589 91.4712 20.4893 91.4712C19.8307 91.4712 19.3078 91.734 18.9204 92.2598C18.533 92.7799 18.3394 93.5602 18.3394 94.6006ZM26.001 94.4263C26.001 93.5464 26.1753 92.755 26.5239 92.0522C26.8726 91.3439 27.3623 90.8016 27.9932 90.4253C28.624 90.0435 29.349 89.8525 30.168 89.8525C31.3799 89.8525 32.3621 90.2427 33.1147 91.0229C33.8729 91.8032 34.2824 92.8381 34.3433 94.1274L34.3516 94.6006C34.3516 95.486 34.18 96.2773 33.8369 96.9746C33.4993 97.6719 33.0124 98.2114 32.376 98.5933C31.7451 98.9751 31.0146 99.166 30.1846 99.166C28.9173 99.166 27.9019 98.7454 27.1382 97.9043C26.38 97.0576 26.001 95.9315 26.001 94.5259V94.4263ZM28.0181 94.6006C28.0181 95.5247 28.209 96.2497 28.5908 96.7754C28.9727 97.2956 29.5039 97.5557 30.1846 97.5557C30.8652 97.5557 31.3937 97.29 31.77 96.7588C32.1519 96.2275 32.3428 95.45 32.3428 94.4263C32.3428 93.5187 32.1463 92.7993 31.7534 92.2681C31.366 91.7368 30.8376 91.4712 30.168 91.4712C29.5094 91.4712 28.9865 91.734 28.5991 92.2598C28.2118 92.7799 28.0181 93.5602 28.0181 94.6006ZM40.7598 91.8613C40.4941 91.8171 40.2202 91.7949 39.938 91.7949C39.0138 91.7949 38.3913 92.1491 38.0703 92.8574V99H36.0532V90.0186H37.979L38.0288 91.0229C38.5158 90.2427 39.1909 89.8525 40.0542 89.8525C40.342 89.8525 40.5799 89.8913 40.7681 89.9688L40.7598 91.8613ZM45.8896 94.4429C45.8896 93.0594 46.2106 91.9499 46.8525 91.1143C47.4945 90.2731 48.355 89.8525 49.4341 89.8525C50.3859 89.8525 51.1551 90.1846 51.7417 90.8486V86.25H53.7588V99H51.9326L51.833 98.0703C51.2298 98.8008 50.4246 99.166 49.4175 99.166C48.366 99.166 47.5138 98.7427 46.8608 97.896C46.2134 97.0493 45.8896 95.8983 45.8896 94.4429ZM47.9067 94.6172C47.9067 95.5303 48.0811 96.2441 48.4297 96.7588C48.7839 97.2679 49.2847 97.5225 49.9321 97.5225C50.7567 97.5225 51.3599 97.1545 51.7417 96.4185V92.5835C51.3709 91.8641 50.7733 91.5044 49.9487 91.5044C49.2957 91.5044 48.7922 91.7645 48.438 92.2847C48.0838 92.7993 47.9067 93.5768 47.9067 94.6172ZM59.8184 99.166C58.54 99.166 57.5024 98.7648 56.7056 97.9624C55.9142 97.1545 55.5186 96.0809 55.5186 94.7417V94.4927C55.5186 93.5962 55.6901 92.7965 56.0332 92.0938C56.3818 91.3854 56.8688 90.8348 57.4941 90.4419C58.1195 90.049 58.8167 89.8525 59.5859 89.8525C60.8089 89.8525 61.7524 90.2427 62.4165 91.0229C63.0861 91.8032 63.4209 92.9072 63.4209 94.335V95.1484H57.5522C57.6131 95.89 57.8594 96.4766 58.291 96.9082C58.7282 97.3398 59.276 97.5557 59.9346 97.5557C60.8587 97.5557 61.6113 97.1821 62.1924 96.4351L63.2798 97.4727C62.9201 98.0094 62.4386 98.4272 61.8354 98.7261C61.2378 99.0194 60.5654 99.166 59.8184 99.166ZM59.5776 91.4712C59.0243 91.4712 58.576 91.6649 58.2329 92.0522C57.8953 92.4396 57.6795 92.9792 57.5854 93.6709H61.4287V93.5215C61.3844 92.8464 61.2046 92.3372 60.8892 91.9941C60.5737 91.6455 60.1366 91.4712 59.5776 91.4712ZM67.1396 99H65.1226V86.25H67.1396V99ZM71.4893 99H69.4722V90.0186H71.4893V99ZM69.3477 87.686C69.3477 87.3761 69.4445 87.1188 69.6382 86.9141C69.8374 86.7093 70.1196 86.6069 70.4849 86.6069C70.8501 86.6069 71.1323 86.7093 71.3315 86.9141C71.5308 87.1188 71.6304 87.3761 71.6304 87.686C71.6304 87.9904 71.5308 88.245 71.3315 88.4497C71.1323 88.6489 70.8501 88.7485 70.4849 88.7485C70.1196 88.7485 69.8374 88.6489 69.6382 88.4497C69.4445 88.245 69.3477 87.9904 69.3477 87.686ZM76.8599 96.4434L78.7607 90.0186H80.8442L77.7314 99H75.98L72.8423 90.0186H74.9341L76.8599 96.4434ZM85.9492 99.166C84.6709 99.166 83.6333 98.7648 82.8364 97.9624C82.0451 97.1545 81.6494 96.0809 81.6494 94.7417V94.4927C81.6494 93.5962 81.821 92.7965 82.1641 92.0938C82.5127 91.3854 82.9997 90.8348 83.625 90.4419C84.2503 90.049 84.9476 89.8525 85.7168 89.8525C86.9398 89.8525 87.8833 90.2427 88.5474 91.0229C89.217 91.8032 89.5518 92.9072 89.5518 94.335V95.1484H83.6831C83.744 95.89 83.9902 96.4766 84.4219 96.9082C84.859 97.3398 85.4069 97.5557 86.0654 97.5557C86.9896 97.5557 87.7422 97.1821 88.3232 96.4351L89.4106 97.4727C89.0509 98.0094 88.5695 98.4272 87.9663 98.7261C87.3687 99.0194 86.6963 99.166 85.9492 99.166ZM85.7085 91.4712C85.1551 91.4712 84.7069 91.6649 84.3638 92.0522C84.0262 92.4396 83.8104 92.9792 83.7163 93.6709H87.5596V93.5215C87.5153 92.8464 87.3354 92.3372 87.02 91.9941C86.7046 91.6455 86.2674 91.4712 85.7085 91.4712ZM95.8271 91.8613C95.5615 91.8171 95.2876 91.7949 95.0054 91.7949C94.0812 91.7949 93.4587 92.1491 93.1377 92.8574V99H91.1206V90.0186H93.0464L93.0962 91.0229C93.5832 90.2427 94.2583 89.8525 95.1216 89.8525C95.4093 89.8525 95.6473 89.8913 95.8354 89.9688L95.8271 91.8613ZM100.393 96.1113L102.219 90.0186H104.369L100.799 100.361C100.251 101.872 99.3218 102.627 98.0103 102.627C97.717 102.627 97.3932 102.578 97.0391 102.478V100.917L97.4209 100.942C97.93 100.942 98.3118 100.848 98.5664 100.66C98.8265 100.478 99.0312 100.168 99.1807 99.7305L99.4712 98.9585L96.3169 90.0186H98.4917L100.393 96.1113ZM109.391 94.4263C109.391 93.5464 109.565 92.755 109.914 92.0522C110.262 91.3439 110.752 90.8016 111.383 90.4253C112.014 90.0435 112.739 89.8525 113.558 89.8525C114.77 89.8525 115.752 90.2427 116.504 91.0229C117.263 91.8032 117.672 92.8381 117.733 94.1274L117.741 94.6006C117.741 95.486 117.57 96.2773 117.227 96.9746C116.889 97.6719 116.402 98.2114 115.766 98.5933C115.135 98.9751 114.404 99.166 113.574 99.166C112.307 99.166 111.292 98.7454 110.528 97.9043C109.77 97.0576 109.391 95.9315 109.391 94.5259V94.4263ZM111.408 94.6006C111.408 95.5247 111.599 96.2497 111.98 96.7754C112.362 97.2956 112.894 97.5557 113.574 97.5557C114.255 97.5557 114.783 97.29 115.16 96.7588C115.542 96.2275 115.732 95.45 115.732 94.4263C115.732 93.5187 115.536 92.7993 115.143 92.2681C114.756 91.7368 114.227 91.4712 113.558 91.4712C112.899 91.4712 112.376 91.734 111.989 92.2598C111.601 92.7799 111.408 93.5602 111.408 94.6006ZM120.157 99V91.5127H118.787V90.0186H120.157V89.1968C120.157 88.2007 120.433 87.4315 120.987 86.8892C121.54 86.3468 122.315 86.0757 123.311 86.0757C123.665 86.0757 124.042 86.1255 124.44 86.2251L124.39 87.8022C124.169 87.758 123.911 87.7358 123.618 87.7358C122.655 87.7358 122.174 88.2311 122.174 89.2217V90.0186H124V91.5127H122.174V99H120.157ZM15.0605 117.509V122H12.9604V109.914H17.584C18.9342 109.914 20.005 110.265 20.7964 110.968C21.5933 111.671 21.9917 112.601 21.9917 113.757C21.9917 114.942 21.6016 115.863 20.8213 116.521C20.0465 117.18 18.9591 117.509 17.5591 117.509H15.0605ZM15.0605 115.824H17.584C18.3311 115.824 18.901 115.65 19.2939 115.301C19.6868 114.947 19.8833 114.438 19.8833 113.774C19.8833 113.121 19.6841 112.601 19.2856 112.213C18.8872 111.82 18.3394 111.618 17.6421 111.607H15.0605V115.824ZM29.1221 119.186H24.4404L23.4609 122H21.2778L25.8433 109.914H27.7275L32.3013 122H30.1099L29.1221 119.186ZM25.0298 117.493H28.5327L26.7812 112.479L25.0298 117.493ZM35.7793 117.509V122H33.6792V109.914H38.3027C39.653 109.914 40.7238 110.265 41.5151 110.968C42.312 111.671 42.7104 112.601 42.7104 113.757C42.7104 114.942 42.3203 115.863 41.54 116.521C40.7653 117.18 39.6779 117.509 38.2778 117.509H35.7793ZM35.7793 115.824H38.3027C39.0498 115.824 39.6198 115.65 40.0127 115.301C40.4056 114.947 40.6021 114.438 40.6021 113.774C40.6021 113.121 40.4028 112.601 40.0044 112.213C39.606 111.82 39.0581 111.618 38.3608 111.607H35.7793V115.824ZM50.4883 113.019L50.5464 113.957C51.1772 113.221 52.0405 112.853 53.1362 112.853C54.3371 112.853 55.1589 113.312 55.6016 114.23C56.2546 113.312 57.1732 112.853 58.3574 112.853C59.348 112.853 60.084 113.126 60.5654 113.674C61.0524 114.222 61.3014 115.03 61.3125 116.098V122H59.2954V116.156C59.2954 115.586 59.1709 115.168 58.9219 114.903C58.6729 114.637 58.2606 114.504 57.6851 114.504C57.2257 114.504 56.8494 114.629 56.5562 114.878C56.2684 115.121 56.0664 115.442 55.9502 115.841L55.9585 122H53.9414V116.09C53.9137 115.033 53.3742 114.504 52.3228 114.504C51.5148 114.504 50.9421 114.834 50.6045 115.492V122H48.5874V113.019H50.4883ZM67.3389 122.166C66.0605 122.166 65.0229 121.765 64.2261 120.962C63.4347 120.154 63.0391 119.081 63.0391 117.742V117.493C63.0391 116.596 63.2106 115.797 63.5537 115.094C63.9023 114.385 64.3893 113.835 65.0146 113.442C65.64 113.049 66.3372 112.853 67.1064 112.853C68.3294 112.853 69.2729 113.243 69.937 114.023C70.6066 114.803 70.9414 115.907 70.9414 117.335V118.148H65.0728C65.1336 118.89 65.3799 119.477 65.8115 119.908C66.2487 120.34 66.7965 120.556 67.4551 120.556C68.3792 120.556 69.1318 120.182 69.7129 119.435L70.8003 120.473C70.4406 121.009 69.9591 121.427 69.356 121.726C68.7583 122.019 68.0859 122.166 67.3389 122.166ZM67.0981 114.471C66.5448 114.471 66.0965 114.665 65.7534 115.052C65.4159 115.44 65.2 115.979 65.106 116.671H68.9492V116.521C68.9049 115.846 68.7251 115.337 68.4097 114.994C68.0942 114.646 67.6571 114.471 67.0981 114.471ZM72.1367 117.443C72.1367 116.059 72.4577 114.95 73.0996 114.114C73.7415 113.273 74.6021 112.853 75.6812 112.853C76.633 112.853 77.4022 113.185 77.9888 113.849V109.25H80.0059V122H78.1797L78.0801 121.07C77.4769 121.801 76.6717 122.166 75.6646 122.166C74.6131 122.166 73.7609 121.743 73.1079 120.896C72.4604 120.049 72.1367 118.898 72.1367 117.443ZM74.1538 117.617C74.1538 118.53 74.3281 119.244 74.6768 119.759C75.0309 120.268 75.5317 120.522 76.1792 120.522C77.0037 120.522 77.6069 120.154 77.9888 119.418V115.583C77.618 114.864 77.0203 114.504 76.1958 114.504C75.5428 114.504 75.0392 114.764 74.6851 115.285C74.3309 115.799 74.1538 116.577 74.1538 117.617ZM84.2559 122H82.2388V113.019H84.2559V122ZM82.1143 110.686C82.1143 110.376 82.2111 110.119 82.4048 109.914C82.604 109.709 82.8862 109.607 83.2515 109.607C83.6167 109.607 83.8989 109.709 84.0981 109.914C84.2974 110.119 84.397 110.376 84.397 110.686C84.397 110.99 84.2974 111.245 84.0981 111.45C83.8989 111.649 83.6167 111.749 83.2515 111.749C82.8862 111.749 82.604 111.649 82.4048 111.45C82.2111 111.245 82.1143 110.99 82.1143 110.686ZM90.1494 120.556C90.653 120.556 91.0708 120.409 91.4028 120.116C91.7349 119.822 91.9119 119.46 91.9341 119.028H93.835C93.8128 119.587 93.6385 120.11 93.312 120.597C92.9855 121.079 92.5428 121.46 91.9839 121.743C91.425 122.025 90.8218 122.166 90.1743 122.166C88.9181 122.166 87.922 121.759 87.186 120.946C86.45 120.132 86.082 119.009 86.082 117.576V117.368C86.082 116.001 86.4473 114.908 87.1777 114.089C87.9082 113.265 88.9043 112.853 90.166 112.853C91.234 112.853 92.1029 113.165 92.7725 113.791C93.4476 114.41 93.8018 115.227 93.835 116.239H91.9341C91.9119 115.725 91.7349 115.301 91.4028 114.969C91.0763 114.637 90.6585 114.471 90.1494 114.471C89.4964 114.471 88.9928 114.709 88.6387 115.185C88.2845 115.655 88.1047 116.372 88.0991 117.335V117.659C88.0991 118.633 88.2734 119.36 88.6221 119.842C88.9762 120.318 89.4854 120.556 90.1494 120.556ZM97.5039 122H95.4868V113.019H97.5039V122ZM95.3623 110.686C95.3623 110.376 95.4591 110.119 95.6528 109.914C95.8521 109.709 96.1343 109.607 96.4995 109.607C96.8647 109.607 97.147 109.709 97.3462 109.914C97.5454 110.119 97.645 110.376 97.645 110.686C97.645 110.99 97.5454 111.245 97.3462 111.45C97.147 111.649 96.8647 111.749 96.4995 111.749C96.1343 111.749 95.8521 111.649 95.6528 111.45C95.4591 111.245 95.3623 110.99 95.3623 110.686ZM101.58 113.019L101.638 114.056C102.302 113.254 103.173 112.853 104.252 112.853C106.123 112.853 107.075 113.923 107.108 116.065V122H105.091V116.181C105.091 115.611 104.966 115.191 104.717 114.919C104.474 114.643 104.073 114.504 103.514 114.504C102.7 114.504 102.094 114.872 101.696 115.608V122H99.6787V113.019H101.58ZM113.126 122.166C111.848 122.166 110.81 121.765 110.013 120.962C109.222 120.154 108.826 119.081 108.826 117.742V117.493C108.826 116.596 108.998 115.797 109.341 115.094C109.689 114.385 110.176 113.835 110.802 113.442C111.427 113.049 112.124 112.853 112.894 112.853C114.117 112.853 115.06 113.243 115.724 114.023C116.394 114.803 116.729 115.907 116.729 117.335V118.148H110.86C110.921 118.89 111.167 119.477 111.599 119.908C112.036 120.34 112.584 120.556 113.242 120.556C114.166 120.556 114.919 120.182 115.5 119.435L116.587 120.473C116.228 121.009 115.746 121.427 115.143 121.726C114.545 122.019 113.873 122.166 113.126 122.166ZM112.885 114.471C112.332 114.471 111.884 114.665 111.541 115.052C111.203 115.44 110.987 115.979 110.893 116.671H114.736V116.521C114.692 115.846 114.512 115.337 114.197 114.994C113.881 114.646 113.444 114.471 112.885 114.471Z" fill="#262626"/>
<path d="M92.1894 21.8301L84.4496 10.2259C84.15 9.77443 83.7432 9.4041 83.2657 9.14795C82.7882 8.89181 82.2547 8.7578 81.7128 8.75788H75.221V3.28421C75.221 2.41318 74.875 1.57783 74.2591 0.961922C73.6432 0.346014 72.8078 0 71.9368 0H39.0947C38.8044 0 38.5259 0.115338 38.3206 0.320641C38.1153 0.525943 38 0.804394 38 1.09474C38 1.38508 38.1153 1.66353 38.3206 1.86883C38.5259 2.07413 38.8044 2.18947 39.0947 2.18947H46.7579V8.75788H40.1895C39.8991 8.75788 39.6207 8.87322 39.4154 9.07852C39.2101 9.28383 39.0947 9.56228 39.0947 9.85262C39.0947 10.143 39.2101 10.4214 39.4154 10.6267C39.6207 10.832 39.8991 10.9474 40.1895 10.9474H46.7579V17.5158H41.2842C40.9939 17.5158 40.7154 17.6311 40.5101 17.8364C40.3048 18.0417 40.1895 18.3202 40.1895 18.6105C40.1895 18.9008 40.3048 19.1793 40.5101 19.3846C40.7154 19.5899 40.9939 19.7052 41.2842 19.7052H46.7579V26.2737H42.3789C42.0886 26.2737 41.8102 26.389 41.6048 26.5943C41.3995 26.7996 41.2842 27.078 41.2842 27.3684C41.2842 27.6587 41.3995 27.9372 41.6048 28.1425C41.8102 28.3478 42.0886 28.4631 42.3789 28.4631H46.7579V33.9368C46.7579 34.8078 47.1039 35.6432 47.7198 36.2591C48.3357 36.875 49.1711 37.221 50.0421 37.221H54.8042C54.4499 38.2123 54.3391 39.2742 54.481 40.3173C54.623 41.3604 55.0136 42.3541 55.6199 43.2147C56.2262 44.0753 57.0305 44.7775 57.965 45.2622C58.8994 45.747 59.9367 46 60.9894 46C62.0422 46 63.0794 45.747 64.0139 45.2622C64.9484 44.7775 65.7527 44.0753 66.359 43.2147C66.9653 42.3541 67.3559 41.3604 67.4979 40.3173C67.6398 39.2742 67.529 38.2123 67.1747 37.221H76.6989C76.3446 38.2123 76.2338 39.2742 76.3757 40.3173C76.5177 41.3604 76.9083 42.3541 77.5146 43.2147C78.1209 44.0753 78.9252 44.7775 79.8597 45.2622C80.7942 45.747 81.8314 46 82.8842 46C83.9369 46 84.9742 45.747 85.9086 45.2622C86.8431 44.7775 87.6474 44.0753 88.2537 43.2147C88.86 42.3541 89.2506 41.3604 89.3926 40.3173C89.5345 39.2742 89.4237 38.2123 89.0694 37.221H89.4526C90.3236 37.221 91.1589 36.875 91.7749 36.2591C92.3908 35.6432 92.7368 34.8078 92.7368 33.9368V23.6518C92.7387 23.0037 92.5482 22.3697 92.1894 21.8301ZM60.9894 43.7894C60.1234 43.7894 59.2767 43.5326 58.5566 43.0514C57.8365 42.5703 57.2753 41.8864 56.9438 41.0862C56.6124 40.2861 56.5257 39.4056 56.6946 38.5562C56.8636 37.7068 57.2807 36.9265 57.8931 36.3141C58.5055 35.7017 59.2857 35.2846 60.1352 35.1157C60.9846 34.9467 61.865 35.0334 62.6652 35.3649C63.4653 35.6963 64.1492 36.2576 64.6304 36.9777C65.1116 37.6978 65.3684 38.5444 65.3684 39.4105C65.3684 40.5718 64.907 41.6856 64.0858 42.5069C63.2646 43.3281 62.1508 43.7894 60.9894 43.7894ZM60.9894 32.8421C60.0673 32.8428 59.1558 33.0382 58.3144 33.4155C57.473 33.7928 56.7208 34.3435 56.1069 35.0315H50.0421C49.7517 35.0315 49.4733 34.9162 49.268 34.7109C49.0627 34.5056 48.9474 34.2271 48.9474 33.9368V2.18947H71.9368C72.2271 2.18947 72.5056 2.30481 72.7109 2.51011C72.9162 2.71541 73.0315 2.99386 73.0315 3.28421V35.0315H65.872C65.2581 34.3435 64.5059 33.7928 63.6645 33.4155C62.8231 33.0382 61.9115 32.8428 60.9894 32.8421ZM82.8842 43.7894C82.0181 43.7894 81.1715 43.5326 80.4513 43.0514C79.7312 42.5703 79.17 41.8864 78.8385 41.0862C78.5071 40.2861 78.4204 39.4056 78.5894 38.5562C78.7583 37.7068 79.1754 36.9265 79.7878 36.3141C80.4002 35.7017 81.1804 35.2846 82.0299 35.1157C82.8793 34.9467 83.7598 35.0334 84.5599 35.3649C85.3601 35.6963 86.0439 36.2576 86.5251 36.9777C87.0063 37.6978 87.2631 38.5444 87.2631 39.4105C87.2631 40.5718 86.8017 41.6856 85.9805 42.5069C85.1593 43.3281 84.0455 43.7894 82.8842 43.7894ZM90.5473 33.9368C90.5473 34.2271 90.432 34.5056 90.2267 34.7109C90.0214 34.9162 89.7429 35.0315 89.4526 35.0315H87.7667C87.1533 34.3429 86.4011 33.7919 85.5596 33.4145C84.7181 33.0372 83.8064 32.8421 82.8842 32.8421C81.9619 32.8421 81.0502 33.0372 80.2087 33.4145C79.3672 33.7919 78.6151 34.3429 78.0016 35.0315H75.221V10.9474H81.7128C81.893 10.9473 82.0704 10.9918 82.2293 11.0768C82.3882 11.1617 82.5236 11.2846 82.6236 11.4345L90.3634 23.0453C90.4835 23.2247 90.5475 23.4358 90.5473 23.6518V33.9368Z" fill="#666666"/>
<path d="M81.6062 13.6241C81.5062 13.4742 81.3707 13.3513 81.2118 13.2664C81.0529 13.1814 80.8755 13.1369 80.6953 13.137H77.4111C77.1208 13.137 76.8423 13.2523 76.637 13.4576C76.4317 13.6629 76.3164 13.9414 76.3164 14.2317V24.0843C76.3164 24.3747 76.4317 24.6531 76.637 24.8584C76.8423 25.0637 77.1208 25.1791 77.4111 25.1791H87.2638C87.462 25.1791 87.6564 25.1253 87.8265 25.0235C87.9965 24.9216 88.1357 24.7755 88.2292 24.6008C88.3227 24.426 88.367 24.2292 88.3574 24.0312C88.3478 23.8332 88.2846 23.6416 88.1746 23.4767L81.6062 13.6241ZM78.5059 22.9896V15.3264H80.1097L85.2177 22.9896H78.5059Z" fill="#666666"/>
<path d="M55.8406 16.2587H58.5978V19.0158C58.5978 19.1986 58.6704 19.3739 58.7996 19.5032C58.9289 19.6325 59.1042 19.7051 59.287 19.7051H63.4227C63.6055 19.7051 63.7808 19.6325 63.9101 19.5032C64.0394 19.3739 64.112 19.1986 64.112 19.0158V16.2587H66.8691C67.0519 16.2587 67.2272 16.1861 67.3565 16.0568C67.4858 15.9276 67.5584 15.7522 67.5584 15.5694V11.4338C67.5584 11.251 67.4858 11.0756 67.3565 10.9464C67.2272 10.8171 67.0519 10.7445 66.8691 10.7445H64.112V7.98737C64.112 7.80457 64.0394 7.62925 63.9101 7.49998C63.7808 7.37072 63.6055 7.2981 63.4227 7.2981H59.287C59.1042 7.2981 58.9289 7.37072 58.7996 7.49998C58.6704 7.62925 58.5978 7.80457 58.5978 7.98737V10.7445H55.8406C55.6578 10.7445 55.4825 10.8171 55.3533 10.9464C55.224 11.0756 55.1514 11.251 55.1514 11.4338V15.5694C55.1514 15.7522 55.224 15.9276 55.3533 16.0568C55.4825 16.1861 55.6578 16.2587 55.8406 16.2587ZM56.5299 12.123H59.287C59.4698 12.123 59.6452 12.0504 59.7744 11.9212C59.9037 11.7919 59.9763 11.6166 59.9763 11.4338V8.67665H62.7334V11.4338C62.7334 11.6166 62.806 11.7919 62.9353 11.9212C63.0646 12.0504 63.2399 12.123 63.4227 12.123H66.1798V14.8802H63.4227C63.2399 14.8802 63.0646 14.9528 62.9353 15.082C62.806 15.2113 62.7334 15.3866 62.7334 15.5694V18.3265H59.9763V15.5694C59.9763 15.3866 59.9037 15.2113 59.7744 15.082C59.6452 14.9528 59.4698 14.8802 59.287 14.8802H56.5299V12.123Z" fill="#666666"/>
</svg>
