<svg width="191" height="175" viewBox="0 0 191 175" fill="none" xmlns="http://www.w3.org/2000/svg">
<path d="M16.0532 97.0117L17.9126 87.9141H19.9961L17.207 100H15.1982L12.8989 91.1763L10.5498 100H8.53271L5.74365 87.9141H7.82715L9.70312 96.9951L12.0107 87.9141H13.7705L16.0532 97.0117ZM25.0264 100.166C23.748 100.166 22.7104 99.7648 21.9136 98.9624C21.1222 98.1545 20.7266 97.0809 20.7266 95.7417V95.4927C20.7266 94.5962 20.8981 93.7965 21.2412 93.0938C21.5898 92.3854 22.0768 91.8348 22.7021 91.4419C23.3275 91.049 24.0247 90.8525 24.7939 90.8525C26.0169 90.8525 26.9604 91.2427 27.6245 92.0229C28.2941 92.8032 28.6289 93.9072 28.6289 95.335V96.1484H22.7603C22.8211 96.89 23.0674 97.4766 23.499 97.9082C23.9362 98.3398 24.484 98.5557 25.1426 98.5557C26.0667 98.5557 26.8193 98.1821 27.4004 97.4351L28.4878 98.4727C28.1281 99.0094 27.6466 99.4272 27.0435 99.7261C26.4458 100.019 25.7734 100.166 25.0264 100.166ZM24.7856 92.4712C24.2323 92.4712 23.784 92.6649 23.4409 93.0522C23.1034 93.4396 22.8875 93.9792 22.7935 94.6709H26.6367V94.5215C26.5924 93.8464 26.4126 93.3372 26.0972 92.9941C25.7817 92.6455 25.3446 92.4712 24.7856 92.4712ZM42.3252 97.2192L43.7529 91.0186H45.7202L43.2715 100H41.6113L39.6855 93.8325L37.793 100H36.1328L33.6758 91.0186H35.6431L37.0957 97.1528L38.9385 91.0186H40.4575L42.3252 97.2192ZM49.2148 100H47.1978V91.0186H49.2148V100ZM47.0732 88.686C47.0732 88.3761 47.1701 88.1188 47.3638 87.9141C47.563 87.7093 47.8452 87.6069 48.2104 87.6069C48.5757 87.6069 48.8579 87.7093 49.0571 87.9141C49.2563 88.1188 49.356 88.3761 49.356 88.686C49.356 88.9904 49.2563 89.245 49.0571 89.4497C48.8579 89.6489 48.5757 89.7485 48.2104 89.7485C47.8452 89.7485 47.563 89.6489 47.3638 89.4497C47.1701 89.245 47.0732 88.9904 47.0732 88.686ZM53.5645 100H51.5474V87.25H53.5645V100ZM57.9141 100H55.897V87.25H57.9141V100ZM69.0537 92.8613C68.7881 92.8171 68.5142 92.7949 68.2319 92.7949C67.3078 92.7949 66.6852 93.1491 66.3643 93.8574V100H64.3472V91.0186H66.2729L66.3228 92.0229C66.8097 91.2427 67.4849 90.8525 68.3481 90.8525C68.6359 90.8525 68.8739 90.8913 69.062 90.9688L69.0537 92.8613ZM74.1172 100.166C72.8389 100.166 71.8013 99.7648 71.0044 98.9624C70.2131 98.1545 69.8174 97.0809 69.8174 95.7417V95.4927C69.8174 94.5962 69.9889 93.7965 70.332 93.0938C70.6807 92.3854 71.1676 91.8348 71.793 91.4419C72.4183 91.049 73.1156 90.8525 73.8848 90.8525C75.1077 90.8525 76.0513 91.2427 76.7153 92.0229C77.3849 92.8032 77.7197 93.9072 77.7197 95.335V96.1484H71.8511C71.9119 96.89 72.1582 97.4766 72.5898 97.9082C73.027 98.3398 73.5749 98.5557 74.2334 98.5557C75.1576 98.5557 75.9102 98.1821 76.4912 97.4351L77.5786 98.4727C77.2189 99.0094 76.7375 99.4272 76.1343 99.7261C75.5366 100.019 74.8643 100.166 74.1172 100.166ZM73.8765 92.4712C73.3231 92.4712 72.8748 92.6649 72.5317 93.0522C72.1942 93.4396 71.9784 93.9792 71.8843 94.6709H75.7275V94.5215C75.6833 93.8464 75.5034 93.3372 75.188 92.9941C74.8726 92.6455 74.4354 92.4712 73.8765 92.4712ZM84.6592 100C84.5706 99.8285 84.4932 99.549 84.4268 99.1616C83.7848 99.8312 82.999 100.166 82.0693 100.166C81.1673 100.166 80.4313 99.9087 79.8613 99.394C79.2913 98.8794 79.0063 98.243 79.0063 97.4849C79.0063 96.5275 79.3605 95.7943 80.0688 95.2852C80.7827 94.7705 81.8009 94.5132 83.1235 94.5132H84.3604V93.9238C84.3604 93.459 84.2303 93.0882 83.9702 92.8115C83.7101 92.5293 83.3145 92.3882 82.7832 92.3882C82.3239 92.3882 81.9476 92.5044 81.6543 92.7368C81.361 92.9637 81.2144 93.2542 81.2144 93.6084H79.1973C79.1973 93.1159 79.3605 92.6566 79.687 92.2305C80.0135 91.7988 80.4562 91.4613 81.0151 91.2178C81.5796 90.9743 82.2077 90.8525 82.8994 90.8525C83.9508 90.8525 84.7892 91.1182 85.4146 91.6494C86.0399 92.1751 86.3608 92.9167 86.3774 93.874V97.9248C86.3774 98.7327 86.4909 99.3774 86.7178 99.8589V100H84.6592ZM82.4429 98.5474C82.8413 98.5474 83.2148 98.4505 83.5635 98.2568C83.9176 98.0632 84.1833 97.8031 84.3604 97.4766V95.7832H83.2729C82.5259 95.7832 81.9642 95.9132 81.5879 96.1733C81.2116 96.4334 81.0234 96.8014 81.0234 97.2773C81.0234 97.6647 81.1507 97.9746 81.4053 98.207C81.6654 98.4339 82.0112 98.5474 82.4429 98.5474ZM92.1797 98.5557C92.6833 98.5557 93.1011 98.409 93.4331 98.1157C93.7651 97.8224 93.9422 97.46 93.9644 97.0283H95.8652C95.8431 97.5872 95.6688 98.1102 95.3423 98.5972C95.0158 99.0786 94.5731 99.4604 94.0142 99.7427C93.4552 100.025 92.8521 100.166 92.2046 100.166C90.9484 100.166 89.9523 99.7593 89.2163 98.9458C88.4803 98.1323 88.1123 97.009 88.1123 95.5757V95.3682C88.1123 94.0013 88.4775 92.9084 89.208 92.0894C89.9385 91.2648 90.9346 90.8525 92.1963 90.8525C93.2643 90.8525 94.1331 91.1652 94.8027 91.7905C95.4779 92.4103 95.832 93.2266 95.8652 94.2393H93.9644C93.9422 93.7246 93.7651 93.3013 93.4331 92.9692C93.1066 92.6372 92.6888 92.4712 92.1797 92.4712C91.5267 92.4712 91.0231 92.7091 90.6689 93.1851C90.3148 93.6554 90.1349 94.3721 90.1294 95.335V95.6587C90.1294 96.6326 90.3037 97.3604 90.6523 97.8418C91.0065 98.3177 91.5156 98.5557 92.1797 98.5557ZM99.3765 91.998C100.035 91.2344 100.868 90.8525 101.875 90.8525C103.79 90.8525 104.761 91.9455 104.789 94.1313V100H102.771V94.2061C102.771 93.5863 102.636 93.1491 102.365 92.8945C102.099 92.6344 101.706 92.5044 101.186 92.5044C100.378 92.5044 99.7749 92.8641 99.3765 93.5835V100H97.3594V87.25H99.3765V91.998ZM110.69 95.4263C110.69 94.5464 110.865 93.755 111.213 93.0522C111.562 92.3439 112.052 91.8016 112.683 91.4253C113.313 91.0435 114.038 90.8525 114.857 90.8525C116.069 90.8525 117.052 91.2427 117.804 92.0229C118.562 92.8032 118.972 93.8381 119.033 95.1274L119.041 95.6006C119.041 96.486 118.869 97.2773 118.526 97.9746C118.189 98.6719 117.702 99.2114 117.065 99.5933C116.435 99.9751 115.704 100.166 114.874 100.166C113.607 100.166 112.591 99.7454 111.828 98.9043C111.069 98.0576 110.69 96.9315 110.69 95.5259V95.4263ZM112.708 95.6006C112.708 96.5247 112.898 97.2497 113.28 97.7754C113.662 98.2956 114.193 98.5557 114.874 98.5557C115.555 98.5557 116.083 98.29 116.459 97.7588C116.841 97.2275 117.032 96.45 117.032 95.4263C117.032 94.5187 116.836 93.7993 116.443 93.2681C116.056 92.7368 115.527 92.4712 114.857 92.4712C114.199 92.4712 113.676 92.734 113.289 93.2598C112.901 93.7799 112.708 94.5602 112.708 95.6006ZM126.188 99.1201C125.596 99.8174 124.755 100.166 123.665 100.166C122.691 100.166 121.952 99.881 121.448 99.311C120.95 98.741 120.701 97.9165 120.701 96.8374V91.0186H122.718V96.8125C122.718 97.9525 123.191 98.5225 124.138 98.5225C125.117 98.5225 125.778 98.1711 126.122 97.4683V91.0186H128.139V100H126.238L126.188 99.1201ZM132.721 88.8354V91.0186H134.306V92.5127H132.721V97.5264C132.721 97.8695 132.787 98.1185 132.92 98.2734C133.058 98.4229 133.302 98.4976 133.65 98.4976C133.883 98.4976 134.118 98.4699 134.356 98.4146V99.9751C133.897 100.102 133.454 100.166 133.028 100.166C131.478 100.166 130.704 99.311 130.704 97.6011V92.5127H129.226V91.0186H130.704V88.8354H132.721ZM142.615 88.8354V91.0186H144.201V92.5127H142.615V97.5264C142.615 97.8695 142.682 98.1185 142.814 98.2734C142.953 98.4229 143.196 98.4976 143.545 98.4976C143.777 98.4976 144.013 98.4699 144.25 98.4146V99.9751C143.791 100.102 143.348 100.166 142.922 100.166C141.373 100.166 140.598 99.311 140.598 97.6011V92.5127H139.121V91.0186H140.598V88.8354H142.615ZM145.122 95.4263C145.122 94.5464 145.296 93.755 145.645 93.0522C145.994 92.3439 146.483 91.8016 147.114 91.4253C147.745 91.0435 148.47 90.8525 149.289 90.8525C150.501 90.8525 151.483 91.2427 152.236 92.0229C152.994 92.8032 153.403 93.8381 153.464 95.1274L153.473 95.6006C153.473 96.486 153.301 97.2773 152.958 97.9746C152.62 98.6719 152.133 99.2114 151.497 99.5933C150.866 99.9751 150.136 100.166 149.306 100.166C148.038 100.166 147.023 99.7454 146.259 98.9043C145.501 98.0576 145.122 96.9315 145.122 95.5259V95.4263ZM147.139 95.6006C147.139 96.5247 147.33 97.2497 147.712 97.7754C148.094 98.2956 148.625 98.5557 149.306 98.5557C149.986 98.5557 150.515 98.29 150.891 97.7588C151.273 97.2275 151.464 96.45 151.464 95.4263C151.464 94.5187 151.267 93.7993 150.875 93.2681C150.487 92.7368 149.959 92.4712 149.289 92.4712C148.631 92.4712 148.108 92.734 147.72 93.2598C147.333 93.7799 147.139 94.5602 147.139 95.6006ZM162.554 97.1113L164.38 91.0186H166.53L162.96 101.361C162.413 102.872 161.483 103.627 160.171 103.627C159.878 103.627 159.554 103.578 159.2 103.478V101.917L159.582 101.942C160.091 101.942 160.473 101.848 160.728 101.66C160.988 101.478 161.192 101.168 161.342 100.73L161.632 99.9585L158.478 91.0186H160.653L162.554 97.1113ZM167.186 95.4263C167.186 94.5464 167.36 93.755 167.708 93.0522C168.057 92.3439 168.547 91.8016 169.178 91.4253C169.809 91.0435 170.534 90.8525 171.353 90.8525C172.564 90.8525 173.547 91.2427 174.299 92.0229C175.057 92.8032 175.467 93.8381 175.528 95.1274L175.536 95.6006C175.536 96.486 175.365 97.2773 175.021 97.9746C174.684 98.6719 174.197 99.2114 173.561 99.5933C172.93 99.9751 172.199 100.166 171.369 100.166C170.102 100.166 169.086 99.7454 168.323 98.9043C167.565 98.0576 167.186 96.9315 167.186 95.5259V95.4263ZM169.203 95.6006C169.203 96.5247 169.394 97.2497 169.775 97.7754C170.157 98.2956 170.688 98.5557 171.369 98.5557C172.05 98.5557 172.578 98.29 172.955 97.7588C173.336 97.2275 173.527 96.45 173.527 95.4263C173.527 94.5187 173.331 93.7993 172.938 93.2681C172.551 92.7368 172.022 92.4712 171.353 92.4712C170.694 92.4712 170.171 92.734 169.784 93.2598C169.396 93.7799 169.203 94.5602 169.203 95.6006ZM182.683 99.1201C182.091 99.8174 181.25 100.166 180.16 100.166C179.186 100.166 178.447 99.881 177.943 99.311C177.445 98.741 177.196 97.9165 177.196 96.8374V91.0186H179.213V96.8125C179.213 97.9525 179.687 98.5225 180.633 98.5225C181.612 98.5225 182.274 98.1711 182.617 97.4683V91.0186H184.634V100H182.733L182.683 99.1201ZM12.1021 120.219L13.5298 114.019H15.4971L13.0483 123H11.3882L9.4624 116.833L7.56982 123H5.90967L3.45264 114.019H5.41992L6.87256 120.153L8.71533 114.019H10.2344L12.1021 120.219ZM18.9917 123H16.9746V114.019H18.9917V123ZM16.8501 111.686C16.8501 111.376 16.9469 111.119 17.1406 110.914C17.3398 110.709 17.6221 110.607 17.9873 110.607C18.3525 110.607 18.6348 110.709 18.834 110.914C19.0332 111.119 19.1328 111.376 19.1328 111.686C19.1328 111.99 19.0332 112.245 18.834 112.45C18.6348 112.649 18.3525 112.749 17.9873 112.749C17.6221 112.749 17.3398 112.649 17.1406 112.45C16.9469 112.245 16.8501 111.99 16.8501 111.686ZM23.7231 111.835V114.019H25.3086V115.513H23.7231V120.526C23.7231 120.869 23.7896 121.118 23.9224 121.273C24.0607 121.423 24.3042 121.498 24.6528 121.498C24.8853 121.498 25.1204 121.47 25.3584 121.415V122.975C24.8991 123.102 24.4564 123.166 24.0303 123.166C22.4808 123.166 21.7061 122.311 21.7061 120.601V115.513H20.2285V114.019H21.7061V111.835H23.7231ZM28.8447 114.998C29.5033 114.234 30.3361 113.853 31.3433 113.853C33.258 113.853 34.2292 114.945 34.2568 117.131V123H32.2397V117.206C32.2397 116.586 32.1042 116.149 31.833 115.895C31.5674 115.634 31.1745 115.504 30.6543 115.504C29.8464 115.504 29.2432 115.864 28.8447 116.583V123H26.8276V110.25H28.8447V114.998ZM48.4014 118.601C48.4014 119.99 48.0859 121.099 47.4551 121.929C46.8242 122.754 45.9775 123.166 44.915 123.166C43.93 123.166 43.1414 122.842 42.5493 122.195V126.453H40.5322V114.019H42.3916L42.4746 114.932C43.0667 114.212 43.8719 113.853 44.8901 113.853C45.9858 113.853 46.8436 114.262 47.4634 115.081C48.0887 115.895 48.4014 117.026 48.4014 118.476V118.601ZM46.3926 118.426C46.3926 117.53 46.2127 116.819 45.853 116.293C45.4989 115.767 44.9897 115.504 44.3257 115.504C43.5011 115.504 42.909 115.845 42.5493 116.525V120.51C42.9146 121.207 43.5122 121.556 44.3423 121.556C44.9842 121.556 45.485 121.298 45.8447 120.784C46.21 120.264 46.3926 119.478 46.3926 118.426ZM54.8179 115.861C54.5522 115.817 54.2783 115.795 53.9961 115.795C53.0719 115.795 52.4494 116.149 52.1284 116.857V123H50.1113V114.019H52.0371L52.0869 115.023C52.5739 114.243 53.249 113.853 54.1123 113.853C54.4001 113.853 54.638 113.891 54.8262 113.969L54.8179 115.861ZM55.4155 118.426C55.4155 117.546 55.5898 116.755 55.9385 116.052C56.2871 115.344 56.7769 114.802 57.4077 114.425C58.0386 114.043 58.7635 113.853 59.5825 113.853C60.7944 113.853 61.7767 114.243 62.5293 115.023C63.2874 115.803 63.6969 116.838 63.7578 118.127L63.7661 118.601C63.7661 119.486 63.5946 120.277 63.2515 120.975C62.9139 121.672 62.4269 122.211 61.7905 122.593C61.1597 122.975 60.4292 123.166 59.5991 123.166C58.3319 123.166 57.3164 122.745 56.5527 121.904C55.7946 121.058 55.4155 119.931 55.4155 118.526V118.426ZM57.4326 118.601C57.4326 119.525 57.6235 120.25 58.0054 120.775C58.3872 121.296 58.9185 121.556 59.5991 121.556C60.2798 121.556 60.8083 121.29 61.1846 120.759C61.5664 120.228 61.7573 119.45 61.7573 118.426C61.7573 117.519 61.5609 116.799 61.168 116.268C60.7806 115.737 60.2521 115.471 59.5825 115.471C58.924 115.471 58.401 115.734 58.0137 116.26C57.6263 116.78 57.4326 117.56 57.4326 118.601ZM69.1616 121.556C69.6652 121.556 70.083 121.409 70.415 121.116C70.7471 120.822 70.9242 120.46 70.9463 120.028H72.8472C72.825 120.587 72.6507 121.11 72.3242 121.597C71.9977 122.079 71.555 122.46 70.9961 122.743C70.4372 123.025 69.834 123.166 69.1865 123.166C67.9303 123.166 66.9342 122.759 66.1982 121.946C65.4622 121.132 65.0942 120.009 65.0942 118.576V118.368C65.0942 117.001 65.4595 115.908 66.1899 115.089C66.9204 114.265 67.9165 113.853 69.1782 113.853C70.2463 113.853 71.1151 114.165 71.7847 114.791C72.4598 115.41 72.814 116.227 72.8472 117.239H70.9463C70.9242 116.725 70.7471 116.301 70.415 115.969C70.0885 115.637 69.6707 115.471 69.1616 115.471C68.5086 115.471 68.005 115.709 67.6509 116.185C67.2967 116.655 67.1169 117.372 67.1113 118.335V118.659C67.1113 119.633 67.2856 120.36 67.6343 120.842C67.9884 121.318 68.4976 121.556 69.1616 121.556ZM78.3257 123.166C77.0474 123.166 76.0098 122.765 75.2129 121.962C74.4215 121.154 74.0259 120.081 74.0259 118.742V118.493C74.0259 117.596 74.1974 116.797 74.5405 116.094C74.8892 115.385 75.3761 114.835 76.0015 114.442C76.6268 114.049 77.3241 113.853 78.0933 113.853C79.3162 113.853 80.2598 114.243 80.9238 115.023C81.5934 115.803 81.9282 116.907 81.9282 118.335V119.148H76.0596C76.1204 119.89 76.3667 120.477 76.7983 120.908C77.2355 121.34 77.7834 121.556 78.4419 121.556C79.366 121.556 80.1187 121.182 80.6997 120.435L81.7871 121.473C81.4274 122.009 80.946 122.427 80.3428 122.726C79.7451 123.019 79.0728 123.166 78.3257 123.166ZM78.085 115.471C77.5316 115.471 77.0833 115.665 76.7402 116.052C76.4027 116.44 76.1868 116.979 76.0928 117.671H79.936V117.521C79.8918 116.846 79.7119 116.337 79.3965 115.994C79.0811 115.646 78.6439 115.471 78.085 115.471ZM88.5356 120.56C88.5356 120.2 88.3862 119.926 88.0874 119.738C87.7941 119.55 87.3044 119.384 86.6182 119.24C85.932 119.096 85.3592 118.913 84.8999 118.692C83.8927 118.205 83.3892 117.499 83.3892 116.575C83.3892 115.8 83.7157 115.153 84.3687 114.633C85.0216 114.113 85.8517 113.853 86.8589 113.853C87.9325 113.853 88.7985 114.118 89.457 114.649C90.1211 115.181 90.4531 115.87 90.4531 116.716H88.436C88.436 116.329 88.2922 116.008 88.0044 115.753C87.7166 115.493 87.3348 115.363 86.8589 115.363C86.4162 115.363 86.0537 115.466 85.7715 115.67C85.4948 115.875 85.3564 116.149 85.3564 116.492C85.3564 116.802 85.4865 117.043 85.7466 117.214C86.0067 117.386 86.5324 117.56 87.3237 117.737C88.1151 117.909 88.7349 118.116 89.1831 118.36C89.6369 118.598 89.9717 118.886 90.1875 119.223C90.4089 119.561 90.5195 119.97 90.5195 120.452C90.5195 121.26 90.1847 121.915 89.5151 122.419C88.8455 122.917 87.9684 123.166 86.8838 123.166C86.1478 123.166 85.492 123.033 84.9165 122.768C84.341 122.502 83.8927 122.137 83.5718 121.672C83.2508 121.207 83.0903 120.706 83.0903 120.169H85.0493C85.077 120.645 85.2568 121.013 85.5889 121.273C85.9209 121.528 86.3608 121.655 86.9087 121.655C87.4399 121.655 87.8439 121.556 88.1206 121.356C88.3973 121.152 88.5356 120.886 88.5356 120.56ZM97.3179 120.56C97.3179 120.2 97.1685 119.926 96.8696 119.738C96.5763 119.55 96.0866 119.384 95.4004 119.24C94.7142 119.096 94.1414 118.913 93.6821 118.692C92.675 118.205 92.1714 117.499 92.1714 116.575C92.1714 115.8 92.4979 115.153 93.1509 114.633C93.8039 114.113 94.634 113.853 95.6411 113.853C96.7147 113.853 97.5807 114.118 98.2393 114.649C98.9033 115.181 99.2354 115.87 99.2354 116.716H97.2183C97.2183 116.329 97.0744 116.008 96.7866 115.753C96.4989 115.493 96.117 115.363 95.6411 115.363C95.1984 115.363 94.8359 115.466 94.5537 115.67C94.277 115.875 94.1387 116.149 94.1387 116.492C94.1387 116.802 94.2687 117.043 94.5288 117.214C94.7889 117.386 95.3146 117.56 96.106 117.737C96.8973 117.909 97.5171 118.116 97.9653 118.36C98.4191 118.598 98.7539 118.886 98.9697 119.223C99.1911 119.561 99.3018 119.97 99.3018 120.452C99.3018 121.26 98.967 121.915 98.2974 122.419C97.6278 122.917 96.7507 123.166 95.666 123.166C94.93 123.166 94.2743 123.033 93.6987 122.768C93.1232 122.502 92.675 122.137 92.354 121.672C92.033 121.207 91.8726 120.706 91.8726 120.169H93.8315C93.8592 120.645 94.0391 121.013 94.3711 121.273C94.7031 121.528 95.1431 121.655 95.6909 121.655C96.2222 121.655 96.6261 121.556 96.9028 121.356C97.1795 121.152 97.3179 120.886 97.3179 120.56ZM104.921 118.443C104.921 117.059 105.242 115.95 105.884 115.114C106.526 114.273 107.387 113.853 108.466 113.853C109.418 113.853 110.187 114.185 110.773 114.849V110.25H112.791V123H110.964L110.865 122.07C110.262 122.801 109.456 123.166 108.449 123.166C107.398 123.166 106.546 122.743 105.893 121.896C105.245 121.049 104.921 119.898 104.921 118.443ZM106.938 118.617C106.938 119.53 107.113 120.244 107.461 120.759C107.816 121.268 108.316 121.522 108.964 121.522C109.788 121.522 110.392 121.154 110.773 120.418V116.583C110.403 115.864 109.805 115.504 108.98 115.504C108.327 115.504 107.824 115.764 107.47 116.285C107.116 116.799 106.938 117.577 106.938 118.617ZM118.85 123.166C117.572 123.166 116.534 122.765 115.737 121.962C114.946 121.154 114.55 120.081 114.55 118.742V118.493C114.55 117.596 114.722 116.797 115.065 116.094C115.414 115.385 115.901 114.835 116.526 114.442C117.151 114.049 117.848 113.853 118.618 113.853C119.841 113.853 120.784 114.243 121.448 115.023C122.118 115.803 122.453 116.907 122.453 118.335V119.148H116.584C116.645 119.89 116.891 120.477 117.323 120.908C117.76 121.34 118.308 121.556 118.966 121.556C119.89 121.556 120.643 121.182 121.224 120.435L122.312 121.473C121.952 122.009 121.47 122.427 120.867 122.726C120.27 123.019 119.597 123.166 118.85 123.166ZM118.609 115.471C118.056 115.471 117.608 115.665 117.265 116.052C116.927 116.44 116.711 116.979 116.617 117.671H120.46V117.521C120.416 116.846 120.236 116.337 119.921 115.994C119.605 115.646 119.168 115.471 118.609 115.471ZM126.553 111.835V114.019H128.139V115.513H126.553V120.526C126.553 120.869 126.62 121.118 126.752 121.273C126.891 121.423 127.134 121.498 127.483 121.498C127.715 121.498 127.951 121.47 128.188 121.415V122.975C127.729 123.102 127.286 123.166 126.86 123.166C125.311 123.166 124.536 122.311 124.536 120.601V115.513H123.059V114.019H124.536V111.835H126.553ZM135.053 123C134.965 122.828 134.887 122.549 134.821 122.162C134.179 122.831 133.393 123.166 132.463 123.166C131.561 123.166 130.825 122.909 130.255 122.394C129.685 121.879 129.4 121.243 129.4 120.485C129.4 119.528 129.755 118.794 130.463 118.285C131.177 117.771 132.195 117.513 133.518 117.513H134.754V116.924C134.754 116.459 134.624 116.088 134.364 115.812C134.104 115.529 133.708 115.388 133.177 115.388C132.718 115.388 132.342 115.504 132.048 115.737C131.755 115.964 131.608 116.254 131.608 116.608H129.591C129.591 116.116 129.755 115.657 130.081 115.23C130.408 114.799 130.85 114.461 131.409 114.218C131.974 113.974 132.602 113.853 133.293 113.853C134.345 113.853 135.183 114.118 135.809 114.649C136.434 115.175 136.755 115.917 136.771 116.874V120.925C136.771 121.733 136.885 122.377 137.112 122.859V123H135.053ZM132.837 121.547C133.235 121.547 133.609 121.451 133.958 121.257C134.312 121.063 134.577 120.803 134.754 120.477V118.783H133.667C132.92 118.783 132.358 118.913 131.982 119.173C131.606 119.433 131.417 119.801 131.417 120.277C131.417 120.665 131.545 120.975 131.799 121.207C132.059 121.434 132.405 121.547 132.837 121.547ZM141.03 123H139.013V114.019H141.03V123ZM138.888 111.686C138.888 111.376 138.985 111.119 139.179 110.914C139.378 110.709 139.66 110.607 140.025 110.607C140.391 110.607 140.673 110.709 140.872 110.914C141.071 111.119 141.171 111.376 141.171 111.686C141.171 111.99 141.071 112.245 140.872 112.45C140.673 112.649 140.391 112.749 140.025 112.749C139.66 112.749 139.378 112.649 139.179 112.45C138.985 112.245 138.888 111.99 138.888 111.686ZM145.379 123H143.362V110.25H145.379V123ZM152.618 120.56C152.618 120.2 152.468 119.926 152.169 119.738C151.876 119.55 151.386 119.384 150.7 119.24C150.014 119.096 149.441 118.913 148.982 118.692C147.975 118.205 147.471 117.499 147.471 116.575C147.471 115.8 147.798 115.153 148.451 114.633C149.104 114.113 149.934 113.853 150.941 113.853C152.014 113.853 152.881 114.118 153.539 114.649C154.203 115.181 154.535 115.87 154.535 116.716H152.518C152.518 116.329 152.374 116.008 152.086 115.753C151.799 115.493 151.417 115.363 150.941 115.363C150.498 115.363 150.136 115.466 149.854 115.67C149.577 115.875 149.438 116.149 149.438 116.492C149.438 116.802 149.569 117.043 149.829 117.214C150.089 117.386 150.614 117.56 151.406 117.737C152.197 117.909 152.817 118.116 153.265 118.36C153.719 118.598 154.054 118.886 154.27 119.223C154.491 119.561 154.602 119.97 154.602 120.452C154.602 121.26 154.267 121.915 153.597 122.419C152.928 122.917 152.05 123.166 150.966 123.166C150.23 123.166 149.574 123.033 148.999 122.768C148.423 122.502 147.975 122.137 147.654 121.672C147.333 121.207 147.172 120.706 147.172 120.169H149.131C149.159 120.645 149.339 121.013 149.671 121.273C150.003 121.528 150.443 121.655 150.991 121.655C151.522 121.655 151.926 121.556 152.203 121.356C152.479 121.152 152.618 120.886 152.618 120.56ZM165.965 123C165.877 122.828 165.799 122.549 165.733 122.162C165.091 122.831 164.305 123.166 163.375 123.166C162.473 123.166 161.737 122.909 161.167 122.394C160.597 121.879 160.312 121.243 160.312 120.485C160.312 119.528 160.667 118.794 161.375 118.285C162.089 117.771 163.107 117.513 164.43 117.513H165.667V116.924C165.667 116.459 165.536 116.088 165.276 115.812C165.016 115.529 164.621 115.388 164.089 115.388C163.63 115.388 163.254 115.504 162.96 115.737C162.667 115.964 162.521 116.254 162.521 116.608H160.503C160.503 116.116 160.667 115.657 160.993 115.23C161.32 114.799 161.762 114.461 162.321 114.218C162.886 113.974 163.514 113.853 164.206 113.853C165.257 113.853 166.095 114.118 166.721 114.649C167.346 115.175 167.667 115.917 167.684 116.874V120.925C167.684 121.733 167.797 122.377 168.024 122.859V123H165.965ZM163.749 121.547C164.147 121.547 164.521 121.451 164.87 121.257C165.224 121.063 165.489 120.803 165.667 120.477V118.783H164.579C163.832 118.783 163.27 118.913 162.894 119.173C162.518 119.433 162.33 119.801 162.33 120.277C162.33 120.665 162.457 120.975 162.711 121.207C162.972 121.434 163.317 121.547 163.749 121.547ZM171.668 114.019L171.726 115.056C172.39 114.254 173.262 113.853 174.341 113.853C176.211 113.853 177.163 114.923 177.196 117.065V123H175.179V117.181C175.179 116.611 175.055 116.191 174.806 115.919C174.562 115.643 174.161 115.504 173.602 115.504C172.789 115.504 172.183 115.872 171.784 116.608V123H169.767V114.019H171.668ZM178.881 118.443C178.881 117.059 179.202 115.95 179.844 115.114C180.486 114.273 181.347 113.853 182.426 113.853C183.378 113.853 184.147 114.185 184.733 114.849V110.25H186.75V123H184.924L184.825 122.07C184.222 122.801 183.416 123.166 182.409 123.166C181.358 123.166 180.506 122.743 179.853 121.896C179.205 121.049 178.881 119.898 178.881 118.443ZM180.898 118.617C180.898 119.53 181.073 120.244 181.421 120.759C181.776 121.268 182.276 121.522 182.924 121.522C183.748 121.522 184.352 121.154 184.733 120.418V116.583C184.363 115.864 183.765 115.504 182.94 115.504C182.287 115.504 181.784 115.764 181.43 116.285C181.076 116.799 180.898 117.577 180.898 118.617ZM5.06299 141.443C5.06299 140.059 5.38395 138.95 6.02588 138.114C6.66781 137.273 7.52832 136.853 8.60742 136.853C9.55924 136.853 10.3285 137.185 10.915 137.849V133.25H12.9321V146H11.106L11.0063 145.07C10.4032 145.801 9.59798 146.166 8.59082 146.166C7.53939 146.166 6.68717 145.743 6.03418 144.896C5.38672 144.049 5.06299 142.898 5.06299 141.443ZM7.08008 141.617C7.08008 142.53 7.25439 143.244 7.60303 143.759C7.95719 144.268 8.45801 144.522 9.10547 144.522C9.93001 144.522 10.5332 144.154 10.915 143.418V139.583C10.5443 138.864 9.94661 138.504 9.12207 138.504C8.46908 138.504 7.96549 138.764 7.61133 139.285C7.25716 139.799 7.08008 140.577 7.08008 141.617ZM14.6587 141.426C14.6587 140.546 14.833 139.755 15.1816 139.052C15.5303 138.344 16.02 137.802 16.6509 137.425C17.2817 137.043 18.0067 136.853 18.8257 136.853C20.0376 136.853 21.0199 137.243 21.7725 138.023C22.5306 138.803 22.9401 139.838 23.001 141.127L23.0093 141.601C23.0093 142.486 22.8377 143.277 22.4946 143.975C22.1571 144.672 21.6701 145.211 21.0337 145.593C20.4028 145.975 19.6724 146.166 18.8423 146.166C17.575 146.166 16.5596 145.745 15.7959 144.904C15.0378 144.058 14.6587 142.931 14.6587 141.526V141.426ZM16.6758 141.601C16.6758 142.525 16.8667 143.25 17.2485 143.775C17.6304 144.296 18.1616 144.556 18.8423 144.556C19.5229 144.556 20.0514 144.29 20.4277 143.759C20.8096 143.228 21.0005 142.45 21.0005 141.426C21.0005 140.519 20.804 139.799 20.4111 139.268C20.0238 138.737 19.4953 138.471 18.8257 138.471C18.1672 138.471 17.6442 138.734 17.2568 139.26C16.8695 139.78 16.6758 140.56 16.6758 141.601ZM28.4048 144.556C28.9084 144.556 29.3262 144.409 29.6582 144.116C29.9902 143.822 30.1673 143.46 30.1895 143.028H32.0903C32.0682 143.587 31.8939 144.11 31.5674 144.597C31.2409 145.079 30.7982 145.46 30.2393 145.743C29.6803 146.025 29.0771 146.166 28.4297 146.166C27.1735 146.166 26.1774 145.759 25.4414 144.946C24.7054 144.132 24.3374 143.009 24.3374 141.576V141.368C24.3374 140.001 24.7026 138.908 25.4331 138.089C26.1636 137.265 27.1597 136.853 28.4214 136.853C29.4894 136.853 30.3582 137.165 31.0278 137.791C31.703 138.41 32.0571 139.227 32.0903 140.239H30.1895C30.1673 139.725 29.9902 139.301 29.6582 138.969C29.3317 138.637 28.9139 138.471 28.4048 138.471C27.7518 138.471 27.2482 138.709 26.894 139.185C26.5399 139.655 26.36 140.372 26.3545 141.335V141.659C26.3545 142.633 26.5288 143.36 26.8774 143.842C27.2316 144.318 27.7407 144.556 28.4048 144.556ZM39.0547 145.12C38.4626 145.817 37.6214 146.166 36.5312 146.166C35.5573 146.166 34.8185 145.881 34.3149 145.311C33.8169 144.741 33.5679 143.917 33.5679 142.837V137.019H35.585V142.812C35.585 143.952 36.0581 144.522 37.0044 144.522C37.9839 144.522 38.6452 144.171 38.9883 143.468V137.019H41.0054V146H39.1045L39.0547 145.12ZM44.9565 137.019L45.0146 137.957C45.6455 137.221 46.5088 136.853 47.6045 136.853C48.8053 136.853 49.6271 137.312 50.0698 138.23C50.7228 137.312 51.6414 136.853 52.8257 136.853C53.8162 136.853 54.5522 137.126 55.0337 137.674C55.5207 138.222 55.7697 139.03 55.7808 140.098V146H53.7637V140.156C53.7637 139.586 53.6392 139.168 53.3901 138.903C53.1411 138.637 52.7288 138.504 52.1533 138.504C51.694 138.504 51.3177 138.629 51.0244 138.878C50.7367 139.121 50.5347 139.442 50.4185 139.841L50.4268 146H48.4097V140.09C48.382 139.033 47.8424 138.504 46.791 138.504C45.9831 138.504 45.4103 138.834 45.0728 139.492V146H43.0557V137.019H44.9565ZM61.8071 146.166C60.5288 146.166 59.4912 145.765 58.6943 144.962C57.903 144.154 57.5073 143.081 57.5073 141.742V141.493C57.5073 140.596 57.6789 139.797 58.022 139.094C58.3706 138.385 58.8576 137.835 59.4829 137.442C60.1082 137.049 60.8055 136.853 61.5747 136.853C62.7977 136.853 63.7412 137.243 64.4053 138.023C65.0749 138.803 65.4097 139.907 65.4097 141.335V142.148H59.541C59.6019 142.89 59.8481 143.477 60.2798 143.908C60.717 144.34 61.2648 144.556 61.9233 144.556C62.8475 144.556 63.6001 144.182 64.1812 143.435L65.2686 144.473C64.9089 145.009 64.4274 145.427 63.8242 145.726C63.2266 146.019 62.5542 146.166 61.8071 146.166ZM61.5664 138.471C61.013 138.471 60.5648 138.665 60.2217 139.052C59.8841 139.44 59.6683 139.979 59.5742 140.671H63.4175V140.521C63.3732 139.846 63.1934 139.337 62.8779 138.994C62.5625 138.646 62.1253 138.471 61.5664 138.471ZM68.8545 137.019L68.9126 138.056C69.5767 137.254 70.4482 136.853 71.5273 136.853C73.3978 136.853 74.3496 137.923 74.3828 140.065V146H72.3657V140.181C72.3657 139.611 72.2412 139.191 71.9922 138.919C71.7487 138.643 71.3475 138.504 70.7886 138.504C69.9751 138.504 69.3691 138.872 68.9707 139.608V146H66.9536V137.019H68.8545ZM78.9731 134.835V137.019H80.5586V138.513H78.9731V143.526C78.9731 143.869 79.0396 144.118 79.1724 144.273C79.3107 144.423 79.5542 144.498 79.9028 144.498C80.1353 144.498 80.3704 144.47 80.6084 144.415V145.975C80.1491 146.102 79.7064 146.166 79.2803 146.166C77.7308 146.166 76.9561 145.311 76.9561 143.601V138.513H75.4785V137.019H76.9561V134.835H78.9731ZM87.4731 146C87.3846 145.828 87.3071 145.549 87.2407 145.162C86.5988 145.831 85.813 146.166 84.8833 146.166C83.9813 146.166 83.2453 145.909 82.6753 145.394C82.1053 144.879 81.8203 144.243 81.8203 143.485C81.8203 142.528 82.1745 141.794 82.8828 141.285C83.5967 140.771 84.6149 140.513 85.9375 140.513H87.1743V139.924C87.1743 139.459 87.0443 139.088 86.7842 138.812C86.5241 138.529 86.1284 138.388 85.5972 138.388C85.1379 138.388 84.7616 138.504 84.4683 138.737C84.175 138.964 84.0283 139.254 84.0283 139.608H82.0112C82.0112 139.116 82.1745 138.657 82.501 138.23C82.8275 137.799 83.2702 137.461 83.8291 137.218C84.3936 136.974 85.0216 136.853 85.7134 136.853C86.7648 136.853 87.6032 137.118 88.2285 137.649C88.8538 138.175 89.1748 138.917 89.1914 139.874V143.925C89.1914 144.733 89.3049 145.377 89.5317 145.859V146H87.4731ZM85.2568 144.547C85.6553 144.547 86.0288 144.451 86.3774 144.257C86.7316 144.063 86.9972 143.803 87.1743 143.477V141.783H86.0869C85.3398 141.783 84.7782 141.913 84.4019 142.173C84.0256 142.433 83.8374 142.801 83.8374 143.277C83.8374 143.665 83.9647 143.975 84.2192 144.207C84.4793 144.434 84.8252 144.547 85.2568 144.547ZM93.8315 134.835V137.019H95.417V138.513H93.8315V143.526C93.8315 143.869 93.8979 144.118 94.0308 144.273C94.1691 144.423 94.4126 144.498 94.7612 144.498C94.9937 144.498 95.2288 144.47 95.4668 144.415V145.975C95.0075 146.102 94.5648 146.166 94.1387 146.166C92.5892 146.166 91.8145 145.311 91.8145 143.601V138.513H90.3369V137.019H91.8145V134.835H93.8315ZM99.1108 146H97.0938V137.019H99.1108V146ZM96.9692 134.686C96.9692 134.376 97.0661 134.119 97.2598 133.914C97.459 133.709 97.7412 133.607 98.1064 133.607C98.4717 133.607 98.7539 133.709 98.9531 133.914C99.1523 134.119 99.252 134.376 99.252 134.686C99.252 134.99 99.1523 135.245 98.9531 135.45C98.7539 135.649 98.4717 135.749 98.1064 135.749C97.7412 135.749 97.459 135.649 97.2598 135.45C97.0661 135.245 96.9692 134.99 96.9692 134.686ZM100.937 141.426C100.937 140.546 101.111 139.755 101.46 139.052C101.809 138.344 102.298 137.802 102.929 137.425C103.56 137.043 104.285 136.853 105.104 136.853C106.316 136.853 107.298 137.243 108.051 138.023C108.809 138.803 109.218 139.838 109.279 141.127L109.288 141.601C109.288 142.486 109.116 143.277 108.773 143.975C108.435 144.672 107.948 145.211 107.312 145.593C106.681 145.975 105.951 146.166 105.121 146.166C103.853 146.166 102.838 145.745 102.074 144.904C101.316 144.058 100.937 142.931 100.937 141.526V141.426ZM102.954 141.601C102.954 142.525 103.145 143.25 103.527 143.775C103.909 144.296 104.44 144.556 105.121 144.556C105.801 144.556 106.33 144.29 106.706 143.759C107.088 143.228 107.279 142.45 107.279 141.426C107.279 140.519 107.082 139.799 106.689 139.268C106.302 138.737 105.774 138.471 105.104 138.471C104.445 138.471 103.923 138.734 103.535 139.26C103.148 139.78 102.954 140.56 102.954 141.601ZM112.865 137.019L112.923 138.056C113.587 137.254 114.459 136.853 115.538 136.853C117.409 136.853 118.36 137.923 118.394 140.065V146H116.376V140.181C116.376 139.611 116.252 139.191 116.003 138.919C115.759 138.643 115.358 138.504 114.799 138.504C113.986 138.504 113.38 138.872 112.981 139.608V146H110.964V137.019H112.865ZM129.392 138.861C129.126 138.817 128.853 138.795 128.57 138.795C127.646 138.795 127.024 139.149 126.703 139.857V146H124.686V137.019H126.611L126.661 138.023C127.148 137.243 127.823 136.853 128.687 136.853C128.974 136.853 129.212 136.891 129.4 136.969L129.392 138.861ZM134.456 146.166C133.177 146.166 132.14 145.765 131.343 144.962C130.551 144.154 130.156 143.081 130.156 141.742V141.493C130.156 140.596 130.327 139.797 130.67 139.094C131.019 138.385 131.506 137.835 132.131 137.442C132.757 137.049 133.454 136.853 134.223 136.853C135.446 136.853 136.39 137.243 137.054 138.023C137.723 138.803 138.058 139.907 138.058 141.335V142.148H132.189C132.25 142.89 132.497 143.477 132.928 143.908C133.365 144.34 133.913 144.556 134.572 144.556C135.496 144.556 136.249 144.182 136.83 143.435L137.917 144.473C137.557 145.009 137.076 145.427 136.473 145.726C135.875 146.019 135.203 146.166 134.456 146.166ZM134.215 138.471C133.661 138.471 133.213 138.665 132.87 139.052C132.533 139.44 132.317 139.979 132.223 140.671H136.066V140.521C136.022 139.846 135.842 139.337 135.526 138.994C135.211 138.646 134.774 138.471 134.215 138.471ZM139.253 141.435C139.253 140.029 139.574 138.914 140.216 138.089C140.858 137.265 141.727 136.853 142.823 136.853C143.824 136.853 144.618 137.204 145.205 137.907L145.321 137.019H147.114V149.453H145.097V145.236C144.511 145.856 143.747 146.166 142.806 146.166C141.733 146.166 140.872 145.748 140.225 144.913C139.577 144.071 139.253 142.912 139.253 141.435ZM141.271 141.609C141.271 142.528 141.45 143.25 141.81 143.775C142.175 144.296 142.679 144.556 143.321 144.556C144.118 144.556 144.71 144.215 145.097 143.535V139.451C144.71 138.798 144.123 138.471 143.337 138.471C142.695 138.471 142.189 138.729 141.818 139.243C141.453 139.758 141.271 140.546 141.271 141.609ZM154.734 145.12C154.142 145.817 153.301 146.166 152.211 146.166C151.237 146.166 150.498 145.881 149.995 145.311C149.497 144.741 149.248 143.917 149.248 142.837V137.019H151.265V142.812C151.265 143.952 151.738 144.522 152.684 144.522C153.664 144.522 154.325 144.171 154.668 143.468V137.019H156.685V146H154.784L154.734 145.12ZM160.885 146H158.868V137.019H160.885V146ZM158.744 134.686C158.744 134.376 158.84 134.119 159.034 133.914C159.233 133.709 159.516 133.607 159.881 133.607C160.246 133.607 160.528 133.709 160.728 133.914C160.927 134.119 161.026 134.376 161.026 134.686C161.026 134.99 160.927 135.245 160.728 135.45C160.528 135.649 160.246 135.749 159.881 135.749C159.516 135.749 159.233 135.649 159.034 135.45C158.84 135.245 158.744 134.99 158.744 134.686ZM167.792 138.861C167.526 138.817 167.252 138.795 166.97 138.795C166.046 138.795 165.423 139.149 165.102 139.857V146H163.085V137.019H165.011L165.061 138.023C165.548 137.243 166.223 136.853 167.086 136.853C167.374 136.853 167.612 136.891 167.8 136.969L167.792 138.861ZM172.855 146.166C171.577 146.166 170.539 145.765 169.742 144.962C168.951 144.154 168.555 143.081 168.555 141.742V141.493C168.555 140.596 168.727 139.797 169.07 139.094C169.418 138.385 169.905 137.835 170.531 137.442C171.156 137.049 171.853 136.853 172.623 136.853C173.846 136.853 174.789 137.243 175.453 138.023C176.123 138.803 176.458 139.907 176.458 141.335V142.148H170.589C170.65 142.89 170.896 143.477 171.328 143.908C171.765 144.34 172.313 144.556 172.971 144.556C173.895 144.556 174.648 144.182 175.229 143.435L176.316 144.473C175.957 145.009 175.475 145.427 174.872 145.726C174.274 146.019 173.602 146.166 172.855 146.166ZM172.614 138.471C172.061 138.471 171.613 138.665 171.27 139.052C170.932 139.44 170.716 139.979 170.622 140.671H174.465V140.521C174.421 139.846 174.241 139.337 173.926 138.994C173.61 138.646 173.173 138.471 172.614 138.471ZM177.653 141.443C177.653 140.059 177.974 138.95 178.616 138.114C179.258 137.273 180.118 136.853 181.197 136.853C182.149 136.853 182.918 137.185 183.505 137.849V133.25H185.522V146H183.696L183.596 145.07C182.993 145.801 182.188 146.166 181.181 146.166C180.129 146.166 179.277 145.743 178.624 144.896C177.977 144.049 177.653 142.898 177.653 141.443ZM179.67 141.617C179.67 142.53 179.844 143.244 180.193 143.759C180.547 144.268 181.048 144.522 181.695 144.522C182.52 144.522 183.123 144.154 183.505 143.418V139.583C183.134 138.864 182.536 138.504 181.712 138.504C181.059 138.504 180.555 138.764 180.201 139.285C179.847 139.799 179.67 140.577 179.67 141.617ZM22.644 169V161.513H21.2744V160.019H22.644V159.197C22.644 158.201 22.9207 157.431 23.4741 156.889C24.0275 156.347 24.8022 156.076 25.7983 156.076C26.1525 156.076 26.5288 156.125 26.9272 156.225L26.8774 157.802C26.6561 157.758 26.3988 157.736 26.1055 157.736C25.1426 157.736 24.6611 158.231 24.6611 159.222V160.019H26.4873V161.513H24.6611V169H22.644ZM27.583 164.426C27.583 163.546 27.7573 162.755 28.106 162.052C28.4546 161.344 28.9443 160.802 29.5752 160.425C30.2061 160.043 30.931 159.853 31.75 159.853C32.9619 159.853 33.9442 160.243 34.6968 161.023C35.4549 161.803 35.8644 162.838 35.9253 164.127L35.9336 164.601C35.9336 165.486 35.762 166.277 35.4189 166.975C35.0814 167.672 34.5944 168.211 33.958 168.593C33.3271 168.975 32.5967 169.166 31.7666 169.166C30.4993 169.166 29.4839 168.745 28.7202 167.904C27.9621 167.058 27.583 165.931 27.583 164.526V164.426ZM29.6001 164.601C29.6001 165.525 29.791 166.25 30.1729 166.775C30.5547 167.296 31.0859 167.556 31.7666 167.556C32.4473 167.556 32.9757 167.29 33.3521 166.759C33.7339 166.228 33.9248 165.45 33.9248 164.426C33.9248 163.519 33.7284 162.799 33.3354 162.268C32.9481 161.737 32.4196 161.471 31.75 161.471C31.0915 161.471 30.5685 161.734 30.1812 162.26C29.7938 162.78 29.6001 163.56 29.6001 164.601ZM42.3418 161.861C42.0762 161.817 41.8022 161.795 41.52 161.795C40.5959 161.795 39.9733 162.149 39.6523 162.857V169H37.6353V160.019H39.561L39.6108 161.023C40.0978 160.243 40.7729 159.853 41.6362 159.853C41.924 159.853 42.1619 159.891 42.3501 159.969L42.3418 161.861ZM50.1445 164.509V169H48.0444V156.914H52.668C54.0182 156.914 55.089 157.265 55.8804 157.968C56.6772 158.671 57.0757 159.601 57.0757 160.757C57.0757 161.942 56.6855 162.863 55.9053 163.521C55.1305 164.18 54.0431 164.509 52.6431 164.509H50.1445ZM50.1445 162.824H52.668C53.415 162.824 53.985 162.65 54.3779 162.301C54.7708 161.947 54.9673 161.438 54.9673 160.774C54.9673 160.121 54.7681 159.601 54.3696 159.213C53.9712 158.82 53.4233 158.618 52.7261 158.607H50.1445V162.824ZM64.2061 166.186H59.5244L58.5449 169H56.3618L60.9272 156.914H62.8115L67.3853 169H65.1938L64.2061 166.186ZM60.1138 164.493H63.6167L61.8652 159.479L60.1138 164.493ZM70.8633 164.509V169H68.7632V156.914H73.3867C74.737 156.914 75.8078 157.265 76.5991 157.968C77.396 158.671 77.7944 159.601 77.7944 160.757C77.7944 161.942 77.4043 162.863 76.624 163.521C75.8493 164.18 74.7619 164.509 73.3618 164.509H70.8633ZM70.8633 162.824H73.3867C74.1338 162.824 74.7038 162.65 75.0967 162.301C75.4896 161.947 75.686 161.438 75.686 160.774C75.686 160.121 75.4868 159.601 75.0884 159.213C74.6899 158.82 74.1421 158.618 73.4448 158.607H70.8633V162.824ZM88.3779 161.861C88.1123 161.817 87.8384 161.795 87.5562 161.795C86.632 161.795 86.0094 162.149 85.6885 162.857V169H83.6714V160.019H85.5972L85.647 161.023C86.134 160.243 86.8091 159.853 87.6724 159.853C87.9601 159.853 88.1981 159.891 88.3862 159.969L88.3779 161.861ZM93.4414 169.166C92.1631 169.166 91.1255 168.765 90.3286 167.962C89.5373 167.154 89.1416 166.081 89.1416 164.742V164.493C89.1416 163.596 89.3132 162.797 89.6562 162.094C90.0049 161.385 90.4919 160.835 91.1172 160.442C91.7425 160.049 92.4398 159.853 93.209 159.853C94.432 159.853 95.3755 160.243 96.0396 161.023C96.7091 161.803 97.0439 162.907 97.0439 164.335V165.148H91.1753C91.2362 165.89 91.4824 166.477 91.9141 166.908C92.3512 167.34 92.8991 167.556 93.5576 167.556C94.4818 167.556 95.2344 167.182 95.8154 166.435L96.9028 167.473C96.5431 168.009 96.0617 168.427 95.4585 168.726C94.8608 169.019 94.1885 169.166 93.4414 169.166ZM93.2007 161.471C92.6473 161.471 92.1991 161.665 91.856 162.052C91.5184 162.44 91.3026 162.979 91.2085 163.671H95.0518V163.521C95.0075 162.846 94.8276 162.337 94.5122 161.994C94.1968 161.646 93.7596 161.471 93.2007 161.471ZM98.2642 164.443C98.2642 163.048 98.5907 161.936 99.2437 161.106C99.9022 160.27 100.774 159.853 101.858 159.853C102.882 159.853 103.687 160.209 104.274 160.923L104.365 160.019H106.183V168.726C106.183 169.905 105.815 170.834 105.079 171.515C104.349 172.196 103.361 172.536 102.116 172.536C101.457 172.536 100.812 172.398 100.182 172.121C99.5563 171.85 99.0804 171.493 98.7539 171.05L99.7085 169.838C100.328 170.574 101.092 170.942 102 170.942C102.669 170.942 103.198 170.76 103.585 170.395C103.972 170.035 104.166 169.504 104.166 168.801V168.195C103.585 168.842 102.81 169.166 101.842 169.166C100.79 169.166 99.9299 168.748 99.2603 167.913C98.5962 167.077 98.2642 165.92 98.2642 164.443ZM100.273 164.617C100.273 165.519 100.456 166.23 100.821 166.75C101.192 167.265 101.703 167.522 102.356 167.522C103.17 167.522 103.773 167.174 104.166 166.477V162.525C103.784 161.845 103.187 161.504 102.373 161.504C101.709 161.504 101.192 161.767 100.821 162.293C100.456 162.819 100.273 163.593 100.273 164.617ZM110.408 169H108.391V160.019H110.408V169ZM108.267 157.686C108.267 157.376 108.363 157.119 108.557 156.914C108.756 156.709 109.039 156.607 109.404 156.607C109.769 156.607 110.051 156.709 110.25 156.914C110.45 157.119 110.549 157.376 110.549 157.686C110.549 157.99 110.45 158.245 110.25 158.45C110.051 158.649 109.769 158.749 109.404 158.749C109.039 158.749 108.756 158.649 108.557 158.45C108.363 158.245 108.267 157.99 108.267 157.686ZM117.646 166.56C117.646 166.2 117.497 165.926 117.198 165.738C116.905 165.55 116.415 165.384 115.729 165.24C115.043 165.096 114.47 164.913 114.011 164.692C113.004 164.205 112.5 163.499 112.5 162.575C112.5 161.8 112.826 161.153 113.479 160.633C114.132 160.113 114.963 159.853 115.97 159.853C117.043 159.853 117.909 160.118 118.568 160.649C119.232 161.181 119.564 161.87 119.564 162.716H117.547C117.547 162.329 117.403 162.008 117.115 161.753C116.827 161.493 116.446 161.363 115.97 161.363C115.527 161.363 115.165 161.466 114.882 161.67C114.606 161.875 114.467 162.149 114.467 162.492C114.467 162.802 114.597 163.043 114.857 163.214C115.118 163.386 115.643 163.56 116.435 163.737C117.226 163.909 117.846 164.116 118.294 164.36C118.748 164.598 119.083 164.886 119.298 165.223C119.52 165.561 119.63 165.97 119.63 166.452C119.63 167.26 119.296 167.915 118.626 168.419C117.956 168.917 117.079 169.166 115.995 169.166C115.259 169.166 114.603 169.033 114.027 168.768C113.452 168.502 113.004 168.137 112.683 167.672C112.362 167.207 112.201 166.706 112.201 166.169H114.16C114.188 166.645 114.368 167.013 114.7 167.273C115.032 167.528 115.472 167.655 116.02 167.655C116.551 167.655 116.955 167.556 117.231 167.356C117.508 167.152 117.646 166.886 117.646 166.56ZM123.922 157.835V160.019H125.507V161.513H123.922V166.526C123.922 166.869 123.988 167.118 124.121 167.273C124.259 167.423 124.503 167.498 124.852 167.498C125.084 167.498 125.319 167.47 125.557 167.415V168.975C125.098 169.102 124.655 169.166 124.229 169.166C122.68 169.166 121.905 168.311 121.905 166.601V161.513H120.427V160.019H121.905V157.835H123.922ZM131.758 161.861C131.492 161.817 131.218 161.795 130.936 161.795C130.012 161.795 129.389 162.149 129.068 162.857V169H127.051V160.019H128.977L129.027 161.023C129.514 160.243 130.189 159.853 131.052 159.853C131.34 159.853 131.578 159.891 131.766 159.969L131.758 161.861ZM138.149 169C138.061 168.828 137.983 168.549 137.917 168.162C137.275 168.831 136.489 169.166 135.56 169.166C134.658 169.166 133.922 168.909 133.352 168.394C132.782 167.879 132.497 167.243 132.497 166.485C132.497 165.528 132.851 164.794 133.559 164.285C134.273 163.771 135.291 163.513 136.614 163.513H137.851V162.924C137.851 162.459 137.721 162.088 137.46 161.812C137.2 161.529 136.805 161.388 136.273 161.388C135.814 161.388 135.438 161.504 135.145 161.737C134.851 161.964 134.705 162.254 134.705 162.608H132.688C132.688 162.116 132.851 161.657 133.177 161.23C133.504 160.799 133.946 160.461 134.505 160.218C135.07 159.974 135.698 159.853 136.39 159.853C137.441 159.853 138.279 160.118 138.905 160.649C139.53 161.175 139.851 161.917 139.868 162.874V166.925C139.868 167.733 139.981 168.377 140.208 168.859V169H138.149ZM135.933 167.547C136.332 167.547 136.705 167.451 137.054 167.257C137.408 167.063 137.674 166.803 137.851 166.477V164.783H136.763C136.016 164.783 135.454 164.913 135.078 165.173C134.702 165.433 134.514 165.801 134.514 166.277C134.514 166.665 134.641 166.975 134.896 167.207C135.156 167.434 135.501 167.547 135.933 167.547ZM144.508 157.835V160.019H146.093V161.513H144.508V166.526C144.508 166.869 144.574 167.118 144.707 167.273C144.845 167.423 145.089 167.498 145.438 167.498C145.67 167.498 145.905 167.47 146.143 167.415V168.975C145.684 169.102 145.241 169.166 144.815 169.166C143.265 169.166 142.491 168.311 142.491 166.601V161.513H141.013V160.019H142.491V157.835H144.508ZM149.787 169H147.77V160.019H149.787V169ZM147.646 157.686C147.646 157.376 147.742 157.119 147.936 156.914C148.135 156.709 148.417 156.607 148.783 156.607C149.148 156.607 149.43 156.709 149.629 156.914C149.829 157.119 149.928 157.376 149.928 157.686C149.928 157.99 149.829 158.245 149.629 158.45C149.43 158.649 149.148 158.749 148.783 158.749C148.417 158.749 148.135 158.649 147.936 158.45C147.742 158.245 147.646 157.99 147.646 157.686ZM151.613 164.426C151.613 163.546 151.788 162.755 152.136 162.052C152.485 161.344 152.975 160.802 153.605 160.425C154.236 160.043 154.961 159.853 155.78 159.853C156.992 159.853 157.974 160.243 158.727 161.023C159.485 161.803 159.895 162.838 159.956 164.127L159.964 164.601C159.964 165.486 159.792 166.277 159.449 166.975C159.112 167.672 158.625 168.211 157.988 168.593C157.357 168.975 156.627 169.166 155.797 169.166C154.53 169.166 153.514 168.745 152.75 167.904C151.992 167.058 151.613 165.931 151.613 164.526V164.426ZM153.63 164.601C153.63 165.525 153.821 166.25 154.203 166.775C154.585 167.296 155.116 167.556 155.797 167.556C156.478 167.556 157.006 167.29 157.382 166.759C157.764 166.228 157.955 165.45 157.955 164.426C157.955 163.519 157.759 162.799 157.366 162.268C156.978 161.737 156.45 161.471 155.78 161.471C155.122 161.471 154.599 161.734 154.211 162.26C153.824 162.78 153.63 163.56 153.63 164.601ZM163.542 160.019L163.6 161.056C164.264 160.254 165.135 159.853 166.214 159.853C168.085 159.853 169.037 160.923 169.07 163.065V169H167.053V163.181C167.053 162.611 166.928 162.191 166.679 161.919C166.436 161.643 166.035 161.504 165.476 161.504C164.662 161.504 164.056 161.872 163.658 162.608V169H161.641V160.019H163.542Z" fill="#262626"/>
<path d="M115.874 37.3107L107.724 29.1607C106.991 28.4633 106.018 28.0743 105.007 28.0743C103.996 28.0743 103.023 28.4633 102.29 29.1607L99.2166 32.2342C99.1058 32.3522 98.9727 32.4469 98.8249 32.5128C98.6772 32.5788 98.5178 32.6147 98.356 32.6184C97.3046 32.6005 94.3514 32.0882 89.6131 27.3499C84.8747 22.6115 84.3625 19.666 84.3548 18.6082C84.3569 18.4462 84.3913 18.2861 84.4559 18.1375C84.5206 17.9889 84.6142 17.8546 84.7313 17.7425C84.8594 17.6081 87.9764 14.4974 87.8048 14.669C88.5239 13.9476 88.9277 12.9706 88.9277 11.9521C88.9277 10.9336 88.5239 9.95658 87.8048 9.23524L79.6548 1.08525C78.9221 0.388527 77.9497 0 76.9386 0C75.9275 0 74.9551 0.388527 74.2224 1.08525L71.2206 4.08707C70.5903 4.71532 70.1986 5.54356 70.1128 6.42936C69.7555 10.229 69.5199 23.5566 81.4631 35.4999C90.1894 44.2261 101.313 47.7197 110.534 46.8502C111.42 46.7651 112.248 46.3733 112.876 45.7424L115.875 42.7444C116.232 42.3876 116.515 41.964 116.708 41.4977C116.901 41.0315 117 40.5319 117 40.0273C117 39.5227 116.9 39.0231 116.707 38.557C116.514 38.0909 116.231 37.6674 115.874 37.3107ZM105.913 30.9715L114.063 39.1228C114.303 39.3629 114.437 39.6883 114.437 40.0276C114.437 40.3668 114.303 40.6922 114.063 40.9323L113.158 41.839L103.197 31.8782L104.102 30.9728C104.347 30.7412 104.671 30.6121 105.007 30.6119C105.344 30.6116 105.668 30.7403 105.913 30.9715ZM77.8415 2.89992L85.9914 11.0499C86.1105 11.1688 86.205 11.3101 86.2694 11.4655C86.3339 11.621 86.367 11.7877 86.367 11.956C86.367 12.1242 86.3339 12.2909 86.2694 12.4464C86.205 12.6018 86.1105 12.7431 85.9914 12.862L85.086 13.7661L75.1252 3.80533L76.0306 2.89992C76.2753 2.66854 76.5993 2.53962 76.936 2.53962C77.2728 2.53962 77.5968 2.66854 77.8415 2.89992ZM110.294 44.3004C106.777 44.6334 94.4283 44.8421 83.2726 33.689C72.117 22.536 72.3322 10.1893 72.6638 6.66756C72.7399 6.24775 72.9719 5.87221 73.3131 5.61615L83.2739 15.577C82.8246 15.9488 82.4601 16.4125 82.2047 16.9369C81.9494 17.4612 81.8092 18.0342 81.7935 18.6172C81.7935 20.6918 82.8475 24.2059 87.8023 29.1607C92.7571 34.1155 96.2724 35.1618 98.3445 35.1707H98.3586C98.9361 35.1372 99.5012 34.9889 100.021 34.7345C100.54 34.4801 101.004 34.1247 101.385 33.689L111.347 43.6498C111.09 43.9916 110.714 44.2239 110.294 44.3004Z" fill="#666666"/>
</svg>
