<svg width="129" height="153" viewBox="0 0 129 153" fill="none" xmlns="http://www.w3.org/2000/svg">
<path d="M13.9731 97.8872C13.9731 97.356 13.785 96.9465 13.4087 96.6587C13.0379 96.3709 12.3656 96.0804 11.3916 95.7871C10.4176 95.4938 9.6429 95.1673 9.06738 94.8076C7.96615 94.1159 7.41553 93.2139 7.41553 92.1016C7.41553 91.1276 7.8112 90.3252 8.60254 89.6943C9.39941 89.0635 10.4315 88.748 11.6987 88.748C12.5399 88.748 13.2897 88.903 13.9482 89.2129C14.6068 89.5228 15.1242 89.9655 15.5005 90.541C15.8768 91.111 16.0649 91.7446 16.0649 92.4419H13.9731C13.9731 91.811 13.7739 91.3185 13.3755 90.9644C12.9826 90.6047 12.4181 90.4248 11.6821 90.4248C10.9959 90.4248 10.4619 90.5715 10.0801 90.8647C9.70378 91.158 9.51562 91.5675 9.51562 92.0933C9.51562 92.536 9.72038 92.9067 10.1299 93.2056C10.5394 93.4989 11.2145 93.7866 12.1553 94.0688C13.096 94.3455 13.8514 94.6637 14.4214 95.0234C14.9914 95.3776 15.4092 95.7871 15.6748 96.252C15.9404 96.7113 16.0732 97.2508 16.0732 97.8706C16.0732 98.8778 15.6859 99.6802 14.9111 100.278C14.1419 100.87 13.096 101.166 11.7734 101.166C10.8991 101.166 10.0939 101.006 9.35791 100.685C8.62744 100.358 8.05745 99.9098 7.64795 99.3398C7.24398 98.7699 7.04199 98.1058 7.04199 97.3477H9.14209C9.14209 98.0339 9.36898 98.5651 9.82275 98.9414C10.2765 99.3177 10.9268 99.5059 11.7734 99.5059C12.5039 99.5059 13.0518 99.3592 13.417 99.0659C13.7878 98.7671 13.9731 98.3742 13.9731 97.8872ZM21.6763 101.166C20.3979 101.166 19.3604 100.765 18.5635 99.9624C17.7721 99.1545 17.3765 98.0809 17.3765 96.7417V96.4927C17.3765 95.5962 17.548 94.7965 17.8911 94.0938C18.2397 93.3854 18.7267 92.8348 19.3521 92.4419C19.9774 92.049 20.6746 91.8525 21.4438 91.8525C22.6668 91.8525 23.6104 92.2427 24.2744 93.0229C24.944 93.8032 25.2788 94.9072 25.2788 96.335V97.1484H19.4102C19.471 97.89 19.7173 98.4766 20.1489 98.9082C20.5861 99.3398 21.134 99.5557 21.7925 99.5557C22.7166 99.5557 23.4692 99.1821 24.0503 98.4351L25.1377 99.4727C24.778 100.009 24.2965 100.427 23.6934 100.726C23.0957 101.019 22.4233 101.166 21.6763 101.166ZM21.4355 93.4712C20.8822 93.4712 20.4339 93.6649 20.0908 94.0522C19.7533 94.4396 19.5374 94.9792 19.4434 95.6709H23.2866V95.5215C23.2424 94.8464 23.0625 94.3372 22.7471 93.9941C22.4316 93.6455 21.9945 93.4712 21.4355 93.4712ZM32.2183 101C32.1297 100.828 32.0522 100.549 31.9858 100.162C31.3439 100.831 30.5581 101.166 29.6284 101.166C28.7264 101.166 27.9904 100.909 27.4204 100.394C26.8504 99.8794 26.5654 99.243 26.5654 98.4849C26.5654 97.5275 26.9196 96.7943 27.6279 96.2852C28.3418 95.7705 29.36 95.5132 30.6826 95.5132H31.9194V94.9238C31.9194 94.459 31.7894 94.0882 31.5293 93.8115C31.2692 93.5293 30.8735 93.3882 30.3423 93.3882C29.883 93.3882 29.5067 93.5044 29.2134 93.7368C28.9201 93.9637 28.7734 94.2542 28.7734 94.6084H26.7563C26.7563 94.1159 26.9196 93.6566 27.2461 93.2305C27.5726 92.7988 28.0153 92.4613 28.5742 92.2178C29.1387 91.9743 29.7668 91.8525 30.4585 91.8525C31.5099 91.8525 32.3483 92.1182 32.9736 92.6494C33.599 93.1751 33.9199 93.9167 33.9365 94.874V98.9248C33.9365 99.7327 34.05 100.377 34.2769 100.859V101H32.2183ZM30.002 99.5474C30.4004 99.5474 30.7739 99.4505 31.1226 99.2568C31.4767 99.0632 31.7424 98.8031 31.9194 98.4766V96.7832H30.832C30.085 96.7832 29.5233 96.9132 29.147 97.1733C28.7707 97.4334 28.5825 97.8014 28.5825 98.2773C28.5825 98.6647 28.7098 98.9746 28.9644 99.207C29.2244 99.4339 29.5703 99.5474 30.002 99.5474ZM40.7515 93.8613C40.4858 93.8171 40.2119 93.7949 39.9297 93.7949C39.0055 93.7949 38.383 94.1491 38.062 94.8574V101H36.0449V92.0186H37.9707L38.0205 93.0229C38.5075 92.2427 39.1826 91.8525 40.0459 91.8525C40.3337 91.8525 40.5716 91.8913 40.7598 91.9688L40.7515 93.8613ZM45.5493 99.5557C46.0529 99.5557 46.4707 99.409 46.8027 99.1157C47.1348 98.8224 47.3118 98.46 47.334 98.0283H49.2349C49.2127 98.5872 49.0384 99.1102 48.7119 99.5972C48.3854 100.079 47.9427 100.46 47.3838 100.743C46.8249 101.025 46.2217 101.166 45.5742 101.166C44.318 101.166 43.3219 100.759 42.5859 99.9458C41.8499 99.1323 41.4819 98.009 41.4819 96.5757V96.3682C41.4819 95.0013 41.8472 93.9084 42.5776 93.0894C43.3081 92.2648 44.3042 91.8525 45.5659 91.8525C46.634 91.8525 47.5028 92.1652 48.1724 92.7905C48.8475 93.4103 49.2017 94.2266 49.2349 95.2393H47.334C47.3118 94.7246 47.1348 94.3013 46.8027 93.9692C46.4762 93.6372 46.0584 93.4712 45.5493 93.4712C44.8963 93.4712 44.3927 93.7091 44.0386 94.1851C43.6844 94.6554 43.5046 95.3721 43.499 96.335V96.6587C43.499 97.6326 43.6733 98.3604 44.022 98.8418C44.3761 99.3177 44.8853 99.5557 45.5493 99.5557ZM52.7461 92.998C53.4046 92.2344 54.2375 91.8525 55.2446 91.8525C57.1593 91.8525 58.1305 92.9455 58.1582 95.1313V101H56.1411V95.2061C56.1411 94.5863 56.0055 94.1491 55.7344 93.8945C55.4688 93.6344 55.0758 93.5044 54.5557 93.5044C53.7477 93.5044 53.1445 93.8641 52.7461 94.5835V101H50.729V88.25H52.7461V92.998ZM65.1475 101V93.5127H63.7778V92.0186H65.1475V91.1968C65.1475 90.2007 65.4242 89.4315 65.9775 88.8892C66.5309 88.3468 67.3057 88.0757 68.3018 88.0757C68.6559 88.0757 69.0322 88.1255 69.4307 88.2251L69.3809 89.8022C69.1595 89.758 68.9022 89.7358 68.6089 89.7358C67.646 89.7358 67.1646 90.2311 67.1646 91.2217V92.0186H68.9907V93.5127H67.1646V101H65.1475ZM70.0864 96.4263C70.0864 95.5464 70.2607 94.755 70.6094 94.0522C70.958 93.3439 71.4478 92.8016 72.0786 92.4253C72.7095 92.0435 73.4344 91.8525 74.2534 91.8525C75.4653 91.8525 76.4476 92.2427 77.2002 93.0229C77.9583 93.8032 78.3678 94.8381 78.4287 96.1274L78.437 96.6006C78.437 97.486 78.2655 98.2773 77.9224 98.9746C77.5848 99.6719 77.0978 100.211 76.4614 100.593C75.8306 100.975 75.1001 101.166 74.27 101.166C73.0028 101.166 71.9873 100.745 71.2236 99.9043C70.4655 99.0576 70.0864 97.9315 70.0864 96.5259V96.4263ZM72.1035 96.6006C72.1035 97.5247 72.2944 98.2497 72.6763 98.7754C73.0581 99.2956 73.5894 99.5557 74.27 99.5557C74.9507 99.5557 75.4792 99.29 75.8555 98.7588C76.2373 98.2275 76.4282 97.45 76.4282 96.4263C76.4282 95.5187 76.2318 94.7993 75.8389 94.2681C75.4515 93.7368 74.923 93.4712 74.2534 93.4712C73.5949 93.4712 73.0719 93.734 72.6846 94.2598C72.2972 94.7799 72.1035 95.5602 72.1035 96.6006ZM84.8452 93.8613C84.5796 93.8171 84.3057 93.7949 84.0234 93.7949C83.0993 93.7949 82.4767 94.1491 82.1558 94.8574V101H80.1387V92.0186H82.0645L82.1143 93.0229C82.6012 92.2427 83.2764 91.8525 84.1396 91.8525C84.4274 91.8525 84.6654 91.8913 84.8535 91.9688L84.8452 93.8613ZM93.4946 98.1113L95.3208 92.0186H97.4707L93.9014 102.361C93.3535 103.872 92.4238 104.627 91.1123 104.627C90.819 104.627 90.4953 104.578 90.1411 104.478V102.917L90.5229 102.942C91.0321 102.942 91.4139 102.848 91.6685 102.66C91.9285 102.478 92.1333 102.168 92.2827 101.73L92.5732 100.958L89.4189 92.0186H91.5938L93.4946 98.1113ZM98.1265 96.4263C98.1265 95.5464 98.3008 94.755 98.6494 94.0522C98.998 93.3439 99.4878 92.8016 100.119 92.4253C100.75 92.0435 101.474 91.8525 102.293 91.8525C103.505 91.8525 104.488 92.2427 105.24 93.0229C105.998 93.8032 106.408 94.8381 106.469 96.1274L106.477 96.6006C106.477 97.486 106.306 98.2773 105.962 98.9746C105.625 99.6719 105.138 100.211 104.501 100.593C103.871 100.975 103.14 101.166 102.31 101.166C101.043 101.166 100.027 100.745 99.2637 99.9043C98.5055 99.0576 98.1265 97.9315 98.1265 96.5259V96.4263ZM100.144 96.6006C100.144 97.5247 100.334 98.2497 100.716 98.7754C101.098 99.2956 101.629 99.5557 102.31 99.5557C102.991 99.5557 103.519 99.29 103.896 98.7588C104.277 98.2275 104.468 97.45 104.468 96.4263C104.468 95.5187 104.272 94.7993 103.879 94.2681C103.492 93.7368 102.963 93.4712 102.293 93.4712C101.635 93.4712 101.112 93.734 100.725 94.2598C100.337 94.7799 100.144 95.5602 100.144 96.6006ZM113.624 100.12C113.032 100.817 112.191 101.166 111.101 101.166C110.127 101.166 109.388 100.881 108.884 100.311C108.386 99.741 108.137 98.9165 108.137 97.8374V92.0186H110.154V97.8125C110.154 98.9525 110.627 99.5225 111.574 99.5225C112.553 99.5225 113.215 99.1711 113.558 98.4683V92.0186H115.575V101H113.674L113.624 100.12ZM122.332 93.8613C122.066 93.8171 121.792 93.7949 121.51 93.7949C120.586 93.7949 119.963 94.1491 119.642 94.8574V101H117.625V92.0186H119.551L119.601 93.0229C120.088 92.2427 120.763 91.8525 121.626 91.8525C121.914 91.8525 122.152 91.8913 122.34 91.9688L122.332 93.8613ZM27.769 119.601C27.769 120.99 27.4536 122.099 26.8228 122.929C26.1919 123.754 25.3452 124.166 24.2827 124.166C23.2977 124.166 22.5091 123.842 21.917 123.195V127.453H19.8999V115.019H21.7593L21.8423 115.932C22.4344 115.212 23.2396 114.853 24.2578 114.853C25.3535 114.853 26.2113 115.262 26.8311 116.081C27.4564 116.895 27.769 118.026 27.769 119.476V119.601ZM25.7603 119.426C25.7603 118.53 25.5804 117.819 25.2207 117.293C24.8665 116.767 24.3574 116.504 23.6934 116.504C22.8688 116.504 22.2767 116.845 21.917 117.525V121.51C22.2822 122.207 22.8799 122.556 23.71 122.556C24.3519 122.556 24.8527 122.298 25.2124 121.784C25.5776 121.264 25.7603 120.478 25.7603 119.426ZM34.1855 116.861C33.9199 116.817 33.646 116.795 33.3638 116.795C32.4396 116.795 31.8171 117.149 31.4961 117.857V124H29.479V115.019H31.4048L31.4546 116.023C31.9416 115.243 32.6167 114.853 33.48 114.853C33.7677 114.853 34.0057 114.891 34.1938 114.969L34.1855 116.861ZM39.249 124.166C37.9707 124.166 36.9331 123.765 36.1362 122.962C35.3449 122.154 34.9492 121.081 34.9492 119.742V119.493C34.9492 118.596 35.1208 117.797 35.4639 117.094C35.8125 116.385 36.2995 115.835 36.9248 115.442C37.5501 115.049 38.2474 114.853 39.0166 114.853C40.2396 114.853 41.1831 115.243 41.8472 116.023C42.5168 116.803 42.8516 117.907 42.8516 119.335V120.148H36.9829C37.0438 120.89 37.29 121.477 37.7217 121.908C38.1589 122.34 38.7067 122.556 39.3652 122.556C40.2894 122.556 41.042 122.182 41.623 121.435L42.7104 122.473C42.3507 123.009 41.8693 123.427 41.2661 123.726C40.6685 124.019 39.9961 124.166 39.249 124.166ZM39.0083 116.471C38.4549 116.471 38.0067 116.665 37.6636 117.052C37.326 117.44 37.1102 117.979 37.0161 118.671H40.8594V118.521C40.8151 117.846 40.6353 117.337 40.3198 116.994C40.0044 116.646 39.5672 116.471 39.0083 116.471ZM49.459 121.56C49.459 121.2 49.3096 120.926 49.0107 120.738C48.7174 120.55 48.2277 120.384 47.5415 120.24C46.8553 120.096 46.2826 119.913 45.8232 119.692C44.8161 119.205 44.3125 118.499 44.3125 117.575C44.3125 116.8 44.639 116.153 45.292 115.633C45.945 115.113 46.7751 114.853 47.7822 114.853C48.8558 114.853 49.7218 115.118 50.3804 115.649C51.0444 116.181 51.3765 116.87 51.3765 117.716H49.3594C49.3594 117.329 49.2155 117.008 48.9277 116.753C48.64 116.493 48.2581 116.363 47.7822 116.363C47.3395 116.363 46.9771 116.466 46.6948 116.67C46.4181 116.875 46.2798 117.149 46.2798 117.492C46.2798 117.802 46.4098 118.043 46.6699 118.214C46.93 118.386 47.4557 118.56 48.2471 118.737C49.0384 118.909 49.6582 119.116 50.1064 119.36C50.5602 119.598 50.895 119.886 51.1108 120.223C51.3322 120.561 51.4429 120.97 51.4429 121.452C51.4429 122.26 51.1081 122.915 50.4385 123.419C49.7689 123.917 48.8918 124.166 47.8071 124.166C47.0711 124.166 46.4154 124.033 45.8398 123.768C45.2643 123.502 44.8161 123.137 44.4951 122.672C44.1742 122.207 44.0137 121.706 44.0137 121.169H45.9727C46.0003 121.645 46.1802 122.013 46.5122 122.273C46.8442 122.528 47.2842 122.655 47.832 122.655C48.3633 122.655 48.7673 122.556 49.0439 122.356C49.3206 122.152 49.459 121.886 49.459 121.56ZM56.8965 122.556C57.4001 122.556 57.8179 122.409 58.1499 122.116C58.4819 121.822 58.659 121.46 58.6812 121.028H60.582C60.5599 121.587 60.3856 122.11 60.0591 122.597C59.7326 123.079 59.2899 123.46 58.731 123.743C58.172 124.025 57.5688 124.166 56.9214 124.166C55.6652 124.166 54.6691 123.759 53.9331 122.946C53.1971 122.132 52.8291 121.009 52.8291 119.576V119.368C52.8291 118.001 53.1943 116.908 53.9248 116.089C54.6553 115.265 55.6514 114.853 56.9131 114.853C57.9811 114.853 58.8499 115.165 59.5195 115.791C60.1947 116.41 60.5488 117.227 60.582 118.239H58.6812C58.659 117.725 58.4819 117.301 58.1499 116.969C57.8234 116.637 57.4056 116.471 56.8965 116.471C56.2435 116.471 55.7399 116.709 55.3857 117.185C55.0316 117.655 54.8517 118.372 54.8462 119.335V119.659C54.8462 120.633 55.0205 121.36 55.3691 121.842C55.7233 122.318 56.2324 122.556 56.8965 122.556ZM66.8076 116.861C66.542 116.817 66.2681 116.795 65.9858 116.795C65.0617 116.795 64.4391 117.149 64.1182 117.857V124H62.1011V115.019H64.0269L64.0767 116.023C64.5636 115.243 65.2388 114.853 66.1021 114.853C66.3898 114.853 66.6278 114.891 66.8159 114.969L66.8076 116.861ZM70.2275 124H68.2104V115.019H70.2275V124ZM68.0859 112.686C68.0859 112.376 68.1828 112.119 68.3765 111.914C68.5757 111.709 68.8579 111.607 69.2231 111.607C69.5884 111.607 69.8706 111.709 70.0698 111.914C70.269 112.119 70.3687 112.376 70.3687 112.686C70.3687 112.99 70.269 113.245 70.0698 113.45C69.8706 113.649 69.5884 113.749 69.2231 113.749C68.8579 113.749 68.5757 113.649 68.3765 113.45C68.1828 113.245 68.0859 112.99 68.0859 112.686ZM80.2964 119.601C80.2964 120.99 79.981 122.099 79.3501 122.929C78.7192 123.754 77.8726 124.166 76.8101 124.166C75.825 124.166 75.0365 123.842 74.4443 123.195V127.453H72.4272V115.019H74.2866L74.3696 115.932C74.9618 115.212 75.7669 114.853 76.7852 114.853C77.8809 114.853 78.7386 115.262 79.3584 116.081C79.9837 116.895 80.2964 118.026 80.2964 119.476V119.601ZM78.2876 119.426C78.2876 118.53 78.1077 117.819 77.748 117.293C77.3939 116.767 76.8848 116.504 76.2207 116.504C75.3962 116.504 74.804 116.845 74.4443 117.525V121.51C74.8096 122.207 75.4072 122.556 76.2373 122.556C76.8792 122.556 77.38 122.298 77.7397 121.784C78.105 121.264 78.2876 120.478 78.2876 119.426ZM84.5381 112.835V115.019H86.1235V116.513H84.5381V121.526C84.5381 121.869 84.6045 122.118 84.7373 122.273C84.8757 122.423 85.1191 122.498 85.4678 122.498C85.7002 122.498 85.9354 122.47 86.1733 122.415V123.975C85.714 124.102 85.2713 124.166 84.8452 124.166C83.2957 124.166 82.521 123.311 82.521 121.601V116.513H81.0435V115.019H82.521V112.835H84.5381ZM89.8174 124H87.8003V115.019H89.8174V124ZM87.6758 112.686C87.6758 112.376 87.7726 112.119 87.9663 111.914C88.1655 111.709 88.4478 111.607 88.813 111.607C89.1782 111.607 89.4604 111.709 89.6597 111.914C89.8589 112.119 89.9585 112.376 89.9585 112.686C89.9585 112.99 89.8589 113.245 89.6597 113.45C89.4604 113.649 89.1782 113.749 88.813 113.749C88.4478 113.749 88.1655 113.649 87.9663 113.45C87.7726 113.245 87.6758 112.99 87.6758 112.686ZM91.6436 119.426C91.6436 118.546 91.8179 117.755 92.1665 117.052C92.5151 116.344 93.0049 115.802 93.6357 115.425C94.2666 115.043 94.9915 114.853 95.8105 114.853C97.0225 114.853 98.0047 115.243 98.7573 116.023C99.5155 116.803 99.925 117.838 99.9858 119.127L99.9941 119.601C99.9941 120.486 99.8226 121.277 99.4795 121.975C99.1419 122.672 98.6549 123.211 98.0186 123.593C97.3877 123.975 96.6572 124.166 95.8271 124.166C94.5599 124.166 93.5444 123.745 92.7808 122.904C92.0226 122.058 91.6436 120.931 91.6436 119.526V119.426ZM93.6606 119.601C93.6606 120.525 93.8516 121.25 94.2334 121.775C94.6152 122.296 95.1465 122.556 95.8271 122.556C96.5078 122.556 97.0363 122.29 97.4126 121.759C97.7944 121.228 97.9854 120.45 97.9854 119.426C97.9854 118.519 97.7889 117.799 97.396 117.268C97.0086 116.737 96.4801 116.471 95.8105 116.471C95.152 116.471 94.6291 116.734 94.2417 117.26C93.8543 117.78 93.6606 118.56 93.6606 119.601ZM103.572 115.019L103.63 116.056C104.294 115.254 105.166 114.853 106.245 114.853C108.115 114.853 109.067 115.923 109.1 118.065V124H107.083V118.181C107.083 117.611 106.958 117.191 106.709 116.919C106.466 116.643 106.065 116.504 105.506 116.504C104.692 116.504 104.086 116.872 103.688 117.608V124H101.671V115.019H103.572ZM32.5752 138.019L32.6333 138.957C33.2642 138.221 34.1274 137.853 35.2231 137.853C36.424 137.853 37.2458 138.312 37.6885 139.23C38.3415 138.312 39.2601 137.853 40.4443 137.853C41.4349 137.853 42.1709 138.126 42.6523 138.674C43.1393 139.222 43.3883 140.03 43.3994 141.098V147H41.3823V141.156C41.3823 140.586 41.2578 140.168 41.0088 139.903C40.7598 139.637 40.3475 139.504 39.772 139.504C39.3127 139.504 38.9364 139.629 38.6431 139.878C38.3553 140.121 38.1533 140.442 38.0371 140.841L38.0454 147H36.0283V141.09C36.0007 140.033 35.4611 139.504 34.4097 139.504C33.6017 139.504 33.029 139.834 32.6914 140.492V147H30.6743V138.019H32.5752ZM49.4258 147.166C48.1475 147.166 47.1099 146.765 46.313 145.962C45.5216 145.154 45.126 144.081 45.126 142.742V142.493C45.126 141.596 45.2975 140.797 45.6406 140.094C45.9893 139.385 46.4762 138.835 47.1016 138.442C47.7269 138.049 48.4242 137.853 49.1934 137.853C50.4163 137.853 51.3599 138.243 52.0239 139.023C52.6935 139.803 53.0283 140.907 53.0283 142.335V143.148H47.1597C47.2205 143.89 47.4668 144.477 47.8984 144.908C48.3356 145.34 48.8835 145.556 49.542 145.556C50.4661 145.556 51.2188 145.182 51.7998 144.435L52.8872 145.473C52.5275 146.009 52.0461 146.427 51.4429 146.726C50.8452 147.019 50.1729 147.166 49.4258 147.166ZM49.1851 139.471C48.6317 139.471 48.1834 139.665 47.8403 140.052C47.5028 140.44 47.2869 140.979 47.1929 141.671H51.0361V141.521C50.9919 140.846 50.812 140.337 50.4966 139.994C50.1812 139.646 49.744 139.471 49.1851 139.471ZM54.2236 142.443C54.2236 141.059 54.5446 139.95 55.1865 139.114C55.8285 138.273 56.689 137.853 57.7681 137.853C58.7199 137.853 59.4891 138.185 60.0757 138.849V134.25H62.0928V147H60.2666L60.167 146.07C59.5638 146.801 58.7586 147.166 57.7515 147.166C56.7 147.166 55.8478 146.743 55.1948 145.896C54.5474 145.049 54.2236 143.898 54.2236 142.443ZM56.2407 142.617C56.2407 143.53 56.415 144.244 56.7637 144.759C57.1178 145.268 57.6187 145.522 58.2661 145.522C59.0907 145.522 59.6938 145.154 60.0757 144.418V140.583C59.7049 139.864 59.1073 139.504 58.2827 139.504C57.6297 139.504 57.1261 139.764 56.772 140.285C56.4178 140.799 56.2407 141.577 56.2407 142.617ZM66.3428 147H64.3257V138.019H66.3428V147ZM64.2012 135.686C64.2012 135.376 64.298 135.119 64.4917 134.914C64.6909 134.709 64.9731 134.607 65.3384 134.607C65.7036 134.607 65.9858 134.709 66.1851 134.914C66.3843 135.119 66.4839 135.376 66.4839 135.686C66.4839 135.99 66.3843 136.245 66.1851 136.45C65.9858 136.649 65.7036 136.749 65.3384 136.749C64.9731 136.749 64.6909 136.649 64.4917 136.45C64.298 136.245 64.2012 135.99 64.2012 135.686ZM72.2363 145.556C72.7399 145.556 73.1577 145.409 73.4897 145.116C73.8218 144.822 73.9989 144.46 74.021 144.028H75.9219C75.8997 144.587 75.7254 145.11 75.3989 145.597C75.0724 146.079 74.6297 146.46 74.0708 146.743C73.5119 147.025 72.9087 147.166 72.2612 147.166C71.005 147.166 70.009 146.759 69.2729 145.946C68.5369 145.132 68.1689 144.009 68.1689 142.576V142.368C68.1689 141.001 68.5342 139.908 69.2646 139.089C69.9951 138.265 70.9912 137.853 72.2529 137.853C73.321 137.853 74.1898 138.165 74.8594 138.791C75.5345 139.41 75.8887 140.227 75.9219 141.239H74.021C73.9989 140.725 73.8218 140.301 73.4897 139.969C73.1632 139.637 72.7454 139.471 72.2363 139.471C71.5833 139.471 71.0798 139.709 70.7256 140.185C70.3714 140.655 70.1916 141.372 70.186 142.335V142.659C70.186 143.633 70.3604 144.36 70.709 144.842C71.0632 145.318 71.5723 145.556 72.2363 145.556ZM79.5908 147H77.5737V138.019H79.5908V147ZM77.4492 135.686C77.4492 135.376 77.5461 135.119 77.7397 134.914C77.939 134.709 78.2212 134.607 78.5864 134.607C78.9517 134.607 79.2339 134.709 79.4331 134.914C79.6323 135.119 79.7319 135.376 79.7319 135.686C79.7319 135.99 79.6323 136.245 79.4331 136.45C79.2339 136.649 78.9517 136.749 78.5864 136.749C78.2212 136.749 77.939 136.649 77.7397 136.45C77.5461 136.245 77.4492 135.99 77.4492 135.686ZM83.6665 138.019L83.7246 139.056C84.3887 138.254 85.2603 137.853 86.3394 137.853C88.2098 137.853 89.1616 138.923 89.1948 141.065V147H87.1777V141.181C87.1777 140.611 87.0532 140.191 86.8042 139.919C86.5607 139.643 86.1595 139.504 85.6006 139.504C84.7871 139.504 84.1812 139.872 83.7827 140.608V147H81.7656V138.019H83.6665ZM95.2129 147.166C93.9346 147.166 92.897 146.765 92.1001 145.962C91.3088 145.154 90.9131 144.081 90.9131 142.742V142.493C90.9131 141.596 91.0846 140.797 91.4277 140.094C91.7764 139.385 92.2633 138.835 92.8887 138.442C93.514 138.049 94.2113 137.853 94.9805 137.853C96.2035 137.853 97.147 138.243 97.811 139.023C98.4806 139.803 98.8154 140.907 98.8154 142.335V143.148H92.9468C93.0076 143.89 93.2539 144.477 93.6855 144.908C94.1227 145.34 94.6706 145.556 95.3291 145.556C96.2533 145.556 97.0059 145.182 97.5869 144.435L98.6743 145.473C98.3146 146.009 97.8332 146.427 97.23 146.726C96.6323 147.019 95.96 147.166 95.2129 147.166ZM94.9722 139.471C94.4188 139.471 93.9705 139.665 93.6274 140.052C93.2899 140.44 93.0741 140.979 92.98 141.671H96.8232V141.521C96.779 140.846 96.5991 140.337 96.2837 139.994C95.9683 139.646 95.5311 139.471 94.9722 139.471Z" fill="#262626"/>
<path d="M72.5311 3.49142e-05C69.614 -0.00597681 66.7479 0.764464 64.227 2.23225C61.7061 3.70005 59.6213 5.8123 58.1866 8.35215C56.7518 10.892 56.0189 13.7679 56.063 16.6847C56.1071 19.6014 56.9267 22.4538 58.4376 24.9491L42.5044 39.8341C42.0404 40.2655 41.6681 40.786 41.4097 41.3644C41.1514 41.9429 41.0123 42.5675 41.0008 43.2009C40.9892 43.8344 41.1055 44.4636 41.3426 45.0511C41.5797 45.6386 41.9328 46.1723 42.3808 46.6203C42.8288 47.0683 43.3624 47.4214 43.9499 47.6585C44.5374 47.8956 45.1667 48.0118 45.8001 48.0003C46.4336 47.9888 47.0582 47.8497 47.6366 47.5913C48.2151 47.333 48.7356 46.9607 49.167 46.4967L64.0519 30.5635C66.2263 31.8721 68.6738 32.6602 71.2033 32.8663C73.7327 33.0723 76.2755 32.6907 78.633 31.7513C80.9905 30.8118 83.0989 29.34 84.7933 27.4508C86.4878 25.5615 87.7225 23.3061 88.4009 20.8607C89.0794 18.4152 89.1832 15.846 88.7042 13.3538C88.2253 10.8616 87.1765 8.51395 85.64 6.49419C84.1034 4.47443 82.1207 2.83731 79.8466 1.71075C77.5726 0.58419 75.0689 -0.00129801 72.5311 3.49142e-05ZM47.7515 45.1743C47.497 45.4459 47.1905 45.6635 46.8501 45.8143C46.5098 45.9651 46.1427 46.0459 45.7705 46.0519C45.3983 46.058 45.0287 45.9891 44.6837 45.8495C44.3387 45.7098 44.0252 45.5022 43.762 45.239C43.4988 44.9758 43.2912 44.6624 43.1516 44.3174C43.012 43.9723 42.9431 43.6027 42.9491 43.2306C42.9552 42.8584 43.036 42.4912 43.1868 42.1509C43.3375 41.8106 43.5552 41.5041 43.8268 41.2496L55.8954 29.9764L59.0267 33.1066L47.7515 45.1743ZM60.3462 31.6892L57.3118 28.6529L59.5459 26.5651C60.3866 27.6429 61.3573 28.6126 62.4359 29.4522L60.3462 31.6892ZM72.5311 31.0023C69.6568 31.0023 66.8472 30.15 64.4573 28.5532C62.0675 26.9564 60.2049 24.6867 59.1049 22.0313C58.005 19.3759 57.7172 16.4539 58.278 13.6349C58.8387 10.8159 60.2228 8.22648 62.2552 6.1941C64.2875 4.16172 66.877 2.77765 69.696 2.21691C72.5149 1.65618 75.4369 1.94397 78.0924 3.04389C80.7478 4.1438 83.0174 6.00645 84.6143 8.39628C86.2111 10.7861 87.0634 13.5958 87.0634 16.47C87.059 20.3229 85.5266 24.0167 82.8022 26.7411C80.0778 29.4655 76.3839 30.998 72.5311 31.0023Z" fill="#666666"/>
<path fill-rule="evenodd" clip-rule="evenodd" d="M72.5301 5.73538C70.4074 5.7356 68.3324 6.36516 66.5674 7.54448C64.8021 8.72401 63.4263 10.4005 62.6138 12.362C61.8013 14.3235 61.5887 16.4818 62.0029 18.5641C62.4171 20.6464 63.4395 22.5591 64.9407 24.0604C66.442 25.5617 68.3547 26.584 70.437 26.9982C72.5193 27.4124 74.6777 27.1998 76.6392 26.3874C78.6006 25.5749 80.2771 24.199 81.4567 22.4337C82.6362 20.6685 83.2657 18.5932 83.2658 16.4702M72.5312 3.87524C70.0402 3.87524 67.6052 4.61391 65.534 5.99783C63.4628 7.38175 61.8485 9.34877 60.8952 11.6502C59.942 13.9515 59.6926 16.4839 60.1785 18.927C60.6645 21.3702 61.864 23.6143 63.6254 25.3757C65.3868 27.1371 67.631 28.3366 70.0741 28.8226C72.5172 29.3086 75.0496 29.0592 77.351 28.1059C79.6524 27.1526 81.6194 25.5383 83.0033 23.4672C84.3872 21.396 85.1259 18.9609 85.1259 16.4699C85.1221 13.1308 83.7939 9.92952 81.4328 7.56839C79.0716 5.20726 75.8704 3.87909 72.5312 3.87524ZM72.5301 5.73538C75.3763 5.73893 78.1049 6.87114 80.1174 8.88371C82.1297 10.896 83.2619 13.6244 83.2658 16.4702" fill="#666666"/>
</svg>
